<svg xmlns="http://www.w3.org/2000/svg" width="64" height="64" viewBox="0 0 64 64" xmlns:xlink="http://www.w3.org/1999/xlink">
  <defs>
    <path id="a" d="M28.2643978,0.0379797627 C12.8739096,1.73292658 0.790356749,14.4099096 0.0217334854,30.0611996 L0.0217334854,33.2342885 C0.848136015,50.061572 14.753591,63.4504592 31.7852224,63.4504592 C49.3498542,63.4504592 63.5879376,49.2115807 63.5879376,31.647744 C63.5879376,15.2736831 51.2141632,1.78964568 35.3065771,0.0379797627 L28.2643978,0.0379797627 Z M11.4230669,52.0109597 C5.9830695,46.5712273 2.98835424,39.3400726 2.98835424,31.647744 C2.98835424,23.9564756 5.9830695,16.7237307 11.4230669,11.2847934 C16.8620042,5.84638626 24.0939539,2.85061082 31.7852224,2.85061082 C39.477551,2.85061082 46.7095008,5.84638626 52.1487031,11.2847934 C57.5879054,16.7237307 60.5834158,23.9564756 60.5834158,31.647744 C60.5834158,39.3400726 57.5879054,46.5712273 52.1487031,52.0109597 C46.7095008,57.4498969 39.477551,60.4451423 31.7852224,60.4451423 C24.0939539,60.4451423 16.8620042,57.4498969 11.4230669,52.0109597 Z"/>
    <path id="b" d="M0.0954948145,6.82988683 C1.8668702,6.81983393 3.60398548,6.66514112 5.29562876,6.37701948 L5.29562876,0.0890807859 L0.0954948145,0.0890807859 L0.0954948145,6.82988683 L0.0954948145,6.82988683 Z"/>
    <path id="d" d="M1.2350393,24.1171717 C0.520372032,21.4672622 0.139147315,18.680529 0.139147315,15.8047496 C0.139147315,10.1368886 1.6200771,4.81485967 4.21609262,0.204506797 L18.8113918,0.204506797 L18.8113918,24.1171717 L1.2350393,24.1171717 L1.2350393,24.1171717 Z"/>
    <path id="f" d="M6.93646787,5.69645254 C4.979991,3.5127718 2.72642662,1.60078363 0.239333382,0.0240482048 L0.239333382,5.69645254 L6.93646787,5.69645254 L6.93646787,5.69645254 Z"/>
    <path id="h" d="M18.0076504,0.187877948 C17.369494,0.149741933 16.7262748,0.130400912 16.0785385,0.130400912 C10.2816142,0.130400912 4.84645115,1.67954335 0.164458874,4.38641876 L0.164458874,9.91797004 L18.0076504,9.91797004 L18.0076504,0.187877948 L18.0076504,0.187877948 Z"/>
    <path id="j" d="M0.215357757,7.43894127 C3.42051292,5.54005325 6.26398996,3.09508613 8.61764225,0.232177234 L0.215347035,0.232177234 L0.215347035,7.43894762 L0.215357757,7.43894127 Z"/>
    <path id="l" d="M4.39588897,0.0850120996 C2.87394715,1.38764309 1.47632754,2.83133691 0.223287729,4.39583596 L4.39588897,4.39583596 L4.39588897,0.0850120996 L4.39588897,0.0850120996 Z"/>
  </defs>
  <g fill="none" fill-rule="evenodd">
    <g transform="translate(.265 .435)"/>
    <g transform="translate(0 .045)">
      <g transform="translate(32.07 56.984)">
        <mask id="c" fill="white">
          <use xlink:href="#b"/>
        </mask>
        <polygon fill="#000000" points="1.344 13.82 3.22 15.621 5.296 13.156 1.386 .312 .095 .089" mask="url(#c)"/>
      </g>
      <g transform="translate(0 16.168)">
        <mask id="e" fill="white">
          <use xlink:href="#d"/>
        </mask>
        <polygon fill="#000000" points="16.73 4.018 -8.061 .205 5.604 24.117 11.056 21.639 18.811 10.781" mask="url(#e)"/>
      </g>
      <polygon fill="#000000" points="24.142 32.041 33.877 27.616 31.898 21.184"/>
      <g transform="translate(48.768 5.036)">
        <mask id="g" fill="white">
          <use xlink:href="#f"/>
        </mask>
        <polygon fill="#000000" points="10.613 5.696 9.365 -8.034 3.639 -9.021 .239 -4.262" mask="url(#g)"/>
      </g>
      <polygon fill="#000000" points="29.043 15.008 29.497 15.841 45.977 18.376 45.768 16.075 35.394 6.116"/>
      <g transform="translate(15.903)">
        <mask id="i" fill="white">
          <use xlink:href="#h"/>
        </mask>
        <path fill="#000000" d="M3.51724656,9.91797004 L18.0076504,-6.74604736 C16.6564637,-9.07868645 15.2888444,-11.1340911 14.0349283,-12.8682642 L0.164458874,-0.979252543 L3.51724656,9.91797004 Z" mask="url(#i)"/>
      </g>
      <path fill="#000000" d="M52.4662505,24.9439983 L50.2793848,24.350038 L44.0678487,23.9742077 L37.509902,35.2549468 L41.6286625,42.5322189 C42.2698003,40.0665285 42.7458166,37.681676 43.0694335,35.3776615 C48.0503773,38.3506433 53.1076534,40.3464133 57.4805897,41.6801072 L57.8728526,32.9376802 L52.4662505,24.9439983 Z"/>
      <g transform="translate(47.973 51.948)">
        <mask id="k" fill="white">
          <use xlink:href="#j"/>
        </mask>
        <path fill="#000000" d="M0.215347035,1.97615692 L8.02508948,15.7832812 C13.1777808,14.3215717 17.681118,12.3244765 21.2271217,10.4577821 L1.42871162,0.232177234 L0.215347035,1.97615692 Z" mask="url(#k)"/>
      </g>
      <polygon fill="#000000" points="24.934 51.718 35.12 53.475 39.782 46.947 32.703 38.454 14.629 44.264"/>
      <g transform="translate(6.891 7.686)">
        <mask id="m" fill="white">
          <use xlink:href="#l"/>
        </mask>
        <path fill="#000000" d="M-13.6781546,4.39583596 L4.39588897,-1.4136307 L1.27633869,-11.6641496 C-0.626666498,-10.4356776 -2.37939258,-9.1401498 -3.98369486,-7.78525252 C-5.25430863,-15.6594003 -8.30256248,-22.5884065 -11.448617,-28.0193925 L-25.9390208,-11.3553751 L-24.200607,-5.70572903 L-13.6781546,4.39583596 Z" mask="url(#m)"/>
      </g>
    </g>
    <path fill="#000000" d="M32.0001333,3.02396013 C39.7396794,3.02396013 47.0165221,6.03805285 52.4892221,11.5109967 C57.9621887,16.9836738 60.976294,24.2602195 60.976294,32 C60.976294,39.7397805 57.9621887,47.0163262 52.4892221,52.48927 C47.0165221,57.9619471 39.7396794,60.9760399 32.0001333,60.9760399 C24.2603206,60.9760399 16.9837445,57.9619471 11.5107779,52.48927 C6.03781133,47.0163262 3.02397273,39.7397805 3.02397273,32 C3.02397273,24.2602195 6.03781133,16.9836738 11.5107779,11.5109967 C16.9837445,6.03805285 24.2603206,3.02396013 32.0001333,3.02396013 M32.0001333,0 C14.3270009,0 0,14.3269412 0,32 C0,49.6730588 14.3270009,64 32.0001333,64 C49.6732658,64 64,49.6730588 64,32 C64,14.3269412 49.6732658,0 32.0001333,0"/>
  </g>
</svg>
