<?xml version="1.0" encoding="UTF-8"?>
<svg width="64px" height="64px" viewBox="0 0 64 64" version="1.1" xmlns="http://www.w3.org/2000/svg" xmlns:xlink="http://www.w3.org/1999/xlink">
    <!-- Generator: Sketch 62 (91390) - https://sketch.com -->
    <title>ipk-ico</title>
    <desc>Created with Sketch.</desc>
    <defs>
        <path d="M0.14307438,31.7577521 C0.14307438,49.2823802 14.3494876,63.4885289 31.8741157,63.4885289 L31.8741157,63.4885289 C49.3984793,63.4885289 63.6048926,49.2823802 63.6048926,31.7577521 L63.6048926,31.7577521 C63.6048926,14.233124 49.3984793,0.026446281 31.8741157,0.026446281 L31.8741157,0.026446281 C14.3494876,0.026446281 0.14307438,14.233124 0.14307438,31.7577521 L0.14307438,31.7577521 Z" id="path-1"></path>
        <path d="M0.14307438,31.7577521 C0.14307438,49.2823802 14.3494876,63.4885289 31.8741157,63.4885289 L31.8741157,63.4885289 C49.3984793,63.4885289 63.6048926,49.2823802 63.6048926,31.7577521 L63.6048926,31.7577521 C63.6048926,14.233124 49.3984793,0.026446281 31.8741157,0.026446281 L31.8741157,0.026446281 C14.3494876,0.026446281 0.14307438,14.233124 0.14307438,31.7577521 L0.14307438,31.7577521 Z" id="path-3"></path>
        <path d="M0.14307438,31.7577521 C0.14307438,49.2823802 14.3494876,63.4885289 31.8741157,63.4885289 L31.8741157,63.4885289 C49.3984793,63.4885289 63.6048926,49.2823802 63.6048926,31.7577521 L63.6048926,31.7577521 C63.6048926,14.233124 49.3984793,0.026446281 31.8741157,0.026446281 L31.8741157,0.026446281 C14.3494876,0.026446281 0.14307438,14.233124 0.14307438,31.7577521 L0.14307438,31.7577521 Z" id="path-5"></path>
        <path d="M0.14307438,31.7577521 C0.14307438,49.2823802 14.3494876,63.4885289 31.8741157,63.4885289 L31.8741157,63.4885289 C49.3984793,63.4885289 63.6048926,49.2823802 63.6048926,31.7577521 L63.6048926,31.7577521 C63.6048926,14.233124 49.3984793,0.026446281 31.8741157,0.026446281 L31.8741157,0.026446281 C14.3494876,0.026446281 0.14307438,14.233124 0.14307438,31.7577521 L0.14307438,31.7577521 Z" id="path-7"></path>
        <path d="M0.14307438,31.7577521 C0.14307438,49.2823802 14.3494876,63.4885289 31.8741157,63.4885289 L31.8741157,63.4885289 C49.3984793,63.4885289 63.6048926,49.2823802 63.6048926,31.7577521 L63.6048926,31.7577521 C63.6048926,14.233124 49.3984793,0.026446281 31.8741157,0.026446281 L31.8741157,0.026446281 C14.3494876,0.026446281 0.14307438,14.233124 0.14307438,31.7577521 L0.14307438,31.7577521 Z" id="path-9"></path>
        <path d="M0.14307438,31.7577521 C0.14307438,49.2823802 14.3494876,63.4885289 31.8741157,63.4885289 L31.8741157,63.4885289 C49.3984793,63.4885289 63.6048926,49.2823802 63.6048926,31.7577521 L63.6048926,31.7577521 C63.6048926,14.233124 49.3984793,0.026446281 31.8741157,0.026446281 L31.8741157,0.026446281 C14.3494876,0.026446281 0.14307438,14.233124 0.14307438,31.7577521 L0.14307438,31.7577521 Z" id="path-11"></path>
        <path d="M0.14307438,31.7577521 C0.14307438,49.2823802 14.3494876,63.4885289 31.8741157,63.4885289 L31.8741157,63.4885289 C49.3984793,63.4885289 63.6048926,49.2823802 63.6048926,31.7577521 L63.6048926,31.7577521 C63.6048926,14.233124 49.3984793,0.026446281 31.8741157,0.026446281 L31.8741157,0.026446281 C14.3494876,0.026446281 0.14307438,14.233124 0.14307438,31.7577521 L0.14307438,31.7577521 Z" id="path-13"></path>
        <path d="M0.14307438,31.7577521 C0.14307438,49.2823802 14.3494876,63.4885289 31.8741157,63.4885289 L31.8741157,63.4885289 C49.3984793,63.4885289 63.6048926,49.2823802 63.6048926,31.7577521 L63.6048926,31.7577521 C63.6048926,14.233124 49.3984793,0.026446281 31.8741157,0.026446281 L31.8741157,0.026446281 C14.3494876,0.026446281 0.14307438,14.233124 0.14307438,31.7577521 L0.14307438,31.7577521 Z" id="path-15"></path>
        <path d="M0.14307438,31.7577521 C0.14307438,49.2823802 14.3494876,63.4885289 31.8741157,63.4885289 L31.8741157,63.4885289 C49.3984793,63.4885289 63.6048926,49.2823802 63.6048926,31.7577521 L63.6048926,31.7577521 C63.6048926,14.233124 49.3984793,0.026446281 31.8741157,0.026446281 L31.8741157,0.026446281 C14.3494876,0.026446281 0.14307438,14.233124 0.14307438,31.7577521 L0.14307438,31.7577521 Z" id="path-17"></path>
        <path d="M0.14307438,31.7577521 C0.14307438,49.2823802 14.3494876,63.4885289 31.8741157,63.4885289 L31.8741157,63.4885289 C49.3984793,63.4885289 63.6048926,49.2823802 63.6048926,31.7577521 L63.6048926,31.7577521 C63.6048926,14.233124 49.3984793,0.026446281 31.8741157,0.026446281 L31.8741157,0.026446281 C14.3494876,0.026446281 0.14307438,14.233124 0.14307438,31.7577521" id="path-19"></path>
    </defs>
    <g id="ipk-ico" stroke="none" stroke-width="1" fill="none" fill-rule="evenodd">
        <g id="Group-34">
            <path d="M0.145190083,31.870757 C0.145190083,49.396443 14.3529256,63.603914 31.8780826,63.603914 C49.4042975,63.603914 63.6109752,49.396443 63.6109752,31.870757 C63.6109752,14.3453355 49.4042975,0.137864463 31.8780826,0.137864463 C14.3529256,0.137864463 0.145190083,14.3453355 0.145190083,31.870757 M3.14393388,31.870757 C3.14393388,24.1960463 6.13236364,16.9791207 11.5601983,11.5523438 C16.9875041,6.1258314 24.2036364,3.13660826 31.8780826,3.13660826 C39.5535868,3.13660826 46.769719,6.1258314 52.1967603,11.5523438 C57.6240661,16.9791207 60.6132893,24.1960463 60.6132893,31.870757 C60.6132893,39.5462612 57.6240661,46.7616 52.1967603,52.1894347 C46.769719,57.6167405 39.5535868,60.6049058 31.8780826,60.6049058 C24.2036364,60.6049058 16.9875041,57.6167405 11.5601983,52.1894347 C6.13236364,46.7616 3.14393388,39.5462612 3.14393388,31.870757" id="Fill-1" fill="#000000"></path>
            <g id="Group-33" transform="translate(0.000000, 0.117421)">
                <g id="Group-5">
                    <mask id="mask-2" fill="white">
                        <use xlink:href="#path-1"></use>
                    </mask>
                    <g id="Clip-4"></g>
                    <path d="M23.7046744,72.1783273 C23.7059967,72.1759471 23.8144264,71.9540628 23.8937653,71.5592198 L12.3676826,69.2525752 C12.9241124,66.4733355 15.5523438,62.8393521 20.1820298,58.4474182 C22.6555504,55.2497983 24.4261289,54.157038 26.5984264,53.3869223 C26.6185256,53.3797818 26.6388893,53.3729058 26.6595174,53.3657653 C26.875319,53.1663603 27.4973355,52.5263603 28.6794843,50.8375008 C30.6423273,48.0336661 32.4118479,46.3569719 34.0205752,45.3033521 C30.9932694,45.2065587 27.5705917,44.6466909 24.7585587,42.5378645 C22.3114843,40.7019636 20.2359802,37.8566083 17.8195835,33.022757 C15.0887405,27.5613355 14.0776992,21.0976 15.046162,15.2889388 C15.8641455,10.3834182 19.7242446,7.88398017 22.0306248,6.3910876 C22.1771372,6.29588099 22.3429554,6.18877355 22.5127405,6.07717025 C22.1189554,5.8087405 21.6862942,5.52179835 21.2747901,5.24887273 L20.5599471,4.77389752 C12.5533355,-0.56454876 13.5606744,-5.78425124 16.0122446,-13.1373752 C16.6734017,-15.1205818 16.1632529,-15.936714 15.874724,-16.2165157 L-8.80044959,-33.7699702 L-1.98735868,-43.3480198 L22.7092364,-25.7792264 C25.7500298,-23.6947306 30.0160793,-17.9807471 27.1630545,-9.42061488 C26.9258314,-8.70868099 26.2903273,-6.80190413 26.0726744,-5.72421818 C26.2895339,-5.55390413 26.6103273,-5.31932562 27.0800132,-5.00620165 L27.7731702,-4.5457719 C31.9498314,-1.77420165 36.269038,1.09151736 34.7922777,8.47743471 C33.9526083,12.674724 30.6224926,14.8311537 28.4184595,16.2574017 C27.824476,16.6419306 26.9655008,17.1986248 26.5896992,17.5503603 C26.1218645,20.8384264 26.7647736,24.6310876 28.3325091,27.7662942 C30.1567736,31.4150876 31.2315504,32.6995835 31.8115174,33.1348893 C32.6612364,33.6958149 35.9537983,33.5622612 37.3599471,33.5048727 C38.0896,33.4755174 38.7787901,33.4474843 39.4476165,33.4474843 C43.4304264,33.4474843 47.1776,35.6409388 48.994724,39.0358479 C50.8031207,42.4146248 50.4619636,46.4209719 48.0587901,50.0263934 C45.7891702,53.4300298 43.3473851,54.4085421 41.0468231,54.9594182 C40.4634182,55.0990545 39.959881,55.2193851 38.3085752,57.5783934 C35.0776331,62.1945917 33.0801455,63.5600132 30.5249058,64.4657983 C30.5093025,64.4713521 30.4939636,64.4766413 30.4786248,64.482195 C30.3136,64.6374347 29.9274843,65.0375669 29.2657983,65.9200793 L28.9566413,66.3323769 L28.5803107,66.6846413 C26.4767736,68.6575339 24.1516165,71.277038 23.7046744,72.1783273 Z" id="Stroke-3" stroke="#000000" stroke-width="2.9987438" stroke-linejoin="round" mask="url(#mask-2)"></path>
                </g>
                <g id="Group-8">
                    <mask id="mask-4" fill="white">
                        <use xlink:href="#path-3"></use>
                    </mask>
                    <g id="Clip-7"></g>
                    <path d="M28.7864066,75.124443 C28.8094149,75.089005 29.3515636,74.2358479 29.6562248,72.7120132 L6.60511736,68.0997818 C7.26891901,64.7834182 9.1349686,61.6318149 12.8453818,57.5622612 C13.9920926,56.3042116 15.0917289,55.2043107 15.7907041,54.5230545 C18.1536793,51.5338314 20.3429025,49.7087736 23.0975471,48.4636826 C22.4657455,48.1034843 21.8426711,47.697005 21.2322909,47.2394843 C17.1778116,44.198162 14.5747041,39.6745256 12.5626711,35.6509884 C9.28915041,29.1034182 8.0810843,21.3292694 9.24921653,14.3228562 C9.82230744,10.8848397 11.3273653,8.25581488 13.0484893,6.2496 C11.1382744,4.28279008 9.28518347,1.52576529 8.61688595,-2.25975537 C7.9438281,-6.07410248 8.7118281,-9.56633388 9.87625785,-13.2714579 L-12.2071802,-28.9810777 L1.41953058,-48.1366479 L26.1253818,-30.5617719 C27.3334479,-29.7131107 29.8249521,-27.6622017 31.6965554,-24.1273917 C34.2057785,-19.3874248 34.636324,-13.7355901 32.926043,-8.14881322 C37.2354645,-5.09109421 42.5038281,-0.114961983 40.5552661,9.6302281 C39.3445554,15.682195 35.1105058,18.8824595 32.356919,20.7054017 C32.4865058,22.2173355 32.911762,23.7832198 33.5890512,25.1380628 C34.180919,26.321005 34.6384397,27.1368727 34.9745719,27.6896 C35.6862413,27.6776992 36.5227372,27.6573355 37.1217455,27.633005 C37.8778446,27.6020628 38.6595967,27.5705917 39.4476959,27.5705917 C45.5689521,27.5705917 51.3503736,30.9824264 54.1761587,36.2626909 C56.9985058,41.5355504 56.5393983,47.8995835 52.9487868,53.2858975 C49.9262413,57.8190545 46.4498777,59.5282777 43.5392,60.3779967 C43.4209851,60.5329719 43.2826711,60.7212694 43.1237289,60.9487074 C39.9869355,65.4297653 37.3893818,67.8691702 34.0037289,69.3982942 C33.9918281,69.4138975 33.9793983,69.4300298 33.9672331,69.4464264 L33.348919,70.2710215 L32.5965223,70.9750215 C31.119762,72.3629223 29.2640264,74.3834182 28.7864066,75.124443 Z" id="Stroke-6" stroke="#000000" stroke-width="2.9987438" stroke-linejoin="round" mask="url(#mask-4)"></path>
                </g>
                <g id="Group-11">
                    <mask id="mask-6" fill="white">
                        <use xlink:href="#path-5"></use>
                    </mask>
                    <g id="Clip-10"></g>
                    <path d="M33.6304132,78.4511471 C33.670876,78.3958744 34.453157,77.2980893 35.0529587,75.3236099 C34.8546116,75.3992463 34.6538843,75.4727669 34.4513058,75.5449653 L34.3862479,75.5679736 C34.6152727,75.4857256 34.8403306,75.3955438 35.0606281,75.3000727 C35.1923306,74.8634446 35.3153058,74.3845025 35.4195041,73.8650975 L0.84231405,66.946486 C1.73038017,62.5085355 4.02089256,58.5177917 8.50247934,53.602486 C9.60370248,52.3949488 10.6692231,51.3169983 11.4282314,50.5696264 C12.1486281,49.6789157 12.8711405,48.8641058 13.6050248,48.1183207 C10.8747107,45.0085025 8.91477686,41.4967008 7.30604959,38.2795107 C3.48932231,30.6452628 2.08449587,21.5609653 3.45229752,13.3562711 C3.8926281,10.7137587 4.72938843,8.43673388 5.78089256,6.47838678 C4.46122314,4.36638678 3.36846281,1.8161719 2.82922314,-1.23863802 C2.21196694,-4.73642314 2.51292562,-7.98243967 3.12938843,-10.8584727 L-15.6141488,-24.1918942 L4.82618182,-52.9257785 L29.4920992,-35.3794645 C31.3621157,-34.0701091 34.5047273,-31.3839603 36.8907107,-26.8767207 C39.5186777,-21.9130182 40.3985455,-16.2257455 39.4864132,-10.4792331 C40.5966281,-9.4869686 41.6790744,-8.34872066 42.6800661,-6.99678678 C45.2633388,-3.50667107 47.9920661,2.41094876 46.318281,10.7822545 C45.3402975,15.671643 42.912,19.2038083 40.426843,21.7148826 C48.3202645,22.064238 55.6744463,26.6074446 59.3576198,33.4890314 C63.2200992,40.7056926 62.6522975,49.3248 57.8388099,56.5456926 C54.4716694,61.5961388 50.5637025,64.0334281 47.2100496,65.3369653 C44.1438678,69.5313455 41.2916364,72.2159074 37.8589091,74.0526017 L37.7412231,74.2094281 L36.6127603,75.265957 C35.5279339,76.2878413 34.0686281,77.8449983 33.6304132,78.4511471 Z" id="Stroke-9" stroke="#000000" stroke-width="2.9987438" stroke-linejoin="round" mask="url(#mask-6)"></path>
                </g>
                <g id="Group-14">
                    <mask id="mask-8" fill="white">
                        <use xlink:href="#path-7"></use>
                    </mask>
                    <g id="Clip-13"></g>
                    <path d="M38.3289124,81.9809851 C38.3730777,81.9246545 38.9630942,81.1537455 39.6311273,79.7468033 C38.6055405,80.2437289 37.5368463,80.6867041 36.4142017,81.0844562 L36.365805,81.1016463 C37.6111603,80.6573488 38.7628959,80.0710347 39.7707636,79.4463736 C40.2814413,78.3184397 40.8193587,76.8308364 41.1819372,75.0179438 L-4.92027769,65.7937455 C-3.51386446,58.7630017 0.670730579,53.469514 4.1592595,49.6430017 C4.78101157,48.9612165 5.38795372,48.3212165 5.94359008,47.7505058 C4.41023471,45.4502083 3.15297851,43.1150017 2.04963967,40.907795 C-2.37455868,32.0588694 -3.93541818,21.9312661 -2.34493884,12.3897124 C-1.99875702,10.3136793 -1.45872397,8.41748099 -0.781963636,6.6886876 C-1.73535207,4.65681983 -2.5030876,2.36207603 -2.95849256,-0.217494215 C-3.45753388,-3.04803967 -3.47974876,-5.71726281 -3.2369719,-8.17518017 L-19.0209058,-19.4032132 L8.23304463,-57.7146182 L32.9156231,-40.1564033 C35.2714579,-38.4953124 39.1609124,-35.1498579 42.0848132,-29.6268165 C44.8426314,-24.4176926 46.0398545,-18.5878744 45.6413091,-12.6432793 C46.2413752,-11.9808 46.8308628,-11.2670149 47.4034248,-10.4934612 C50.6944,-6.04837025 54.1771107,1.45126612 52.0815074,11.9343074 C51.6393256,14.1441587 50.9660033,16.1334479 50.1437884,17.9209521 C56.2248463,20.3865388 61.4194248,24.8874314 64.5390281,30.7159273 C69.4419041,39.8763901 68.7651438,50.7508364 62.7290446,59.805514 C58.9691769,65.4443901 54.5322843,68.470638 50.9461686,70.1428364 C47.934995,74.0143074 44.9383669,76.758638 41.4847471,78.7627372 L40.6448132,79.5421091 C39.8228628,80.3204231 38.7033917,81.4991339 38.3289124,81.9809851 Z" id="Stroke-12" stroke="#000000" stroke-width="2.9987438" stroke-linejoin="round" mask="url(#mask-8)"></path>
                </g>
                <g id="Group-17">
                    <mask id="mask-10" fill="white">
                        <use xlink:href="#path-9"></use>
                    </mask>
                    <g id="Clip-16"></g>
                    <path d="M38.3386446,86.6376198 C40.629157,85.822281 42.680595,84.6454215 44.3371901,83.450314 C45.0620826,82.1274711 45.9237025,80.229686 46.5644959,77.8109091 L46.5203306,77.8217521 L46.4370248,77.8415868 C46.4796033,77.8312727 46.5219174,77.8209587 46.5644959,77.8101157 C46.7028099,77.2878017 46.8308099,76.741157 46.9450579,76.1712397 L-10.6832397,64.6401322 C-9.15755372,57.0143471 -5.09196694,51.2858182 -1.37229752,47.0160661 C-2.04561983,45.8132893 -2.65256198,44.6448926 -3.20687603,43.536 C-8.18247934,33.5850579 -9.93507438,22.1803636 -8.14201653,11.4233388 C-7.87570248,9.82783471 -7.51365289,8.31880992 -7.07385124,6.89547107 C-7.81540496,4.9461157 -8.37368595,2.9145124 -8.74604959,0.803570248 C-9.11709091,-1.30049587 -9.2686281,-3.32390083 -9.26333884,-5.24945455 L-22.4272397,-14.6140826 L11.6395372,-62.5035372 L36.3884959,-44.8979835 C39.2343802,-42.8753719 43.8362975,-38.8790744 47.2790744,-32.3764628 C50.1770579,-26.9026116 51.6260496,-20.8665124 51.5964298,-14.6881322 C51.7744132,-14.4601653 51.9510744,-14.2277025 52.1269421,-13.9904793 C56.1250909,-8.58961983 60.362314,0.492033058 57.8443636,13.0865455 C57.7118678,13.7492893 57.5621818,14.3940496 57.3968926,15.024 C62.5319669,18.1488926 66.8511736,22.5804959 69.721124,27.9430083 C75.6638678,39.0464793 74.8778843,52.1762645 67.6191736,63.0652562 C64.209719,68.1783802 59.9151074,72.090314 54.7937851,74.7592727 C52.2631405,77.8762314 49.1686612,80.9461157 45.0758347,83.4479339 L44.6733223,83.8208264 C44.0798678,84.3854545 43.2230083,85.2790744 42.9236364,85.6458843 C42.9672727,85.5919339 43.3930579,85.0635372 43.9682645,84.0969256 C42.2764959,85.0458182 40.4215537,85.8992397 38.3772562,86.6238678 L38.3386446,86.6376198 Z" id="Stroke-15" stroke="#000000" stroke-width="2.9987438" stroke-linejoin="round" mask="url(#mask-10)"></path>
                </g>
                <g id="Group-20">
                    <mask id="mask-12" fill="white">
                        <use xlink:href="#path-11"></use>
                    </mask>
                    <g id="Clip-19"></g>
                    <path d="M28.3983074,69.7850975 C31.608886,71.0690645 35.0680595,71.7807339 38.6298446,71.8320397 L28.3983074,69.7850975 Z M40.3403901,92.1634116 C43.7725884,90.9431802 46.6576132,89.1382215 48.8280595,87.4192132 C49.5286215,86.2799074 50.3936793,84.6666843 51.1804562,82.6157752 C50.107795,82.9614281 49.0102744,83.2684694 47.8884231,83.5371636 L47.8196628,83.5535603 C49.0084231,83.2666182 50.1487868,82.9003372 51.2338777,82.4761388 C51.7985058,80.9821884 52.3202909,79.2600066 52.7077289,77.3241388 L39.1257124,74.606519 C39.0926545,74.6078413 39.0601256,74.6088992 39.0270678,74.610486 C33.9552,74.8154446 22.9503736,75.2623868 11.9471339,69.1686347 L-16.4458579,63.4874446 C-15.0180231,56.3498579 -11.7804694,50.7406017 -8.39032066,46.3097917 C-8.4149157,46.2616595 -8.43924628,46.2127339 -8.46384132,46.1646017 C-13.9903207,35.1108496 -15.9349157,22.4295934 -13.9390149,10.4568331 C-13.7504529,9.32599008 -13.5142876,8.20784132 -13.2323702,7.10582479 C-13.7800727,5.3976595 -14.2137917,3.6376595 -14.5337917,1.8250314 C-14.7718083,0.474155372 -14.9323372,-0.848158678 -15.0272793,-2.13715041 L-25.8340231,-9.8250843 L15.0463736,-67.2925884 L39.7953322,-49.6870347 C43.1238612,-47.3174479 48.4845223,-42.6605223 52.472886,-35.1262413 C55.5176463,-29.3744397 57.1832331,-23.1008529 57.4421421,-16.6646215 C61.1115636,-11.4100099 66.0908694,-1.39242314 63.9458116,12.3382215 C68.4784397,15.783114 72.2110678,20.1409322 74.9025058,25.1696926 C78.5491835,31.9833124 80.084919,39.6648992 79.3444231,47.3843041 C78.7073322,54.023643 76.3435636,60.5733289 72.5093818,66.3251306 C68.7595636,71.9486678 64.0904727,76.3257917 58.5576463,79.4178909 C55.9725223,82.4515438 52.7783405,85.5142876 48.6910678,88.1107835 C48.2681917,88.5172628 47.665481,89.1408661 47.4367207,89.4095603 C47.4766545,89.3630149 47.7514314,89.035081 48.1626711,88.4405686 C45.8510017,89.859676 43.2595306,91.1288331 40.3403901,92.1634116 Z" id="Stroke-18" stroke="#000000" stroke-width="2.9987438" stroke-linejoin="round" mask="url(#mask-12)"></path>
                </g>
                <g id="Group-23">
                    <mask id="mask-14" fill="white">
                        <use xlink:href="#path-13"></use>
                    </mask>
                    <g id="Clip-22"></g>
                    <path d="M42.3037884,97.7029554 C46.6933421,96.1436826 50.4291438,93.7796496 53.2409124,91.4264595 C53.9025983,90.4357818 54.733276,89.0534347 55.5639537,87.3016331 C53.5437223,88.0791537 51.4415074,88.7294678 49.2567802,89.2525752 L49.197805,89.2671207 C51.5097388,88.7098975 53.7124496,87.888476 55.7501355,86.9030876 C56.784714,84.6506579 57.8002512,81.8275174 58.4706645,78.4775669 L13.5831273,69.495881 C20.3070942,76.4184595 29.5746645,80.4636826 39.4475901,80.4636826 C39.583524,80.4636826 39.7273917,80.4634182 39.8781355,80.4591868 C39.6845488,80.464476 39.4790612,80.4742612 39.2653752,80.4829884 C33.378962,80.7202116 17.7439207,81.3554512 3.60018512,70.7467901 C1.79972231,69.396443 0.160052893,67.9744264 -1.33812893,66.5103603 L-22.2087405,62.3342281 C-21.0572694,56.5779306 -18.7545917,51.1146579 -15.1589554,45.7140628 C-20.1242446,34.3136 -21.7512198,21.5786579 -19.7360132,9.49059174 C-19.613038,8.7527405 -19.4723438,8.01964959 -19.3144595,7.2921124 C-19.7182942,5.84232727 -20.0538975,4.36080661 -20.3212694,2.8462281 C-20.423881,2.26361653 -20.5140628,1.6870876 -20.5926083,1.11584793 L-29.2410711,-5.03635041 L-18.9304595,-19.5302347 C-18.411319,-21.376714 -17.8784264,-22.9743339 -17.4402116,-24.288714 C-17.8863603,-22.9510612 -18.2312198,-21.572681 -18.4766413,-20.1678545 L18.4532099,-72.0813752 L43.0691438,-54.5704992 C49.0021025,-50.3914579 54.1599207,-44.5008132 57.6672264,-37.8757554 C60.8632595,-31.8388628 62.7226975,-25.3029289 63.2220033,-18.5924496 C66.9662678,-12.7523174 71.2817719,-3.01320992 70.1667967,9.84629421 C74.178962,13.4012033 77.5365818,17.6360463 80.0838876,22.3963769 C84.2793256,30.2350545 86.0464661,39.0694347 85.1946314,47.9456 C84.4649785,55.5465256 81.7695736,63.0295008 77.3990612,69.585005 C73.3176066,75.7067901 68.2806479,80.535881 62.3426645,84.034724 C59.6660364,87.0720793 56.414995,90.1110215 52.3478215,92.7617322 C52.1584661,92.9547901 51.9794248,93.1430876 51.8834248,93.2528397 C51.9109289,93.2213686 52.0288793,93.0849058 52.216119,92.8471537 C49.3443174,94.7052694 46.068681,96.368476 42.3037884,97.7029554 Z" id="Stroke-21" stroke="#000000" stroke-width="2.9987438" stroke-linejoin="round" mask="url(#mask-14)"></path>
                </g>
                <g id="Group-26">
                    <mask id="mask-16" fill="white">
                        <use xlink:href="#path-15"></use>
                    </mask>
                    <g id="Clip-25"></g>
                    <path d="M44.266843,103.242208 C49.6965289,101.314803 54.3042645,98.2904066 57.6936198,95.3276298 C58.2973884,94.4694479 59.0413223,93.3185058 59.8236033,91.8861752 C57.0208264,93.1191008 53.9612562,94.1695471 50.6253223,94.9682248 L50.5737521,94.9803901 C54.0297521,94.148919 57.2678347,92.8271339 60.1705785,91.2366545 C61.6780165,88.3503074 63.2687603,84.4518612 64.2332562,79.6301752 L4.58684298,67.695762 C12.3869091,79.294043 25.386843,86.340919 39.4475372,86.340919 C39.6374215,86.340919 39.8402645,86.3401256 40.0526281,86.333514 C39.8780826,86.3390678 39.6945455,86.3472661 39.5030744,86.3549355 C33.045686,86.6172826 15.8913058,87.3128198 0.0740495868,75.4484893 C-4.37606612,72.1107041 -7.95477686,68.346076 -10.8522314,64.6065719 L-27.971438,61.1812496 C-26.8569917,55.6087537 -24.8145455,50.3142083 -21.7438678,45.1341752 C-26.2135537,33.4671339 -27.5625785,20.6999273 -25.5330909,8.52432397 C-25.4733223,8.16544793 -25.4098512,7.80710083 -25.3426777,7.45060496 C-25.5994711,6.42977851 -25.8155372,5.43910083 -25.9964298,4.48439008 L-32.6476694,-0.24711405 L-26.7832066,-8.49147769 C-26.2915702,-16.3206347 -24.2163306,-22.5463537 -23.0156694,-26.1478083 C-24.5614545,-21.5096595 -25.098314,-16.4928 -24.6516364,-11.4875769 L21.8597025,-76.8707174 L46.4150744,-59.4026843 C51.3557686,-55.9337256 57.9017521,-49.9938909 62.8612231,-40.6258248 C66.2074711,-34.3046347 68.2467438,-27.5029157 68.9560331,-20.5152793 C74.0313388,-12.1201719 76.5035372,-2.51620496 76.188562,7.43870413 C79.7886942,11.0118612 82.8490579,15.1078612 85.2654545,19.6232992 C90.009124,28.4862413 92.0076694,38.4742083 91.0447603,48.5071339 C90.2228099,57.0693818 87.1952397,65.4853818 82.2891901,72.8451174 C78.9410909,77.8664727 73.7724298,83.8383074 66.1757355,88.5444231 C61.1924628,94.0230347 54.2180496,99.7155967 44.266843,103.242208 Z" id="Stroke-24" stroke="#000000" stroke-width="2.9987438" stroke-linejoin="round" mask="url(#mask-16)"></path>
                </g>
                <g id="Group-29">
                    <mask id="mask-18" fill="white">
                        <use xlink:href="#path-17"></use>
                    </mask>
                    <g id="Clip-28"></g>
                    <path d="M46.230162,108.781726 C52.6970711,106.486453 58.1108893,102.883676 62.0733355,99.3076099 C62.6160132,98.5702876 63.2729388,97.6139901 63.9814347,96.4466512 C60.3976992,98.1696264 56.4146248,99.6252298 51.9933355,100.683874 L51.9478479,100.694717 C56.6563438,99.563081 60.8832529,97.7086678 64.5201455,95.5334612 C66.4906579,92.0988826 68.7253686,87.1354446 69.9961124,80.7835769 L-3.14742479,66.148205 C-3.04005289,66.3555438 -2.9318876,66.5618248 -2.82134215,66.7681058 C5.58037686,82.4660893 21.7768727,92.2178909 39.4477488,92.2178909 C39.694757,92.2178909 39.9597488,92.2168331 40.239286,92.2075769 C40.0803438,92.2131306 39.9139967,92.2200066 39.7415669,92.2271471 C32.7139967,92.5117091 14.0389554,93.2696595 -3.45261488,80.1496595 C-10.5299041,74.8410975 -15.568714,68.6169653 -19.2259702,62.9310149 L-33.7346645,60.0280066 C-32.6617388,54.6665521 -30.8372099,49.5595107 -28.1896727,44.5894612 C-32.2219372,32.7809322 -33.3588628,20.0584198 -31.3809455,7.86641983 L-36.0545322,4.54159339 L-32.5747306,-0.349646281 C-33.6188298,-12.9232661 -30.2942678,-22.8969521 -28.5911273,-28.0061091 C-30.8610116,-21.1953983 -31.3857058,-12.9391339 -29.4823669,-4.69635702 L-24.1664,-12.1695471 C-22.4841521,-15.0257455 -20.5482843,-17.7491835 -18.3717554,-20.3152661 L25.2664595,-81.6592661 L49.8191868,-64.1933488 C55.3099636,-60.3324562 62.5684099,-53.7396628 68.0552198,-43.3756298 C71.5543273,-36.7659107 73.7636496,-29.6841256 74.6615008,-22.4108694 C79.4633521,-14.0340099 81.9876496,-4.64663802 82.0923769,5.0961719 C85.3476496,8.62833719 88.1567736,12.5698909 90.447286,16.849957 C95.7394512,26.7376926 97.9688727,37.8787174 96.8948893,49.0689322 C95.9809058,58.5925025 92.6211702,67.9412628 87.1795835,76.1044364 C83.5638479,81.5272463 78.0371041,87.9473455 69.9765421,93.1048992 C64.5315174,98.9577256 56.9620628,104.978221 46.230162,108.781726 Z" id="Stroke-27" stroke="#000000" stroke-width="2.9987438" stroke-linejoin="round" mask="url(#mask-18)"></path>
                </g>
                <g id="Group-32">
                    <mask id="mask-20" fill="white">
                        <use xlink:href="#path-19"></use>
                    </mask>
                    <g id="Clip-31"></g>
                    <path d="M-5.39406281,-38.5586512 L19.3548959,-20.953362 C19.3548959,-20.953362 23.820086,-17.9765686 21.5874909,-11.2790479 C19.3548959,-4.58126281 19.3548959,-3.09313058 23.820086,-0.116601653 C28.2850116,2.86019174 29.7734083,3.60439008 29.0292099,7.32538182 C28.2850116,11.0461091 21.5874909,11.7903074 20.8432926,16.2554975 C20.0990942,20.7201587 20.8432926,25.9295471 23.0756231,30.3944727 C25.0162512,34.2754645 26.6009124,36.5733818 28.2850116,37.8361917 C31.2615405,40.0687868 36.4709289,39.3245884 39.4477223,39.3245884 C42.4239868,39.3245884 46.145243,42.3011174 43.1684496,46.7663074 C40.1916562,51.2312331 38.7032595,46.7663074 33.4941355,54.207762 C28.2850116,61.649481 29.0292099,56.440357 24.5640198,62.3939438 C24.5640198,62.3939438 18.6207471,67.9571835 18.130962,70.4055802" id="Stroke-30" stroke="#000000" stroke-width="2.9987438" mask="url(#mask-20)"></path>
                </g>
            </g>
        </g>
    </g>
</svg>