<svg width="12" height="73" viewBox="0 0 12 73" fill="none" xmlns="http://www.w3.org/2000/svg">
<path d="M11.9374 63.6151C11.9374 64.3046 11.8747 64.9816 11.7493 65.5333C11.5362 66.436 11.135 67.0754 10.5708 67.4014C10.0317 67.7023 1.44352 72.1781 1.44352 72.1781L0.302617 69.8336C0.302617 69.8336 8.50211 65.5834 9.10391 65.2198C9.34212 64.7058 9.39227 62.9506 9.17913 62.1106L0.0894775 57.572L1.25546 55.24L11.0974 60.1422L11.2854 60.4431C11.7242 61.095 11.9374 62.3864 11.9374 63.6151Z" fill="#102247"/>
<path d="M11.9749 40.0196C11.9749 40.0196 3.7503 43.7933 2.70969 44.3701C2.68461 44.9468 2.69715 45.5736 2.72222 46.025C3.21118 46.2632 5.65599 47.3414 5.86912 47.4543C6.05719 47.5546 11.1725 49.8113 11.8746 50.1749L10.671 52.4943C10.0566 52.1809 3.97597 49.4477 3.51209 49.2471C2.32103 48.7205 1.4434 48.3319 0.979515 48.0435C-0.575129 47.0907 0.365183 43.179 0.365183 43.1414C0.603394 42.4644 0.678614 42.2888 7.14794 39.3927C7.8375 39.0793 10.834 37.6625 10.834 37.6625L11.9749 40.0196Z" fill="#102247"/>
<path d="M9.55517 45.4358C9.55517 47.5922 9.51756 49.6985 9.4298 50.1624L6.85962 49.6985V49.711C6.97245 48.8836 6.95991 41.5115 6.84708 40.5462L9.44233 40.2327C9.51755 40.822 9.55517 43.1539 9.55517 45.4358Z" fill="#102247"/>
<path d="M12 19.897C11.5361 20.085 3.19871 24.0594 2.67213 24.3352C2.62198 24.7364 2.60945 25.3759 2.64706 25.7771C3.87573 26.4666 8.11339 28.5604 11.9749 30.4159L10.8466 32.7729C4.55276 29.7514 1.13003 28.0087 0.666142 27.6075C-0.324317 26.7174 -0.0359515 23.6331 0.415397 22.8684C0.615996 22.5424 10.483 17.6779 11.0472 17.4647L12 19.897Z" fill="#102247"/>
<path d="M6.94158 20.206L7.17719 30.0199L9.7842 29.9573L9.54859 20.1434L6.94158 20.206Z" fill="#102247"/>
<path d="M11.3105 8.29983C11.2227 8.29983 3.08592 8.45028 1.58142 8.50043L1.5062 5.89264C3.01069 5.85503 10.9218 5.70458 11.2603 5.69204L11.3105 8.29983Z" fill="#102247"/>
<path d="M2.91033 14.4055L0.302541 14.4807C0.302541 14.4807 0.0768639 2.85853 0.0894014 1.71762C0.101939 1.10328 0.101942 0.476411 0.101942 -1.23978e-05H2.70973C2.70973 0.488948 2.7348 6.80782 2.7348 7.67291C2.75988 8.58814 2.91033 14.4055 2.91033 14.4055Z" fill="#102247"/>
</svg>
