<?xml version="1.0" encoding="UTF-8" standalone="no"?>
<!DOCTYPE svg PUBLIC "-//W3C//DTD SVG 1.1//EN" "http://www.w3.org/Graphics/SVG/1.1/DTD/svg11.dtd">
<svg width="100%" height="100%" viewBox="0 0 1508 924" version="1.1" xmlns="http://www.w3.org/2000/svg" xmlns:xlink="http://www.w3.org/1999/xlink" xml:space="preserve" xmlns:serif="http://www.serif.com/" style="fill-rule:evenodd;clip-rule:evenodd;stroke-miterlimit:10;">
    <g transform="matrix(1,0,0,1,193.33,-762.572)">
        <g transform="matrix(4.16667,0,0,4.16667,0,0)">
            <g>
                <g transform="matrix(1.35565,0,0,1,-101.071,-21)">
                    <rect x="15.331" y="15.331" width="291.969" height="606.614" style="fill:rgb(14,34,71);"/>
                </g>
                <g transform="matrix(1,0,0,1,152.788,269.93)">
                    <path d="M0,-84.355C5.694,-87.293 12.413,-87.572 18.52,-85.843C24.644,-84.109 29.953,-80.343 34.032,-75.504C36.048,-73.112 37.775,-70.484 39.222,-67.712C39.955,-66.309 40.614,-64.869 41.209,-63.402C41.742,-62.089 42.315,-60.733 42.59,-59.337C42.97,-57.404 43.028,-54.491 41.137,-53.275C40.206,-52.677 38.967,-52.728 38.029,-53.276C36.961,-53.901 36.239,-55.001 35.563,-56.003C34.847,-57.064 34.156,-58.147 33.077,-58.876C32.111,-59.527 30.972,-59.909 29.815,-60.023C27.504,-60.251 25.023,-59.514 23.41,-57.794C23.007,-57.364 22.678,-56.879 22.413,-56.354C22.353,-56.501 22.293,-56.648 22.233,-56.795C26.033,-56.072 29.398,-53.995 31.959,-51.123C34.611,-48.149 36.418,-44.474 37.507,-40.659C38.062,-38.712 38.431,-36.713 38.619,-34.697C38.714,-33.675 38.761,-32.647 38.756,-31.62C38.752,-30.654 38.841,-29.485 38.375,-28.607C37.839,-27.598 36.643,-27.536 35.633,-27.566C34.643,-27.596 33.654,-27.695 32.678,-27.863C30.741,-28.196 28.778,-28.819 27.155,-29.955C25.624,-31.027 24.545,-32.525 24.145,-34.361C23.764,-36.114 23.782,-37.965 23.201,-39.674C22.973,-40.343 22.601,-41.03 21.928,-41.335C20.993,-41.759 19.978,-41.381 19.351,-40.621C17.543,-38.431 19.34,-35.63 20.498,-33.614C23.181,-28.947 25.674,-24.132 27.415,-19.026C28.281,-16.487 28.952,-13.877 29.333,-11.22C29.522,-9.906 29.644,-8.583 29.684,-7.256C29.72,-6.058 29.82,-4.703 29.388,-3.562C28.571,-1.401 25.935,-1.362 24.004,-1.653C22.063,-1.945 20.245,-2.791 18.675,-3.957C15.277,-6.48 12.927,-10.221 11.009,-13.927C10.532,-14.847 10.08,-15.78 9.643,-16.72C9.78,-16.684 9.917,-16.648 10.054,-16.612C7.708,-14.897 7.515,-11.764 7.49,-9.102C7.463,-6.3 7.791,-3.238 6.706,-0.58C6.207,0.641 5.364,1.714 4.212,2.381C2.951,3.112 1.447,3.217 0.054,2.842C-2.89,2.049 -5.415,-0.649 -5.99,-3.646C-6.926,-8.533 -4.258,-13.257 -1.889,-17.317C-1.803,-17.167 -1.716,-17.016 -1.63,-16.865C-5.127,-17.028 -7.757,-13.993 -10.162,-11.889C-12.5,-9.843 -15.67,-7.689 -18.822,-9.401C-21.907,-11.076 -22.494,-15.457 -21.392,-18.489C-19.853,-22.723 -15.182,-24.836 -11.295,-26.369C-7.151,-28.003 -2.316,-29.533 0.284,-33.437C0.592,-33.899 0.855,-34.386 1.081,-34.893C1.218,-34.756 1.355,-34.619 1.492,-34.482C-3.099,-32.542 -8.029,-31.303 -13.011,-30.992C-15.082,-30.862 -17.342,-30.97 -19.143,-32.12C-20.643,-33.078 -21.558,-34.667 -21.816,-36.411C-22.075,-38.16 -21.743,-39.986 -20.924,-41.551C-19.998,-43.321 -18.416,-44.706 -16.714,-45.707C-12.875,-47.966 -8.384,-48.348 -4.181,-49.56C-2.104,-50.159 0.015,-50.989 1.679,-52.409C2.967,-53.507 3.876,-55.029 4.334,-56.652C4.762,-58.171 4.824,-59.903 4.134,-61.358C3.317,-63.081 1.553,-64.023 -0.323,-64.045C-5.017,-64.1 -8.282,-60.041 -12.377,-58.415C-14.267,-57.664 -16.9,-57.214 -18.371,-58.99C-19.591,-60.465 -19.942,-62.684 -19.775,-64.54C-19.412,-68.564 -16.753,-72.149 -13.66,-74.582C-12.785,-75.27 -11.842,-75.858 -10.92,-76.48C-9.977,-77.117 -9.044,-77.769 -8.121,-78.434C-6.395,-79.68 -4.703,-80.971 -2.997,-82.245C-2.028,-82.97 -1.053,-83.688 -0.072,-84.398C0.013,-84.459 0.146,-84.448 0.231,-84.398C0.255,-84.383 0.279,-84.369 0.303,-84.355C0.635,-84.158 0.333,-83.638 0,-83.836C-0.024,-83.85 -0.048,-83.865 -0.072,-83.879L0.231,-83.879C-3.312,-81.318 -6.738,-78.596 -10.356,-76.138C-12.166,-74.908 -13.94,-73.744 -15.436,-72.125C-16.817,-70.63 -17.978,-68.879 -18.642,-66.946C-19.277,-65.1 -19.419,-63.105 -18.838,-61.227C-18.508,-60.161 -17.948,-59.028 -16.851,-58.589C-15.815,-58.173 -14.597,-58.357 -13.554,-58.649C-11.413,-59.246 -9.573,-60.584 -7.748,-61.8C-5.958,-62.992 -4.069,-64.098 -1.926,-64.496C-0.048,-64.845 1.948,-64.573 3.428,-63.285C4.554,-62.304 5.123,-60.863 5.232,-59.397C5.481,-56.055 3.629,-52.85 0.864,-51.075C-2.787,-48.732 -7.239,-48.337 -11.336,-47.226C-15.124,-46.198 -19.449,-44.224 -20.845,-40.235C-21.425,-38.576 -21.502,-36.677 -20.825,-35.032C-20.044,-33.136 -18.304,-32.063 -16.336,-31.712C-14.084,-31.31 -11.672,-31.645 -9.434,-31.989C-7.004,-32.364 -4.604,-32.939 -2.268,-33.706C-1.098,-34.09 0.055,-34.522 1.189,-35.001C1.471,-35.12 1.728,-34.877 1.6,-34.59C-0.206,-30.535 -4.446,-28.412 -8.363,-26.862C-12.513,-25.219 -17.352,-23.76 -20.009,-19.888C-21.846,-17.212 -21.885,-12.756 -19.333,-10.488C-18.126,-9.416 -16.418,-9.158 -14.893,-9.594C-13.357,-10.033 -12.046,-11.057 -10.853,-12.082C-8.477,-14.124 -6.068,-16.955 -2.786,-17.413C-2.402,-17.466 -2.017,-17.484 -1.63,-17.466C-1.406,-17.456 -1.252,-17.218 -1.371,-17.014C-3.485,-13.389 -5.79,-9.377 -5.552,-5.03C-5.378,-1.856 -3.241,1.105 -0.194,2.139C1.158,2.597 2.651,2.591 3.909,1.863C5.035,1.21 5.829,0.128 6.259,-1.087C7.18,-3.692 6.853,-6.603 6.891,-9.313C6.931,-12.169 7.266,-15.314 9.751,-17.131C9.874,-17.221 10.099,-17.16 10.162,-17.023C11.917,-13.246 13.929,-9.438 16.828,-6.401C18.176,-4.988 19.742,-3.75 21.547,-2.975C22.445,-2.59 23.404,-2.324 24.374,-2.203C25.392,-2.077 26.528,-2.032 27.495,-2.425C28.777,-2.947 29.049,-4.209 29.088,-5.465C29.128,-6.763 29.074,-8.067 28.954,-9.361C28.711,-11.976 28.163,-14.558 27.411,-17.072C25.887,-22.162 23.537,-26.963 20.954,-31.591C20.318,-32.731 19.631,-33.847 19.023,-35.003C18.459,-36.077 17.977,-37.253 17.983,-38.486C17.992,-40.317 19.419,-42.348 21.426,-42.086C23.001,-41.881 23.682,-40.429 24.002,-39.036C24.398,-37.315 24.375,-35.498 24.91,-33.808C26.125,-29.966 30.703,-28.587 34.293,-28.25C34.758,-28.206 35.224,-28.178 35.69,-28.165C36.254,-28.15 36.908,-28.12 37.407,-28.426C38.329,-28.991 38.147,-30.569 38.155,-31.502C38.172,-33.5 37.996,-35.498 37.636,-37.463C36.282,-44.858 32.138,-52.727 24.713,-55.486C23.855,-55.804 22.972,-56.045 22.074,-56.215C21.872,-56.254 21.814,-56.497 21.894,-56.657C23.949,-60.726 29.915,-61.897 33.545,-59.279C34.516,-58.579 35.189,-57.632 35.85,-56.65C36.53,-55.64 37.22,-54.467 38.289,-53.82C39.233,-53.25 40.491,-53.322 41.256,-54.156C41.981,-54.947 42.168,-56.139 42.188,-57.172C42.213,-58.412 41.964,-59.603 41.56,-60.77C41.051,-62.236 40.477,-63.679 39.835,-65.091C38.566,-67.876 37.036,-70.548 35.227,-73.018C31.55,-78.037 26.635,-82.232 20.78,-84.462C14.964,-86.677 8.335,-87.055 2.468,-84.81C1.728,-84.527 1.007,-84.2 0.303,-83.836C-0.04,-83.659 -0.344,-84.178 0,-84.355" style="fill:rgb(252,217,220);fill-rule:nonzero;"/>
                </g>
                <g transform="matrix(1,0,0,1,207.639,330.567)">
                    <path d="M0,-13.913C0.366,-18.808 4.171,-22.28 8.054,-24.786C10.328,-26.254 12.749,-27.48 15.144,-28.734C17.916,-30.185 20.702,-31.609 23.527,-32.954C34.499,-38.176 46.526,-42.403 58.859,-41.064C65.119,-40.384 71.128,-38.364 76.914,-35.954C81.988,-33.84 87.07,-31.588 91.853,-28.868C96.119,-26.442 100.25,-23.527 103.349,-19.676C104.826,-17.839 106.044,-15.808 106.892,-13.605C107.333,-12.461 107.877,-11.121 107.678,-9.876C107.521,-8.898 106.82,-8.11 105.844,-7.898C103.603,-7.412 101.438,-9.028 99.673,-10.147C97.12,-11.766 94.473,-13.238 91.751,-14.555C86.302,-17.191 80.552,-19.201 74.647,-20.536C73.203,-20.863 71.75,-21.147 70.29,-21.393C69.908,-21.458 70.073,-22.031 70.45,-21.972C75.628,-21.165 80.138,-18.048 83.406,-14.042C87.128,-9.479 89.155,-3.859 90.304,1.858C91.005,5.344 91.403,8.884 91.737,12.422C91.762,12.691 91.397,12.804 91.224,12.634C85.214,6.723 79.429,0.585 73.889,-5.769C72.309,-7.581 70.75,-9.41 69.21,-11.256C69.378,-11.353 69.545,-11.45 69.712,-11.548C70.853,-5.916 71.813,-0.247 72.585,5.447C72.96,8.217 73.293,10.992 73.581,13.773C73.729,15.202 73.865,16.632 73.99,18.063C74.092,19.243 74.254,20.451 74.11,21.635C73.885,23.475 72.651,24.921 70.725,24.948C69.024,24.972 67.297,24.001 66.365,22.592C65.068,20.632 65.056,18.095 65.074,15.835C65.094,13.281 64.993,10.751 64.594,8.224C63.693,2.517 61.59,-2.967 58.441,-7.81C58.624,-7.834 58.807,-7.858 58.99,-7.882C57.599,-3.065 57.171,2.029 56.791,7.009C56.419,11.863 56.26,16.736 55.794,21.583C55.651,23.078 55.519,24.631 55.086,26.077C54.965,26.482 54.816,26.929 54.529,27.25C54.012,27.828 52.954,28.004 52.233,28.108C49.59,28.49 46.953,27.325 45.016,25.58C42.707,23.5 41.549,20.649 41.242,17.593C40.473,9.94 44.661,2.886 44.606,-4.707C44.599,-5.697 44.512,-6.681 44.337,-7.656C44.484,-7.596 44.631,-7.536 44.778,-7.476C41.093,-4.739 40.019,0.038 39.203,4.299C38.411,8.438 37.656,12.68 35.059,16.138C33.93,17.642 32.481,18.909 30.695,19.557C28.894,20.211 26.396,20.337 25.009,18.77C23.392,16.945 24.398,14.267 25.105,12.282C26.073,9.563 27.104,6.865 28.196,4.193C30.644,-1.798 33.399,-7.66 36.444,-13.371C36.601,-13.665 37.113,-13.463 36.993,-13.139C34.708,-7.013 30.61,-1.661 25.381,2.251C22.773,4.203 19.887,5.781 16.829,6.905C15.403,7.429 13.469,8.318 11.968,7.656C10.662,7.081 10.33,5.539 10.42,4.244C10.523,2.747 11.094,1.26 11.73,-0.086C12.415,-1.534 13.296,-2.881 14.27,-4.151C16.271,-6.76 18.644,-9.048 20.883,-11.446C22.029,-12.673 23.162,-13.928 24.158,-15.282C24.698,-16.016 25.44,-17.151 24.87,-18.059C24.425,-18.77 23.429,-18.861 22.672,-18.813C19.01,-18.583 15.969,-16.002 12.958,-14.186C10.799,-12.883 8.364,-12.107 5.869,-11.768C4.236,-11.546 1.423,-11.256 0.366,-12.909C0.153,-13.242 0.067,-13.628 0.06,-14.019C0.246,-13.969 0.433,-13.918 0.619,-13.868C0.599,-13.832 0.58,-13.797 0.56,-13.761C0.371,-13.424 -0.149,-13.727 0.041,-14.065C0.061,-14.1 0.081,-14.135 0.101,-14.171C0.249,-14.436 0.655,-14.311 0.66,-14.019C0.699,-11.958 3.855,-12.157 5.226,-12.292C7.561,-12.523 10.012,-13.18 12.056,-14.352C15.005,-16.041 17.726,-18.372 21.102,-19.171C22.356,-19.468 24.124,-19.725 25.133,-18.694C26.357,-17.442 25.229,-15.693 24.389,-14.6C20.542,-9.596 15.109,-5.697 12.315,0.078C11.658,1.437 11.04,3.001 11.007,4.528C10.992,5.219 11.09,5.987 11.517,6.555C12.133,7.376 13.185,7.357 14.095,7.142C17.207,6.405 20.233,4.929 22.92,3.222C28.334,-0.216 32.764,-5.201 35.466,-11.023C35.812,-11.769 36.126,-12.529 36.413,-13.299C36.596,-13.222 36.779,-13.145 36.962,-13.068C34.372,-8.21 31.99,-3.242 29.831,1.823C28.723,4.423 27.674,7.05 26.685,9.698C26.212,10.964 25.737,12.232 25.308,13.514C24.94,14.615 24.592,15.84 24.811,17.008C25.283,19.529 28.22,19.711 30.217,19.085C32.052,18.51 33.549,17.2 34.665,15.665C37.12,12.291 37.846,8.218 38.609,4.217C39.463,-0.257 40.618,-5.131 44.475,-7.995C44.623,-8.105 44.884,-7.994 44.916,-7.815C46.244,-0.407 42.47,6.531 41.841,13.795C41.559,17.054 41.898,20.574 43.815,23.325C45.359,25.539 47.888,27.331 50.631,27.558C51.297,27.613 51.97,27.577 52.622,27.428C53.06,27.328 53.624,27.202 53.995,26.935C54.169,26.81 54.344,26.412 54.442,26.123C54.888,24.804 55.014,23.359 55.154,21.982C55.623,17.382 55.775,12.752 56.106,8.142C56.459,3.228 56.862,-1.757 58.018,-6.558C58.138,-7.056 58.269,-7.55 58.411,-8.042C58.484,-8.298 58.82,-8.328 58.96,-8.114C61.572,-4.094 63.481,0.372 64.579,5.039C65.12,7.339 65.467,9.686 65.61,12.044C65.756,14.448 65.474,16.903 65.835,19.29C66.143,21.325 67.06,23.209 69.056,24.016C70.845,24.739 72.873,24.223 73.4,22.189C73.677,21.121 73.551,19.986 73.46,18.901C73.346,17.539 73.221,16.178 73.086,14.818C72.819,12.134 72.511,9.453 72.161,6.778C71.366,0.689 70.351,-5.37 69.133,-11.388C69.079,-11.655 69.427,-11.93 69.635,-11.68C75.036,-5.208 80.682,1.059 86.562,7.099C88.239,8.821 89.935,10.524 91.649,12.21C91.478,12.28 91.307,12.351 91.136,12.422C90.089,1.31 87.984,-11.266 78.162,-18.151C75.807,-19.802 73.138,-20.949 70.29,-21.393C70.344,-21.586 70.397,-21.779 70.45,-21.972C76.229,-20.997 81.895,-19.391 87.322,-17.179C89.971,-16.099 92.564,-14.882 95.084,-13.527C96.36,-12.841 97.617,-12.12 98.853,-11.365C99.968,-10.684 101.032,-9.892 102.19,-9.288C103.127,-8.8 104.22,-8.371 105.295,-8.428C106.674,-8.502 107.27,-9.665 107.067,-10.955C106.876,-12.166 106.379,-13.381 105.875,-14.491C105.399,-15.537 104.837,-16.543 104.203,-17.501C101.566,-21.483 97.75,-24.544 93.734,-27.049C89.423,-29.739 84.783,-31.858 80.145,-33.912C74.516,-36.407 68.734,-38.694 62.67,-39.879C56.781,-41.031 50.761,-40.93 44.875,-39.813C39.021,-38.702 33.37,-36.693 27.923,-34.308C22.493,-31.931 17.212,-29.2 11.995,-26.392C7.979,-24.23 3.488,-21.561 1.473,-17.265C0.979,-16.211 0.687,-15.073 0.601,-13.913C0.572,-13.53 -0.029,-13.527 0,-13.913" style="fill:rgb(252,217,220);fill-rule:nonzero;"/>
                </g>
                <g transform="matrix(1,0,0,1,20.9817,367.457)">
                    <path d="M0,-18.148C-0.441,-18.174 -0.564,-18.806 -0.658,-19.141C-0.894,-19.985 -1.048,-20.854 -1.207,-21.714C-1.757,-24.677 -2.226,-27.655 -2.745,-30.623C-3.394,-34.339 -4.087,-38.049 -4.927,-41.727C-5.688,-45.057 -6.536,-48.404 -7.805,-51.582C-8.175,-52.507 -8.603,-53.496 -9.339,-54.194C-10.388,-55.187 -11.722,-54.906 -12.772,-54.061C-14.507,-52.665 -15.639,-50.519 -16.279,-48.423C-17.649,-43.932 -17.085,-39.184 -16.604,-34.604C-16.083,-29.633 -15.681,-24.336 -18.014,-19.729C-19.862,-16.083 -23.145,-13.463 -26.695,-11.575C-30.638,-9.478 -34.932,-8.171 -39.172,-6.828C-44.703,-5.078 -50.234,-3.328 -55.764,-1.577C-59.751,-0.315 -65.35,1.073 -66.564,5.729C-67.013,7.451 -66.825,9.552 -65.502,10.861C-64.639,11.714 -63.437,11.994 -62.26,12.061C-60.96,12.134 -59.641,12.063 -58.345,11.961C-47.65,11.115 -37.922,6.136 -27.946,2.641C-23.066,0.932 -17.596,-0.427 -12.55,1.42C-8.468,2.915 -5.278,6.174 -3.102,9.861C-0.47,14.321 0.668,19.462 1.66,24.488C2.118,26.807 2.438,29.202 3.238,31.435C3.863,33.181 4.832,35.1 6.493,36.068C8.035,36.968 10.009,36.689 11.238,35.399C12.444,34.133 12.912,32.266 13.126,30.579C13.398,28.428 13.168,26.29 12.995,24.141C12.758,21.215 12.517,18.289 12.27,15.363C12.029,12.514 11.784,9.666 11.533,6.818C11.521,6.676 11.638,6.577 11.754,6.529C18.115,3.889 25.094,5.771 31.589,6.798C36.898,7.638 43.214,7.858 47.775,4.529C49.953,2.939 51.852,0.244 51.342,-2.59C50.724,-6.02 46.85,-6.094 44.093,-6.213C40.224,-6.379 36.355,-6.545 32.486,-6.711C30.629,-6.79 28.772,-6.87 26.915,-6.95C25.048,-7.03 23.157,-7.031 21.297,-7.208C20.028,-7.33 18.782,-7.738 18.01,-8.813C17.411,-9.647 17.259,-10.709 17.346,-11.711C17.578,-14.402 19.095,-16.688 20.501,-18.902C24.198,-24.728 27.252,-30.962 29.581,-37.457C30.097,-38.894 30.74,-40.394 30.88,-41.929C31.011,-43.371 30.507,-44.991 28.756,-44.905C27.554,-44.846 26.403,-44.12 25.409,-43.49C24.577,-42.963 23.782,-42.379 23.015,-41.762C19.492,-38.927 16.442,-35.514 13.514,-32.086C10.762,-28.863 8.152,-25.524 5.413,-22.291C4.467,-21.174 3.51,-20.046 2.434,-19.051C1.943,-18.597 1.214,-17.863 0.478,-17.894C0.343,-17.9 0.211,-17.933 0.095,-18.005C0.037,-18.04 -0.01,-18.087 -0.06,-18.131C-0.284,-18.332 0.013,-18.139 -0.08,-18.159C-0.458,-18.238 -0.298,-18.817 0.08,-18.738C0.272,-18.698 0.365,-18.544 0.409,-18.517C0.44,-18.498 0.504,-18.487 0.564,-18.498C0.872,-18.552 1.159,-18.768 1.41,-18.961C2.437,-19.748 3.305,-20.773 4.152,-21.742C6.908,-24.898 9.472,-28.218 12.169,-31.424C15.152,-34.97 18.24,-38.498 21.774,-41.51C23.226,-42.748 24.773,-43.93 26.479,-44.798C27.682,-45.411 29.241,-45.911 30.44,-45.016C31.393,-44.305 31.581,-43.042 31.48,-41.929C31.348,-40.466 30.787,-39.066 30.302,-37.693C29.719,-36.044 29.089,-34.411 28.415,-32.798C27.083,-29.61 25.581,-26.495 23.91,-23.472C23.046,-21.911 22.138,-20.375 21.188,-18.865C20.416,-17.64 19.592,-16.456 18.975,-15.142C18.035,-13.141 16.999,-9.825 19.357,-8.372C20.112,-7.906 21.017,-7.815 21.883,-7.768C22.825,-7.717 23.768,-7.686 24.71,-7.645C26.683,-7.561 28.656,-7.476 30.629,-7.391C34.498,-7.225 38.367,-7.059 42.235,-6.893C43.888,-6.822 45.57,-6.833 47.209,-6.593C48.572,-6.393 49.965,-5.93 50.901,-4.867C52.649,-2.883 52.106,0.121 50.822,2.196C47.872,6.961 41.575,8.061 36.419,7.881C29.849,7.652 23.449,5.249 16.832,5.892C15.14,6.057 13.484,6.456 11.913,7.108C11.987,7.012 12.06,6.915 12.134,6.818C12.662,12.822 13.168,18.827 13.651,24.834C13.818,26.911 13.975,28.95 13.666,31.022C13.42,32.676 12.914,34.411 11.786,35.689C10.707,36.912 9.031,37.454 7.437,37.088C5.672,36.684 4.41,35.195 3.578,33.672C2.542,31.777 2.073,29.696 1.658,27.596C1.124,24.897 0.631,22.188 -0.035,19.518C-1.25,14.648 -3.117,9.846 -6.618,6.148C-8.201,4.476 -10.089,3.063 -12.228,2.186C-14.692,1.176 -17.376,0.967 -20.005,1.26C-22.814,1.573 -25.541,2.42 -28.193,3.364C-30.784,4.287 -33.344,5.297 -35.907,6.296C-41.006,8.282 -46.141,10.26 -51.488,11.484C-54.049,12.07 -56.657,12.479 -59.282,12.624C-61.446,12.744 -64.11,12.969 -65.831,11.378C-67.113,10.192 -67.525,8.321 -67.338,6.638C-67.12,4.679 -66.137,3.016 -64.644,1.751C-62.929,0.299 -60.81,-0.556 -58.703,-1.265C-56.034,-2.164 -53.334,-2.976 -50.65,-3.826C-45.276,-5.526 -39.865,-7.14 -34.529,-8.956C-30.401,-10.36 -26.199,-12.045 -22.797,-14.842C-21.179,-16.172 -19.773,-17.757 -18.762,-19.598C-17.488,-21.919 -16.943,-24.534 -16.826,-27.161C-16.598,-32.253 -17.818,-37.271 -17.735,-42.358C-17.667,-46.611 -16.717,-51.436 -13.343,-54.363C-12.543,-55.057 -11.53,-55.602 -10.44,-55.421C-9.498,-55.265 -8.78,-54.591 -8.26,-53.826C-7.297,-52.406 -6.771,-50.623 -6.25,-49.001C-5.115,-45.468 -4.294,-41.834 -3.554,-38.201C-2.81,-34.545 -2.172,-30.869 -1.549,-27.191C-1.133,-24.734 -0.782,-22.246 -0.21,-19.819C-0.141,-19.525 -0.071,-19.227 0.032,-18.942C0.066,-18.848 0.101,-18.829 0.115,-18.742C0.135,-18.616 0.192,-18.738 0,-18.749C0.384,-18.726 0.387,-18.125 0,-18.148" style="fill:rgb(252,217,220);fill-rule:nonzero;"/>
                </g>
                <g transform="matrix(1,0,0,1,60.1521,221.032)">
                    <path d="M0,-9.826C0.008,-8.945 -0.153,-8.073 -0.641,-7.323C-1.091,-6.631 -1.772,-6.131 -2.506,-5.761C-3.438,-5.292 -4.502,-4.973 -5.539,-4.845C-6.813,-4.687 -8.103,-4.766 -9.377,-4.618C-11.713,-4.348 -13.495,-3.075 -15.113,-1.465C-16.745,0.157 -18.277,2.121 -20.506,2.969C-22.198,3.612 -24.609,3.401 -25.626,1.726C-26.284,0.644 -26.097,-0.656 -25.689,-1.79C-25.292,-2.895 -24.703,-3.979 -24.057,-4.963C-23.452,-5.884 -22.628,-6.557 -21.561,-6.881C-20.613,-7.169 -19.609,-7.204 -18.624,-7.199C-16.633,-7.188 -14.523,-6.944 -12.622,-7.675C-11.478,-8.115 -10.513,-8.877 -9.619,-9.693C-8.693,-10.539 -7.84,-11.517 -6.817,-12.253C-5.87,-12.933 -4.746,-13.128 -3.611,-13.3C-2.502,-13.467 -1.474,-13.35 -0.875,-12.302C-0.685,-11.97 -0.166,-12.269 -0.356,-12.601C-0.838,-13.444 -1.602,-13.913 -2.582,-13.96C-3.54,-14.006 -4.626,-13.779 -5.546,-13.527C-6.622,-13.231 -7.476,-12.54 -8.268,-11.791C-9.192,-10.919 -10.082,-9.987 -11.1,-9.219C-12.067,-8.49 -13.139,-8.023 -14.345,-7.855C-15.463,-7.699 -16.601,-7.749 -17.725,-7.776C-19.748,-7.824 -21.985,-7.841 -23.592,-6.433C-24.533,-5.608 -25.137,-4.391 -25.684,-3.293C-26.234,-2.188 -26.725,-0.958 -26.659,0.296C-26.545,2.461 -24.705,3.78 -22.629,3.893C-17.336,4.18 -15.35,-2.227 -10.836,-3.713C-9.489,-4.156 -8.055,-4.099 -6.656,-4.165C-5.428,-4.222 -4.245,-4.427 -3.095,-4.862C-1.433,-5.491 0.028,-6.597 0.454,-8.383C0.566,-8.855 0.605,-9.342 0.6,-9.826C0.597,-10.207 -0.003,-10.208 0,-9.826" style="fill:rgb(252,217,220);fill-rule:nonzero;"/>
                </g>
                <g transform="matrix(1,0,0,1,57.9638,211.836)">
                    <path d="M0,-3.93C-0.654,-3.585 -0.868,-2.876 -0.764,-2.188C-0.657,-1.487 -0.225,-0.817 0.371,-0.424C1.065,0.034 2.193,0.18 2.806,-0.49C3.357,-1.091 3.23,-2.032 2.768,-2.646C2.48,-3.029 2.039,-3.322 1.62,-3.552C1.163,-3.803 0.672,-3.933 0.152,-3.971C-0.01,-3.982 -0.149,-3.826 -0.149,-3.674C-0.149,-3.504 -0.011,-3.389 0.152,-3.378C0.87,-3.326 1.521,-2.997 2.062,-2.535C2.459,-2.197 2.719,-1.559 2.494,-1.081C2.199,-0.456 1.321,-0.577 0.815,-0.851C0.351,-1.102 0.017,-1.572 -0.125,-2.068C-0.2,-2.332 -0.222,-2.609 -0.157,-2.853C-0.089,-3.108 0.055,-3.287 0.303,-3.418C0.644,-3.598 0.341,-4.11 0,-3.93" style="fill:rgb(252,217,220);fill-rule:nonzero;"/>
                </g>
                <g transform="matrix(1,0,0,1,64.939,206.415)">
                    <path d="M0,-2.477C-0.467,-2.313 -0.956,-2.051 -1.181,-1.59C-1.381,-1.182 -1.34,-0.639 -1.004,-0.309C-0.612,0.074 0.099,0.002 0.556,-0.22C1.01,-0.442 1.287,-0.96 1.227,-1.454C1.155,-2.056 0.643,-2.507 0.036,-2.542C-0.121,-2.551 -0.271,-2.399 -0.264,-2.245C-0.257,-2.077 -0.133,-1.958 0.036,-1.949C0.034,-1.949 0.123,-1.94 0.078,-1.946C0.034,-1.953 0.122,-1.937 0.12,-1.937C0.155,-1.929 0.19,-1.917 0.225,-1.906C0.307,-1.88 0.196,-1.921 0.242,-1.899C0.263,-1.889 0.283,-1.878 0.303,-1.867C0.319,-1.858 0.335,-1.849 0.35,-1.839C0.354,-1.836 0.424,-1.784 0.379,-1.821C0.414,-1.792 0.448,-1.761 0.479,-1.727C0.492,-1.714 0.504,-1.7 0.515,-1.686C0.483,-1.724 0.513,-1.69 0.518,-1.681C0.543,-1.643 0.566,-1.605 0.588,-1.564C0.593,-1.554 0.607,-1.512 0.59,-1.56C0.6,-1.534 0.609,-1.509 0.616,-1.482C0.621,-1.465 0.624,-1.447 0.628,-1.429C0.65,-1.35 0.63,-1.462 0.632,-1.414C0.633,-1.373 0.637,-1.333 0.635,-1.292C0.634,-1.274 0.633,-1.255 0.631,-1.237C0.636,-1.296 0.631,-1.237 0.628,-1.222C0.618,-1.172 0.603,-1.125 0.587,-1.077C0.568,-1.023 0.581,-1.061 0.586,-1.073C0.576,-1.052 0.566,-1.032 0.555,-1.012C0.535,-0.976 0.513,-0.941 0.489,-0.908C0.518,-0.948 0.491,-0.912 0.484,-0.904C0.468,-0.888 0.453,-0.871 0.437,-0.855C0.421,-0.839 0.404,-0.824 0.386,-0.809C0.428,-0.845 0.36,-0.792 0.351,-0.786C0.207,-0.696 0.028,-0.653 -0.123,-0.643C-0.171,-0.64 -0.22,-0.638 -0.269,-0.638C-0.297,-0.639 -0.325,-0.639 -0.353,-0.641C-0.363,-0.642 -0.432,-0.651 -0.391,-0.644C-0.435,-0.652 -0.478,-0.664 -0.52,-0.68C-0.458,-0.655 -0.508,-0.676 -0.522,-0.686C-0.529,-0.691 -0.591,-0.733 -0.558,-0.707C-0.531,-0.686 -0.598,-0.749 -0.611,-0.762C-0.647,-0.799 -0.611,-0.764 -0.606,-0.755C-0.616,-0.771 -0.627,-0.787 -0.636,-0.803C-0.646,-0.82 -0.654,-0.837 -0.664,-0.854C-0.659,-0.845 -0.643,-0.795 -0.661,-0.847C-0.674,-0.884 -0.685,-0.921 -0.694,-0.959C-0.694,-0.962 -0.707,-1.038 -0.7,-0.99C-0.694,-0.942 -0.702,-1.02 -0.702,-1.022C-0.704,-1.058 -0.702,-1.094 -0.701,-1.13C-0.701,-1.148 -0.691,-1.202 -0.703,-1.134C-0.7,-1.15 -0.697,-1.166 -0.694,-1.182C-0.685,-1.221 -0.673,-1.258 -0.66,-1.296C-0.638,-1.366 -0.682,-1.265 -0.657,-1.301C-0.642,-1.324 -0.631,-1.351 -0.616,-1.375C-0.604,-1.396 -0.59,-1.415 -0.577,-1.435C-0.544,-1.485 -0.597,-1.419 -0.553,-1.466C-0.52,-1.501 -0.488,-1.536 -0.452,-1.569C-0.438,-1.582 -0.424,-1.595 -0.409,-1.607C-0.403,-1.612 -0.338,-1.661 -0.378,-1.633C-0.29,-1.696 -0.196,-1.751 -0.098,-1.799C-0.08,-1.808 -0.063,-1.816 -0.044,-1.825C-0.038,-1.828 0.039,-1.862 -0.007,-1.843C0.048,-1.866 0.104,-1.886 0.16,-1.905C0.307,-1.957 0.422,-2.11 0.369,-2.27C0.322,-2.414 0.158,-2.533 0,-2.477" style="fill:rgb(252,217,220);fill-rule:nonzero;"/>
                </g>
                <g transform="matrix(1,0,0,1,67.2112,202.715)">
                    <path d="M0,0.043C-0.057,0.174 -0.079,0.291 -0.056,0.432C-0.039,0.531 0.005,0.626 0.066,0.706C0.227,0.92 0.454,1.027 0.722,1.043C0.954,1.056 1.203,0.99 1.422,0.915C1.544,0.874 1.662,0.818 1.753,0.725C1.845,0.632 1.907,0.514 1.945,0.39C2.058,0.024 1.914,-0.394 1.636,-0.651C1.32,-0.943 0.875,-1.013 0.488,-0.815C0.07,-0.6 -0.162,-0.119 -0.068,0.334C-0.037,0.486 0.154,0.588 0.301,0.541C0.464,0.489 0.544,0.34 0.51,0.177C0.509,0.17 0.508,0.164 0.506,0.158C0.501,0.125 0.502,0.132 0.509,0.179C0.51,0.178 0.507,0.139 0.507,0.141C0.506,0.121 0.519,0.06 0.51,0.046C0.514,0.051 0.496,0.121 0.509,0.069C0.512,0.056 0.514,0.044 0.517,0.032C0.522,0.013 0.527,-0.005 0.533,-0.023C0.542,-0.049 0.573,-0.082 0.532,-0.024C0.546,-0.044 0.594,-0.174 0.621,-0.173C0.61,-0.173 0.579,-0.122 0.617,-0.165C0.628,-0.177 0.639,-0.189 0.65,-0.201C0.66,-0.21 0.713,-0.269 0.722,-0.265C0.712,-0.258 0.702,-0.25 0.692,-0.242C0.703,-0.25 0.714,-0.257 0.724,-0.264C0.735,-0.271 0.746,-0.278 0.757,-0.284C0.771,-0.292 0.785,-0.3 0.8,-0.307C0.855,-0.334 0.794,-0.299 0.79,-0.304C0.791,-0.303 0.865,-0.329 0.872,-0.331C0.879,-0.332 0.918,-0.337 0.919,-0.341C0.914,-0.329 0.843,-0.335 0.916,-0.339C0.937,-0.34 0.998,-0.328 1.012,-0.337C1.007,-0.334 0.937,-0.352 0.988,-0.339C1,-0.337 1.012,-0.334 1.024,-0.332C1.047,-0.326 1.088,-0.302 1.112,-0.303C1.075,-0.301 1.06,-0.328 1.09,-0.311C1.109,-0.3 1.129,-0.291 1.147,-0.28C1.16,-0.272 1.173,-0.263 1.186,-0.255C1.23,-0.227 1.169,-0.263 1.17,-0.268C1.169,-0.261 1.231,-0.213 1.238,-0.206C1.247,-0.197 1.256,-0.188 1.264,-0.179C1.272,-0.17 1.298,-0.125 1.276,-0.166C1.253,-0.209 1.281,-0.158 1.286,-0.151C1.297,-0.136 1.307,-0.12 1.316,-0.104C1.325,-0.089 1.345,-0.03 1.359,-0.022C1.353,-0.025 1.334,-0.09 1.349,-0.042C1.354,-0.027 1.359,-0.013 1.364,0.002C1.372,0.028 1.377,0.055 1.383,0.082C1.397,0.142 1.384,0.027 1.381,0.067C1.379,0.084 1.383,0.103 1.383,0.121C1.384,0.147 1.375,0.178 1.379,0.203C1.369,0.142 1.386,0.158 1.376,0.196C1.374,0.208 1.37,0.22 1.367,0.232C1.365,0.237 1.358,0.267 1.353,0.273C1.357,0.263 1.361,0.252 1.366,0.242C1.36,0.255 1.353,0.268 1.346,0.28C1.343,0.285 1.323,0.317 1.323,0.317C1.346,0.288 1.35,0.282 1.336,0.298C1.329,0.306 1.321,0.314 1.313,0.321C1.314,0.322 1.362,0.29 1.309,0.322C1.293,0.331 1.275,0.342 1.257,0.348C1.319,0.328 1.274,0.34 1.262,0.344C1.243,0.349 1.224,0.356 1.205,0.362C1.116,0.388 1.026,0.414 0.935,0.433C0.917,0.436 0.899,0.439 0.881,0.443C0.811,0.457 0.92,0.444 0.854,0.447C0.801,0.45 0.749,0.452 0.695,0.448C0.773,0.454 0.632,0.426 0.626,0.428C0.646,0.42 0.684,0.456 0.635,0.431C0.618,0.422 0.602,0.41 0.585,0.4C0.549,0.38 0.637,0.449 0.591,0.404C0.584,0.397 0.559,0.366 0.55,0.362C0.582,0.375 0.581,0.406 0.556,0.368C0.545,0.352 0.537,0.335 0.528,0.318C0.509,0.285 0.544,0.387 0.534,0.328C0.532,0.32 0.529,0.311 0.528,0.302C0.523,0.279 0.525,0.29 0.532,0.335C0.53,0.338 0.534,0.301 0.532,0.299C0.524,0.348 0.523,0.356 0.53,0.324C0.539,0.294 0.535,0.3 0.518,0.342C0.58,0.2 0.566,0.018 0.411,-0.063C0.281,-0.131 0.066,-0.109 0,0.043" style="fill:rgb(252,217,220);fill-rule:nonzero;"/>
                </g>
            </g>
        </g>
        <g transform="matrix(4.16667,0,0,4.16667,-25,2480.32)">
            <path d="M0,-595.276L-15,-595.276M292.63,-595.276L307.63,-595.276M0,0L-15,0M292.63,0L307.63,0M6,-601.276L6,-616.276M6,6L6,21M286.63,-601.276L286.63,-616.276M286.63,6L286.63,21" style="fill:none;fill-rule:nonzero;stroke:white;stroke-width:1.25px;"/>
        </g>
        <g transform="matrix(4.16667,0,0,4.16667,-25,2480.32)">
            <path d="M0,-595.276L-15,-595.276M292.63,-595.276L307.63,-595.276M0,0L-15,0M292.63,0L307.63,0M6,-601.276L6,-616.276M6,6L6,21M286.63,-601.276L286.63,-616.276M286.63,6L286.63,21" style="fill:none;fill-rule:nonzero;stroke:black;stroke-width:0.25px;"/>
        </g>
    </g>
</svg>
