<?xml version="1.0" encoding="UTF-8"?>
<svg width="64px" height="64px" viewBox="0 0 64 64" version="1.1" xmlns="http://www.w3.org/2000/svg" xmlns:xlink="http://www.w3.org/1999/xlink">
    <!-- Generator: Sketch 49.3 (51167) - http://www.bohemiancoding.com/sketch -->
    <title>sob-ico</title>
    <desc>Created with Sketch.</desc>
    <defs>
        <polygon id="path-1" points="8e-05 0 63.9949333 0 63.9949333 63.9948533 8e-05 63.9948533"></polygon>
    </defs>
    <g id="sob-ico" stroke="none" stroke-width="1" fill="none" fill-rule="evenodd">
        <g id="Page-1">
            <mask id="mask-2" fill="white">
                <use xlink:href="#path-1"></use>
            </mask>
            <g id="Clip-2"></g>
            <path d="M31.9974133,60.9713867 C28.20808,60.9713867 24.53048,60.2468533 21.1203467,58.8668533 L30.4523467,57.5553867 L29.6107467,51.56712 L13.02648,53.8980533 C12.50728,53.4465867 12.0011467,52.9764533 11.5099467,52.4852533 C8.27394667,49.2492533 5.89848,45.3825867 4.49661333,41.1628533 L14.48248,41.8609867 L14.9043467,35.82872 L3.17848,35.00872 C3.07661333,34.0145867 3.02381333,33.01032 3.02381333,31.99752 C3.02381333,30.7436533 3.10381333,29.5028533 3.25954667,28.27912 L46.9659467,26.7529867 L46.7550133,20.70952 L4.72301333,22.1769867 C5.93768,18.7964533 7.78648,15.65672 10.2062133,12.9028533 L27.37128,14.10312 L27.7931467,8.07085333 L16.8246133,7.30365333 C21.3427467,4.51592 26.5550133,3.02365333 31.9974133,3.02365333 C39.1819467,3.02365333 45.9667467,5.62232 51.2806133,10.3732533 L34.39848,11.5537867 L34.8203467,17.58632 L56.2230133,16.08952 C57.9699467,18.73832 59.2587467,21.6433867 60.0494133,24.7057867 L54.15128,24.2444533 L53.77688,30.2737867 L60.9467467,30.83432 C60.96168,31.2209867 60.97128,31.6084533 60.97128,31.99752 C60.97128,32.96792 60.92408,33.9313867 60.8302133,34.88472 L24.63288,37.41592 L25.05448,43.4484533 L59.5395467,41.0369867 C58.5990133,43.9132533 57.20568,46.6268533 55.39768,49.09112 L42.0075467,48.1545867 L41.58568,54.1873867 L49.9155467,54.7697867 C44.8275467,58.7892533 38.5806133,60.9713867 31.9974133,60.9713867 M55.5075467,53.69992 C55.69928,53.4924533 55.8886133,53.2825867 56.0747467,53.0697867 C56.08248,53.0609867 56.09048,53.0524533 56.0982133,53.0433867 C56.4998133,52.58392 56.8883467,52.11272 57.2635467,51.6308533 C57.2787467,51.61112 57.2934133,51.5916533 57.3086133,51.5721867 C57.4734133,51.3588533 57.6358133,51.1436533 57.79528,50.9265867 C57.82568,50.8852533 57.8558133,50.8436533 57.8859467,50.80232 C58.0350133,50.5977867 58.1814133,50.39112 58.3254133,50.1828533 C58.3523467,50.1441867 58.37928,50.1060533 58.4054133,50.0673867 C60.4579467,47.07432 62.01448,43.71512 62.9571467,40.10712 C62.96088,40.0924533 62.9651467,40.0780533 62.96888,40.0636533 C63.02888,39.8324533 63.08568,39.59992 63.1406133,39.3668533 C63.1451467,39.34792 63.1499467,39.3289867 63.1547467,39.3100533 C63.21048,39.0716533 63.2627467,38.8321867 63.3134133,38.59192 C63.3158133,38.5785867 63.3190133,38.5657867 63.32168,38.55272 C63.3734133,38.3041867 63.4219467,38.0548533 63.4678133,37.80472 C63.46888,37.79992 63.46968,37.79512 63.47048,37.79032 C63.6579467,36.7668533 63.7955467,35.7265867 63.8827467,34.6716533 L63.8827467,34.67112 C63.9558133,33.7892533 63.9950133,32.89832 63.9950133,31.99752 C63.9950133,31.68792 63.98968,31.3793867 63.98088,31.0716533 C63.9806133,31.0652533 63.9803467,31.05832 63.98008,31.0516533 C63.91928,28.96392 63.65848,26.9265867 63.21608,24.95752 C63.2158133,24.95592 63.2155467,24.9548533 63.21528,24.95352 C62.4187467,21.40792 61.0334133,18.0857867 59.1678133,15.09352 C59.1614133,15.08312 59.1550133,15.0729867 59.1486133,15.0628533 C58.3550133,13.7929867 57.47528,12.58312 56.5166133,11.4412533 C56.5126133,11.43592 56.50808,11.43112 56.5038133,11.4260533 C56.3190133,11.2060533 56.13128,10.98872 55.9406133,10.7740533 C55.9299467,10.7617867 55.9190133,10.74952 55.9083467,10.73752 C50.0475467,4.15058667 41.5078133,-8e-05 31.9974133,-8e-05 C24.45848,-8e-05 17.5299467,2.60872 12.0611467,6.97058667 C12.0603467,6.97138667 12.05928,6.97218667 12.05848,6.97298667 C11.8059467,7.17432 11.55688,7.37965333 11.31048,7.58845333 C11.30088,7.59698667 11.2910133,7.60525333 11.28088,7.61352 C10.5326133,8.25032 9.81394667,8.92072 9.12728,9.62232 C9.11794667,9.63192 9.10888,9.64125333 9.09954667,9.65058667 C8.41101333,10.35592 7.75474667,11.0929867 7.13341333,11.8593867 C7.13128,11.8617867 7.12914667,11.8644533 7.12701333,11.8668533 C4.49261333,15.11752 2.48301333,18.8940533 1.28008,23.0153867 C1.27848,23.0209867 1.27661333,23.02632 1.27501333,23.0321867 C1.20488,23.27272 1.13768,23.5145867 1.07314667,23.7577867 C1.07128,23.7649867 1.06941333,23.7716533 1.06754667,23.7785867 C1.00301333,24.0225867 0.941146667,24.2676533 0.881946667,24.5140533 C0.880613333,24.5193867 0.879546667,24.5244533 0.87848,24.5297867 C0.818746667,24.77832 0.76248,25.0281867 0.70888,25.2788533 C0.708346667,25.28152 0.707813333,25.2841867 0.707013333,25.2868533 C0.653146667,25.5396533 0.60248,25.79352 0.55448,26.0484533 C0.554213333,26.0492533 0.553946667,26.0500533 0.553946667,26.05112 C0.191813333,27.9777867 8e-05,29.9652533 8e-05,31.99752 C8e-05,34.0193867 0.18968,35.99672 0.54808,37.91432 C0.548613333,37.9177867 0.549413333,37.9212533 0.549946667,37.9244533 C0.597413333,38.1764533 0.64728,38.4273867 0.700346667,38.6769867 C0.70168,38.6833867 0.703013333,38.68952 0.704346667,38.69592 C0.757413333,38.9436533 0.81288,39.19032 0.871013333,39.4361867 C0.872613333,39.44232 0.874213333,39.4481867 0.875546667,39.45432 C0.93448,39.69992 0.995546667,39.94472 1.05981333,40.1884533 C1.06141333,40.1940533 1.06301333,40.19912 1.06434667,40.20472 C2.50701333,45.65592 5.35181333,50.5361867 9.19021333,54.4369867 L9.19048,54.4372533 C9.68061333,54.9353867 10.18728,55.4177867 10.7094133,55.8833867 C10.7139467,55.8873867 10.71848,55.8913867 10.7230133,55.8953867 C11.50408,56.59112 12.3195467,57.2492533 13.16648,57.8668533 C13.1718133,57.8708533 13.17768,57.87512 13.1830133,57.8788533 C14.0334133,58.49832 14.9147467,59.0764533 15.82568,59.6108533 L15.8259467,59.61112 C20.5715467,62.3961867 26.0974133,63.9948533 31.9974133,63.9948533 C40.6046133,63.9948533 48.4171467,60.5956533 54.1683467,55.06712 C54.1683467,55.06712 54.1686133,55.06712 54.1686133,55.0668533 C54.38008,54.8636533 54.5883467,54.6569867 54.7942133,54.44792 C54.8227467,54.41912 54.8507467,54.3897867 54.8790133,54.3609867 C55.0611467,54.1745867 55.2411467,53.9860533 55.4187467,53.79512 C55.4483467,53.7636533 55.4782133,53.73192 55.5075467,53.69992" id="Fill-1" fill="#323639" mask="url(#mask-2)"></path>
        </g>
    </g>
</svg>