<svg xmlns="http://www.w3.org/2000/svg" width="64" height="64" viewBox="0 0 64 64" style="background:#fff">
  <g fill="none" fill-rule="evenodd">
    <path fill="#34383B" d="M36.809234,15.6748085 C35.9088085,15.0003404 35.1649787,14.955234 34.9624255,15.0228936 C34.7602979,15.0905532 34.9624255,15.5177872 34.8496596,15.6748085 C34.7373191,15.8331064 34.4228511,15.7875745 34.354766,15.9233191 C34.2875319,16.0582128 34.354766,16.260766 34.1296596,16.508 C33.9049787,16.7556596 26.9266809,24.0939574 26.1398723,25.0837447 C25.4875319,25.6237447 22.8768936,26.8165106 22.5837021,27.1535319 C22.2913617,27.4918298 12.5445532,41.5054468 12.2305106,41.9641702 C11.488383,43.0467234 12.609234,45.3522553 14.5688085,46.7599149 C16.629234,48.2420426 19.3368936,48.8871489 20.3173191,47.741617 C20.6794468,47.3203404 30.5032766,33.3569362 30.7211489,32.9667234 C30.9377447,32.5773617 31.1713617,29.7165106 31.4573191,28.9186383 C32.1207234,27.8420426 36.6458298,18.7837447 36.8015745,18.4871489 C36.9585957,18.1918298 37.1717872,18.1862979 37.2751915,18.0773617 C37.3802979,17.9675745 37.229234,17.6862979 37.3398723,17.5275745 C37.4505106,17.3675745 37.9300851,17.2948085 37.9122128,17.0824681 C37.854766,16.4411915 36.809234,15.6748085 36.809234,15.6748085"/>
    <path fill="#34383B" d="M29.6844681 16.545617C29.4576596 16.2988085 29.523617 16.0949787 29.4546809 15.9596596 29.3865957 15.824766 29.0708511 15.8724255 28.9568085 15.7149787 28.8431915 15.5575319 28.9342553 15.0796596 28.7278723 15.0260426 28.102766 14.8634894 27.0282979 15.5966809 27.0282979 15.5966809 26.0891489 16.2205106 25.796383 16.9077447 25.7921277 17.1222128 25.7882979 17.3354043 26.2597872 17.2873191 26.3717021 17.4468936 26.482766 17.6060426 26.3346809 17.8890213 26.4397872 17.9979574 26.5444681 18.1077447 26.7585106 18.1111489 26.917234 18.4073191 26.976383 18.5175319 27.6546809 19.8515745 28.516383 21.5349787 29.4887234 20.4949787 30.55 19.3685957 31.4610638 18.4034894 30.4755319 17.3732766 29.7546809 16.6217872 29.6844681 16.545617M51.8021702 41.9399574C51.5251489 41.4565532 41.6234468 27.4884681 41.3289787 27.1514468 41.033234 26.814 38.4077021 25.634 37.7502553 25.0969787 37.4915319 24.7761277 36.5749362 23.7884681 35.4477021 22.5935745 34.1349362 25.1927234 32.8894043 27.6378298 32.2872766 28.7454894 32.3064255 28.7778298 32.326 28.8105957 32.3413191 28.8352766 32.6319574 29.6335745 32.8830213 32.501234 33.1051489 32.8910213 33.3255745 33.280383 43.3004681 47.1927234 43.6272766 47.6437872 44.4021702 48.7093191 46.9574894 48.4229362 48.9464255 47.0437872 51.0366383 45.5935745 52.5557872 43.2505957 51.8021702 41.9399574"/>
    <path fill="#323639" d="M61,32 C61,15.9837423 48.0162577,3 32,3 C15.9837423,3 3,15.9837423 3,32 C3,48.0162577 15.9837423,61 32,61 C48.0162577,61 61,48.0162577 61,32 Z M0,32 C0,14.326888 14.326888,0 32,0 C49.673112,0 64,14.326888 64,32 C64,49.673112 49.673112,64 32,64 C14.326888,64 0,49.673112 0,32 Z"/>
  </g>
</svg>
