<?xml version="1.0" encoding="UTF-8" standalone="no"?>
<!DOCTYPE svg PUBLIC "-//W3C//DTD SVG 1.1//EN" "http://www.w3.org/Graphics/SVG/1.1/DTD/svg11.dtd">
<svg width="100%" height="100%" viewBox="0 0 676 375" version="1.1" xmlns="http://www.w3.org/2000/svg" xmlns:xlink="http://www.w3.org/1999/xlink" xml:space="preserve" xmlns:serif="http://www.serif.com/" style="fill-rule:evenodd;clip-rule:evenodd;stroke-linejoin:round;stroke-miterlimit:2;">
    <g transform="matrix(1,0,0,1,-139.53,-762.572)">
        <g transform="matrix(4.16667,0,0,4.16667,0,0)">
            <g transform="matrix(1,0,0,1,152.788,269.93)">
                <path d="M0,-84.355C5.694,-87.293 12.413,-87.572 18.52,-85.843C24.644,-84.109 29.953,-80.343 34.032,-75.504C36.048,-73.112 37.775,-70.484 39.222,-67.712C39.955,-66.309 40.614,-64.869 41.209,-63.402C41.742,-62.089 42.315,-60.733 42.59,-59.337C42.97,-57.404 43.028,-54.491 41.137,-53.275C40.206,-52.677 38.967,-52.728 38.029,-53.276C36.961,-53.901 36.239,-55.001 35.563,-56.003C34.847,-57.064 34.156,-58.147 33.077,-58.876C32.111,-59.527 30.972,-59.909 29.815,-60.023C27.504,-60.251 25.023,-59.514 23.41,-57.794C23.007,-57.364 22.678,-56.879 22.413,-56.354C22.353,-56.501 22.293,-56.648 22.233,-56.795C26.033,-56.072 29.398,-53.995 31.959,-51.123C34.611,-48.149 36.418,-44.474 37.507,-40.659C38.062,-38.712 38.431,-36.713 38.619,-34.697C38.714,-33.675 38.761,-32.647 38.756,-31.62C38.752,-30.654 38.841,-29.485 38.375,-28.607C37.839,-27.598 36.643,-27.536 35.633,-27.566C34.643,-27.596 33.654,-27.695 32.678,-27.863C30.741,-28.196 28.778,-28.819 27.155,-29.955C25.624,-31.027 24.545,-32.525 24.145,-34.361C23.764,-36.114 23.782,-37.965 23.201,-39.674C22.973,-40.343 22.601,-41.03 21.928,-41.335C20.993,-41.759 19.978,-41.381 19.351,-40.621C17.543,-38.431 19.34,-35.63 20.498,-33.614C23.181,-28.947 25.674,-24.132 27.415,-19.026C28.281,-16.487 28.952,-13.877 29.333,-11.22C29.522,-9.906 29.644,-8.583 29.684,-7.256C29.72,-6.058 29.82,-4.703 29.388,-3.562C28.571,-1.401 25.935,-1.362 24.004,-1.653C22.063,-1.945 20.245,-2.791 18.675,-3.957C15.277,-6.48 12.927,-10.221 11.009,-13.927C10.532,-14.847 10.08,-15.78 9.643,-16.72C9.78,-16.684 9.917,-16.648 10.054,-16.612C7.708,-14.897 7.515,-11.764 7.49,-9.102C7.463,-6.3 7.791,-3.238 6.706,-0.58C6.207,0.641 5.364,1.714 4.212,2.381C2.951,3.112 1.447,3.217 0.054,2.842C-2.89,2.049 -5.415,-0.649 -5.99,-3.646C-6.926,-8.533 -4.258,-13.257 -1.889,-17.317C-1.803,-17.167 -1.716,-17.016 -1.63,-16.865C-5.127,-17.028 -7.757,-13.993 -10.162,-11.889C-12.5,-9.843 -15.67,-7.689 -18.822,-9.401C-21.907,-11.076 -22.494,-15.457 -21.392,-18.489C-19.853,-22.723 -15.182,-24.836 -11.295,-26.369C-7.151,-28.003 -2.316,-29.533 0.284,-33.437C0.592,-33.899 0.855,-34.386 1.081,-34.893C1.218,-34.756 1.355,-34.619 1.492,-34.482C-3.099,-32.542 -8.029,-31.303 -13.011,-30.992C-15.082,-30.862 -17.342,-30.97 -19.143,-32.12C-20.643,-33.078 -21.558,-34.667 -21.816,-36.411C-22.075,-38.16 -21.743,-39.986 -20.924,-41.551C-19.998,-43.321 -18.416,-44.706 -16.714,-45.707C-12.875,-47.966 -8.384,-48.348 -4.181,-49.56C-2.104,-50.159 0.015,-50.989 1.679,-52.409C2.967,-53.507 3.876,-55.029 4.334,-56.652C4.762,-58.171 4.824,-59.903 4.134,-61.358C3.317,-63.081 1.553,-64.023 -0.323,-64.045C-5.017,-64.1 -8.282,-60.041 -12.377,-58.415C-14.267,-57.664 -16.9,-57.214 -18.371,-58.99C-19.591,-60.465 -19.942,-62.684 -19.775,-64.54C-19.412,-68.564 -16.753,-72.149 -13.66,-74.582C-12.785,-75.27 -11.842,-75.858 -10.92,-76.48C-9.977,-77.117 -9.044,-77.769 -8.121,-78.434C-6.395,-79.68 -4.703,-80.971 -2.997,-82.245C-2.028,-82.97 -1.053,-83.688 -0.072,-84.398C0.013,-84.459 0.146,-84.448 0.231,-84.398C0.255,-84.383 0.279,-84.369 0.303,-84.355C0.635,-84.158 0.333,-83.638 0,-83.836C-0.024,-83.85 -0.048,-83.865 -0.072,-83.879L0.231,-83.879C-3.312,-81.318 -6.738,-78.596 -10.356,-76.138C-12.166,-74.908 -13.94,-73.744 -15.436,-72.125C-16.817,-70.63 -17.978,-68.879 -18.642,-66.946C-19.277,-65.1 -19.419,-63.105 -18.838,-61.227C-18.508,-60.161 -17.948,-59.028 -16.851,-58.589C-15.815,-58.173 -14.597,-58.357 -13.554,-58.649C-11.413,-59.246 -9.573,-60.584 -7.748,-61.8C-5.958,-62.992 -4.069,-64.098 -1.926,-64.496C-0.048,-64.845 1.948,-64.573 3.428,-63.285C4.554,-62.304 5.123,-60.863 5.232,-59.397C5.481,-56.055 3.629,-52.85 0.864,-51.075C-2.787,-48.732 -7.239,-48.337 -11.336,-47.226C-15.124,-46.198 -19.449,-44.224 -20.845,-40.235C-21.425,-38.576 -21.502,-36.677 -20.825,-35.032C-20.044,-33.136 -18.304,-32.063 -16.336,-31.712C-14.084,-31.31 -11.672,-31.645 -9.434,-31.989C-7.004,-32.364 -4.604,-32.939 -2.268,-33.706C-1.098,-34.09 0.055,-34.522 1.189,-35.001C1.471,-35.12 1.728,-34.877 1.6,-34.59C-0.206,-30.535 -4.446,-28.412 -8.363,-26.862C-12.513,-25.219 -17.352,-23.76 -20.009,-19.888C-21.846,-17.212 -21.885,-12.756 -19.333,-10.488C-18.126,-9.416 -16.418,-9.158 -14.893,-9.594C-13.357,-10.033 -12.046,-11.057 -10.853,-12.082C-8.477,-14.124 -6.068,-16.955 -2.786,-17.413C-2.402,-17.466 -2.017,-17.484 -1.63,-17.466C-1.406,-17.456 -1.252,-17.218 -1.371,-17.014C-3.485,-13.389 -5.79,-9.377 -5.552,-5.03C-5.378,-1.856 -3.241,1.105 -0.194,2.139C1.158,2.597 2.651,2.591 3.909,1.863C5.035,1.21 5.829,0.128 6.259,-1.087C7.18,-3.692 6.853,-6.603 6.891,-9.313C6.931,-12.169 7.266,-15.314 9.751,-17.131C9.874,-17.221 10.099,-17.16 10.162,-17.023C11.917,-13.246 13.929,-9.438 16.828,-6.401C18.176,-4.988 19.742,-3.75 21.547,-2.975C22.445,-2.59 23.404,-2.324 24.374,-2.203C25.392,-2.077 26.528,-2.032 27.495,-2.425C28.777,-2.947 29.049,-4.209 29.088,-5.465C29.128,-6.763 29.074,-8.067 28.954,-9.361C28.711,-11.976 28.163,-14.558 27.411,-17.072C25.887,-22.162 23.537,-26.963 20.954,-31.591C20.318,-32.731 19.631,-33.847 19.023,-35.003C18.459,-36.077 17.977,-37.253 17.983,-38.486C17.992,-40.317 19.419,-42.348 21.426,-42.086C23.001,-41.881 23.682,-40.429 24.002,-39.036C24.398,-37.315 24.375,-35.498 24.91,-33.808C26.125,-29.966 30.703,-28.587 34.293,-28.25C34.758,-28.206 35.224,-28.178 35.69,-28.165C36.254,-28.15 36.908,-28.12 37.407,-28.426C38.329,-28.991 38.147,-30.569 38.155,-31.502C38.172,-33.5 37.996,-35.498 37.636,-37.463C36.282,-44.858 32.138,-52.727 24.713,-55.486C23.855,-55.804 22.972,-56.045 22.074,-56.215C21.872,-56.254 21.814,-56.497 21.894,-56.657C23.949,-60.726 29.915,-61.897 33.545,-59.279C34.516,-58.579 35.189,-57.632 35.85,-56.65C36.53,-55.64 37.22,-54.467 38.289,-53.82C39.233,-53.25 40.491,-53.322 41.256,-54.156C41.981,-54.947 42.168,-56.139 42.188,-57.172C42.213,-58.412 41.964,-59.603 41.56,-60.77C41.051,-62.236 40.477,-63.679 39.835,-65.091C38.566,-67.876 37.036,-70.548 35.227,-73.018C31.55,-78.037 26.635,-82.232 20.78,-84.462C14.964,-86.677 8.335,-87.055 2.468,-84.81C1.728,-84.527 1.007,-84.2 0.303,-83.836C-0.04,-83.659 -0.344,-84.178 0,-84.355" style="fill:rgb(252,217,220);fill-rule:nonzero;"/>
            </g>
        </g>
        <g transform="matrix(4.16667,0,0,4.16667,0,0)">
            <g transform="matrix(1,0,0,1,60.1521,221.032)">
                <path d="M0,-9.826C0.008,-8.945 -0.153,-8.073 -0.641,-7.323C-1.091,-6.631 -1.772,-6.131 -2.506,-5.761C-3.438,-5.292 -4.502,-4.973 -5.539,-4.845C-6.813,-4.687 -8.103,-4.766 -9.377,-4.618C-11.713,-4.348 -13.495,-3.075 -15.113,-1.465C-16.745,0.157 -18.277,2.121 -20.506,2.969C-22.198,3.612 -24.609,3.401 -25.626,1.726C-26.284,0.644 -26.097,-0.656 -25.689,-1.79C-25.292,-2.895 -24.703,-3.979 -24.057,-4.963C-23.452,-5.884 -22.628,-6.557 -21.561,-6.881C-20.613,-7.169 -19.609,-7.204 -18.624,-7.199C-16.633,-7.188 -14.523,-6.944 -12.622,-7.675C-11.478,-8.115 -10.513,-8.877 -9.619,-9.693C-8.693,-10.539 -7.84,-11.517 -6.817,-12.253C-5.87,-12.933 -4.746,-13.128 -3.611,-13.3C-2.502,-13.467 -1.474,-13.35 -0.875,-12.302C-0.685,-11.97 -0.166,-12.269 -0.356,-12.601C-0.838,-13.444 -1.602,-13.913 -2.582,-13.96C-3.54,-14.006 -4.626,-13.779 -5.546,-13.527C-6.622,-13.231 -7.476,-12.54 -8.268,-11.791C-9.192,-10.919 -10.082,-9.987 -11.1,-9.219C-12.067,-8.49 -13.139,-8.023 -14.345,-7.855C-15.463,-7.699 -16.601,-7.749 -17.725,-7.776C-19.748,-7.824 -21.985,-7.841 -23.592,-6.433C-24.533,-5.608 -25.137,-4.391 -25.684,-3.293C-26.234,-2.188 -26.725,-0.958 -26.659,0.296C-26.545,2.461 -24.705,3.78 -22.629,3.893C-17.336,4.18 -15.35,-2.227 -10.836,-3.713C-9.489,-4.156 -8.055,-4.099 -6.656,-4.165C-5.428,-4.222 -4.245,-4.427 -3.095,-4.862C-1.433,-5.491 0.028,-6.597 0.454,-8.383C0.566,-8.855 0.605,-9.342 0.6,-9.826C0.597,-10.207 -0.003,-10.208 0,-9.826" style="fill:rgb(252,217,220);fill-rule:nonzero;"/>
            </g>
        </g>
        <g transform="matrix(4.16667,0,0,4.16667,0,0)">
            <g transform="matrix(1,0,0,1,57.9638,211.836)">
                <path d="M0,-3.93C-0.654,-3.585 -0.868,-2.876 -0.764,-2.188C-0.657,-1.487 -0.225,-0.817 0.371,-0.424C1.065,0.034 2.193,0.18 2.806,-0.49C3.357,-1.091 3.23,-2.032 2.768,-2.646C2.48,-3.029 2.039,-3.322 1.62,-3.552C1.163,-3.803 0.672,-3.933 0.152,-3.971C-0.01,-3.982 -0.149,-3.826 -0.149,-3.674C-0.149,-3.504 -0.011,-3.389 0.152,-3.378C0.87,-3.326 1.521,-2.997 2.062,-2.535C2.459,-2.197 2.719,-1.559 2.494,-1.081C2.199,-0.456 1.321,-0.577 0.815,-0.851C0.351,-1.102 0.017,-1.572 -0.125,-2.068C-0.2,-2.332 -0.222,-2.609 -0.157,-2.853C-0.089,-3.108 0.055,-3.287 0.303,-3.418C0.644,-3.598 0.341,-4.11 0,-3.93" style="fill:rgb(252,217,220);fill-rule:nonzero;"/>
            </g>
        </g>
        <g transform="matrix(4.16667,0,0,4.16667,0,0)">
            <g transform="matrix(1,0,0,1,64.939,206.415)">
                <path d="M0,-2.477C-0.467,-2.313 -0.956,-2.051 -1.181,-1.59C-1.381,-1.182 -1.34,-0.639 -1.004,-0.309C-0.612,0.074 0.099,0.002 0.556,-0.22C1.01,-0.442 1.287,-0.96 1.227,-1.454C1.155,-2.056 0.643,-2.507 0.036,-2.542C-0.121,-2.551 -0.271,-2.399 -0.264,-2.245C-0.257,-2.077 -0.133,-1.958 0.036,-1.949C0.034,-1.949 0.123,-1.94 0.078,-1.946C0.034,-1.953 0.122,-1.937 0.12,-1.937C0.155,-1.929 0.19,-1.917 0.225,-1.906C0.307,-1.88 0.196,-1.921 0.242,-1.899C0.263,-1.889 0.283,-1.878 0.303,-1.867C0.319,-1.858 0.335,-1.849 0.35,-1.839C0.354,-1.836 0.424,-1.784 0.379,-1.821C0.414,-1.792 0.448,-1.761 0.479,-1.727C0.492,-1.714 0.504,-1.7 0.515,-1.686C0.483,-1.724 0.513,-1.69 0.518,-1.681C0.543,-1.643 0.566,-1.605 0.588,-1.564C0.593,-1.554 0.607,-1.512 0.59,-1.56C0.6,-1.534 0.609,-1.509 0.616,-1.482C0.621,-1.465 0.624,-1.447 0.628,-1.429C0.65,-1.35 0.63,-1.462 0.632,-1.414C0.633,-1.373 0.637,-1.333 0.635,-1.292C0.634,-1.274 0.633,-1.255 0.631,-1.237C0.636,-1.296 0.631,-1.237 0.628,-1.222C0.618,-1.172 0.603,-1.125 0.587,-1.077C0.568,-1.023 0.581,-1.061 0.586,-1.073C0.576,-1.052 0.566,-1.032 0.555,-1.012C0.535,-0.976 0.513,-0.941 0.489,-0.908C0.518,-0.948 0.491,-0.912 0.484,-0.904C0.468,-0.888 0.453,-0.871 0.437,-0.855C0.421,-0.839 0.404,-0.824 0.386,-0.809C0.428,-0.845 0.36,-0.792 0.351,-0.786C0.207,-0.696 0.028,-0.653 -0.123,-0.643C-0.171,-0.64 -0.22,-0.638 -0.269,-0.638C-0.297,-0.639 -0.325,-0.639 -0.353,-0.641C-0.363,-0.642 -0.432,-0.651 -0.391,-0.644C-0.435,-0.652 -0.478,-0.664 -0.52,-0.68C-0.458,-0.655 -0.508,-0.676 -0.522,-0.686C-0.529,-0.691 -0.591,-0.733 -0.558,-0.707C-0.531,-0.686 -0.598,-0.749 -0.611,-0.762C-0.647,-0.799 -0.611,-0.764 -0.606,-0.755C-0.616,-0.771 -0.627,-0.787 -0.636,-0.803C-0.646,-0.82 -0.654,-0.837 -0.664,-0.854C-0.659,-0.845 -0.643,-0.795 -0.661,-0.847C-0.674,-0.884 -0.685,-0.921 -0.694,-0.959C-0.694,-0.962 -0.707,-1.038 -0.7,-0.99C-0.694,-0.942 -0.702,-1.02 -0.702,-1.022C-0.704,-1.058 -0.702,-1.094 -0.701,-1.13C-0.701,-1.148 -0.691,-1.202 -0.703,-1.134C-0.7,-1.15 -0.697,-1.166 -0.694,-1.182C-0.685,-1.221 -0.673,-1.258 -0.66,-1.296C-0.638,-1.366 -0.682,-1.265 -0.657,-1.301C-0.642,-1.324 -0.631,-1.351 -0.616,-1.375C-0.604,-1.396 -0.59,-1.415 -0.577,-1.435C-0.544,-1.485 -0.597,-1.419 -0.553,-1.466C-0.52,-1.501 -0.488,-1.536 -0.452,-1.569C-0.438,-1.582 -0.424,-1.595 -0.409,-1.607C-0.403,-1.612 -0.338,-1.661 -0.378,-1.633C-0.29,-1.696 -0.196,-1.751 -0.098,-1.799C-0.08,-1.808 -0.063,-1.816 -0.044,-1.825C-0.038,-1.828 0.039,-1.862 -0.007,-1.843C0.048,-1.866 0.104,-1.886 0.16,-1.905C0.307,-1.957 0.422,-2.11 0.369,-2.27C0.322,-2.414 0.158,-2.533 0,-2.477" style="fill:rgb(252,217,220);fill-rule:nonzero;"/>
            </g>
        </g>
        <g transform="matrix(4.16667,0,0,4.16667,0,0)">
            <g transform="matrix(1,0,0,1,67.2112,202.715)">
                <path d="M0,0.043C-0.057,0.174 -0.079,0.291 -0.056,0.432C-0.039,0.531 0.005,0.626 0.066,0.706C0.227,0.92 0.454,1.027 0.722,1.043C0.954,1.056 1.203,0.99 1.422,0.915C1.544,0.874 1.662,0.818 1.753,0.725C1.845,0.632 1.907,0.514 1.945,0.39C2.058,0.024 1.914,-0.394 1.636,-0.651C1.32,-0.943 0.875,-1.013 0.488,-0.815C0.07,-0.6 -0.162,-0.119 -0.068,0.334C-0.037,0.486 0.154,0.588 0.301,0.541C0.464,0.489 0.544,0.34 0.51,0.177C0.509,0.17 0.508,0.164 0.506,0.158C0.501,0.125 0.502,0.132 0.509,0.179C0.51,0.178 0.507,0.139 0.507,0.141C0.506,0.121 0.519,0.06 0.51,0.046C0.514,0.051 0.496,0.121 0.509,0.069C0.512,0.056 0.514,0.044 0.517,0.032C0.522,0.013 0.527,-0.005 0.533,-0.023C0.542,-0.049 0.573,-0.082 0.532,-0.024C0.546,-0.044 0.594,-0.174 0.621,-0.173C0.61,-0.173 0.579,-0.122 0.617,-0.165C0.628,-0.177 0.639,-0.189 0.65,-0.201C0.66,-0.21 0.713,-0.269 0.722,-0.265C0.712,-0.258 0.702,-0.25 0.692,-0.242C0.703,-0.25 0.714,-0.257 0.724,-0.264C0.735,-0.271 0.746,-0.278 0.757,-0.284C0.771,-0.292 0.785,-0.3 0.8,-0.307C0.855,-0.334 0.794,-0.299 0.79,-0.304C0.791,-0.303 0.865,-0.329 0.872,-0.331C0.879,-0.332 0.918,-0.337 0.919,-0.341C0.914,-0.329 0.843,-0.335 0.916,-0.339C0.937,-0.34 0.998,-0.328 1.012,-0.337C1.007,-0.334 0.937,-0.352 0.988,-0.339C1,-0.337 1.012,-0.334 1.024,-0.332C1.047,-0.326 1.088,-0.302 1.112,-0.303C1.075,-0.301 1.06,-0.328 1.09,-0.311C1.109,-0.3 1.129,-0.291 1.147,-0.28C1.16,-0.272 1.173,-0.263 1.186,-0.255C1.23,-0.227 1.169,-0.263 1.17,-0.268C1.169,-0.261 1.231,-0.213 1.238,-0.206C1.247,-0.197 1.256,-0.188 1.264,-0.179C1.272,-0.17 1.298,-0.125 1.276,-0.166C1.253,-0.209 1.281,-0.158 1.286,-0.151C1.297,-0.136 1.307,-0.12 1.316,-0.104C1.325,-0.089 1.345,-0.03 1.359,-0.022C1.353,-0.025 1.334,-0.09 1.349,-0.042C1.354,-0.027 1.359,-0.013 1.364,0.002C1.372,0.028 1.377,0.055 1.383,0.082C1.397,0.142 1.384,0.027 1.381,0.067C1.379,0.084 1.383,0.103 1.383,0.121C1.384,0.147 1.375,0.178 1.379,0.203C1.369,0.142 1.386,0.158 1.376,0.196C1.374,0.208 1.37,0.22 1.367,0.232C1.365,0.237 1.358,0.267 1.353,0.273C1.357,0.263 1.361,0.252 1.366,0.242C1.36,0.255 1.353,0.268 1.346,0.28C1.343,0.285 1.323,0.317 1.323,0.317C1.346,0.288 1.35,0.282 1.336,0.298C1.329,0.306 1.321,0.314 1.313,0.321C1.314,0.322 1.362,0.29 1.309,0.322C1.293,0.331 1.275,0.342 1.257,0.348C1.319,0.328 1.274,0.34 1.262,0.344C1.243,0.349 1.224,0.356 1.205,0.362C1.116,0.388 1.026,0.414 0.935,0.433C0.917,0.436 0.899,0.439 0.881,0.443C0.811,0.457 0.92,0.444 0.854,0.447C0.801,0.45 0.749,0.452 0.695,0.448C0.773,0.454 0.632,0.426 0.626,0.428C0.646,0.42 0.684,0.456 0.635,0.431C0.618,0.422 0.602,0.41 0.585,0.4C0.549,0.38 0.637,0.449 0.591,0.404C0.584,0.397 0.559,0.366 0.55,0.362C0.582,0.375 0.581,0.406 0.556,0.368C0.545,0.352 0.537,0.335 0.528,0.318C0.509,0.285 0.544,0.387 0.534,0.328C0.532,0.32 0.529,0.311 0.528,0.302C0.523,0.279 0.525,0.29 0.532,0.335C0.53,0.338 0.534,0.301 0.532,0.299C0.524,0.348 0.523,0.356 0.53,0.324C0.539,0.294 0.535,0.3 0.518,0.342C0.58,0.2 0.566,0.018 0.411,-0.063C0.281,-0.131 0.066,-0.109 0,0.043" style="fill:rgb(252,217,220);fill-rule:nonzero;"/>
            </g>
        </g>
    </g>
</svg>
