<?xml version="1.0" encoding="UTF-8" standalone="no"?>
<!DOCTYPE svg PUBLIC "-//W3C//DTD SVG 1.1//EN" "http://www.w3.org/Graphics/SVG/1.1/DTD/svg11.dtd">
<svg width="100%" height="100%" viewBox="0 0 1861 1389" version="1.1" xmlns="http://www.w3.org/2000/svg" xmlns:xlink="http://www.w3.org/1999/xlink" xml:space="preserve" xmlns:serif="http://www.serif.com/" style="fill-rule:evenodd;clip-rule:evenodd;stroke-linejoin:round;stroke-miterlimit:2;">
    <g transform="matrix(1,0,0,1,73.9844,495.774)">
        <g transform="matrix(4.16667,0,0,4.16667,0,0)">
            <g transform="matrix(1,0,0,1,246.957,95.1632)">
                <path d="M0,-35.084C3.45,-35.589 6.682,-33.608 8.615,-30.85C10.901,-27.587 11.176,-23.354 10.916,-19.504C10.647,-15.525 10.095,-11.276 7.976,-7.812C6.268,-5.02 3.612,-2.945 0.647,-1.62C-2.406,-0.256 -5.761,0.395 -9.096,0.465C-11.01,0.505 -13.012,0.418 -14.819,-0.271C-16.49,-0.907 -17.846,-2.065 -18.926,-3.471C-20.062,-4.949 -20.918,-6.64 -21.66,-8.344C-22.504,-10.286 -22.971,-12.254 -22.711,-14.377C-22.284,-17.863 -20.669,-21.29 -18.626,-24.117C-14.727,-29.511 -8.743,-33.261 -2.261,-34.679C-1.463,-34.854 -0.658,-34.989 0.153,-35.096C0.535,-35.146 0.531,-34.545 0.153,-34.495C-6.144,-33.663 -12.141,-30.612 -16.414,-25.897C-18.526,-23.568 -20.197,-20.83 -21.236,-17.86C-21.908,-15.942 -22.407,-13.865 -22.114,-11.824C-21.843,-9.936 -20.976,-8.143 -20.098,-6.469C-19.304,-4.955 -18.36,-3.484 -17.075,-2.337C-15.626,-1.044 -13.819,-0.425 -11.908,-0.23C-8.641,0.103 -5.223,-0.273 -2.087,-1.234C0.89,-2.147 3.725,-3.687 5.852,-5.993C8.378,-8.73 9.433,-12.315 9.943,-15.93C10.482,-19.753 10.795,-23.865 9.559,-27.588C8.497,-30.787 5.955,-33.69 2.557,-34.423C1.771,-34.592 0.956,-34.621 0.16,-34.505C-0.218,-34.449 -0.382,-35.028 0,-35.084" style="fill:rgb(14,34,71);fill-rule:nonzero;"/>
            </g>
        </g>
        <g transform="matrix(4.16667,0,0,4.16667,0,0)">
            <g transform="matrix(1,0,0,1,196.498,196.514)">
                <path d="M0,-298.045C33.499,-311.011 70.124,-316.258 105.955,-315.412C122.77,-315.015 139.857,-312.653 155.148,-305.282C168.996,-298.606 180.859,-288.264 190.36,-276.258C200.516,-263.424 207.95,-248.674 213.609,-233.369C219.815,-216.585 224.226,-199.042 227.472,-181.458C233.812,-147.111 234.774,-110.849 224.072,-77.246C215.362,-49.9 199.008,-24.367 175.578,-7.4C162.267,2.238 146.937,8.444 131.004,12.218C113.855,16.279 95.903,18.213 78.286,17.794C61.753,17.401 45.193,14.566 29.915,8.092C17.023,2.628 5.199,-5.214 -5.084,-14.699C-25.862,-33.866 -40.409,-59.62 -46.363,-87.231C-50.253,-105.272 -50.827,-123.827 -50.389,-142.218C-49.946,-160.783 -48.944,-179.377 -47.854,-197.914C-46.763,-216.454 -45.075,-235.068 -40.962,-253.213C-37.588,-268.097 -31.456,-282.747 -18.401,-291.635C-12.87,-295.401 -6.51,-297.52 0.144,-298.057L0.144,-297.456C0.123,-297.456 0.101,-297.456 0.08,-297.455C-0.307,-297.446 -0.307,-298.047 0.08,-298.056C0.101,-298.056 0.123,-298.057 0.144,-298.057C0.535,-298.066 0.525,-297.487 0.144,-297.456C-15.283,-296.211 -27.621,-285.592 -34.18,-271.964C-37.767,-264.511 -39.761,-256.401 -41.391,-248.329C-43.254,-239.102 -44.552,-229.769 -45.505,-220.407C-47.354,-202.254 -47.963,-184 -48.848,-165.784C-49.722,-147.79 -50.558,-129.727 -49.204,-111.735C-48,-95.741 -44.93,-79.934 -38.935,-65.02C-33.697,-51.991 -26.469,-39.739 -17.583,-28.864C0.872,-6.276 26.259,9.647 55.067,14.899C72.493,18.076 90.409,17.743 107.939,15.627C125.035,13.564 142.147,9.8 157.789,2.416C184.193,-10.05 204.175,-32.939 216.378,-59.15C230.569,-89.632 233.658,-123.906 230.362,-157.068C228.59,-174.895 225.054,-192.537 220.394,-209.825C215.951,-226.31 210.286,-242.58 202.01,-257.563C194.556,-271.057 184.915,-283.435 172.925,-293.196C160.234,-303.527 145.307,-309.932 129.215,-312.712C112.024,-315.681 94.218,-315.275 76.879,-314.022C59.116,-312.739 41.438,-309.965 24.232,-305.333C16.075,-303.137 8.038,-300.515 0.16,-297.466C-0.201,-297.326 -0.357,-297.907 0,-298.045" style="fill:rgb(14,34,71);fill-rule:nonzero;"/>
            </g>
        </g>
        <g transform="matrix(4.16667,0,0,4.16667,0,0)">
            <g transform="matrix(1,0,0,1,-7.8281,190.047)">
                <path d="M0,-49.727C6.074,-47.405 11.63,-43.808 16.294,-39.28C20.96,-34.749 24.45,-29.228 28.665,-24.309C30.711,-21.92 32.948,-19.718 35.488,-17.856C37.777,-16.177 40.206,-14.701 42.499,-13.027C44.699,-11.421 46.801,-9.615 48.327,-7.335C49.826,-5.095 50.95,-2.099 49.993,0.576C49.579,1.734 48.747,2.743 47.631,3.282C46.592,3.784 45.428,3.856 44.303,3.659C41.839,3.227 39.542,1.58 38.125,-0.45C36.426,-2.886 35.513,-5.772 33.992,-8.312C33.237,-9.572 32.322,-10.742 31.157,-11.648C29.969,-12.571 28.584,-13.2 27.171,-13.689C24.364,-14.66 21.392,-15.144 18.697,-16.43C16.072,-17.683 13.846,-19.738 12.335,-22.219C11.587,-23.448 11.036,-24.778 10.656,-26.164C10.26,-27.611 10.007,-29.094 9.571,-30.531C9.136,-31.966 8.488,-33.345 7.359,-34.365C6.212,-35.401 4.74,-35.985 3.321,-36.543C2.128,-37.012 0.956,-37.494 -0.156,-38.136C-1.238,-38.761 -2.268,-39.474 -3.256,-40.237C-5.187,-41.729 -7.027,-43.427 -8.463,-45.411C-9.241,-46.486 -10.485,-48.387 -9.652,-49.75C-9.488,-50.018 -9.218,-50.248 -9.002,-50.474C-8.708,-50.782 -8.409,-51.084 -8.096,-51.372C-7.567,-51.859 -6.995,-52.315 -6.365,-52.668C-5.155,-53.344 -3.872,-53.583 -2.626,-52.867C-1.367,-52.144 -0.466,-50.857 0.18,-49.589C0.354,-49.245 -0.164,-48.941 -0.339,-49.286C-0.991,-50.567 -1.944,-51.985 -3.331,-52.547C-4.722,-53.11 -6.204,-52.196 -7.249,-51.319C-7.827,-50.835 -8.353,-50.292 -8.867,-49.741C-9.137,-49.452 -9.285,-49.219 -9.298,-48.819C-9.322,-48.091 -8.974,-47.371 -8.622,-46.755C-7.509,-44.806 -5.819,-43.163 -4.128,-41.716C-2.331,-40.177 -0.346,-38.755 1.826,-37.794C4.417,-36.648 7.312,-35.929 8.952,-33.409C10.502,-31.025 10.632,-28.059 11.507,-25.419C12.407,-22.706 14.156,-20.285 16.414,-18.539C18.743,-16.737 21.521,-15.937 24.317,-15.169C26.996,-14.434 29.763,-13.641 31.918,-11.798C34.067,-9.961 35.257,-7.328 36.44,-4.826C37.048,-3.54 37.667,-2.253 38.441,-1.057C39.15,0.037 40.095,0.973 41.177,1.7C43.055,2.961 45.769,3.853 47.829,2.478C50.306,0.823 49.999,-2.684 48.911,-5.064C47.804,-7.487 45.987,-9.465 43.953,-11.148C41.845,-12.894 39.516,-14.349 37.256,-15.883C34.88,-17.496 32.631,-19.235 30.614,-21.286C26.261,-25.713 22.925,-30.996 18.866,-35.675C14.741,-40.43 9.75,-44.404 4.128,-47.25C2.732,-47.956 1.301,-48.589 -0.16,-49.148C-0.517,-49.284 -0.362,-49.866 0,-49.727" style="fill:rgb(14,34,71);fill-rule:nonzero;"/>
            </g>
        </g>
        <g transform="matrix(4.16667,0,0,4.16667,0,0)">
            <g transform="matrix(1,0,0,1,191.445,167.115)">
                <path d="M0,-9.047C2.012,-8.413 3.672,-7.066 4.488,-5.094C5.207,-3.355 4.877,-1.199 3.415,0.075C2.671,0.723 1.753,0.979 0.779,0.856C-0.295,0.72 -1.4,0.378 -2.392,-0.049C-3.272,-0.427 -4.131,-0.944 -4.717,-1.719C-5.364,-2.573 -5.52,-3.635 -5.263,-4.666C-4.717,-6.846 -2.49,-10.026 0.134,-9.162C0.333,-9.097 0.448,-8.816 0.267,-8.66L0.133,-8.545C-0.159,-8.294 -0.586,-8.717 -0.292,-8.97C-0.247,-9.008 -0.203,-9.047 -0.158,-9.085C-0.114,-8.918 -0.069,-8.75 -0.025,-8.583C-2.134,-9.277 -3.844,-6.787 -4.489,-5.115C-4.864,-4.14 -4.929,-3.089 -4.325,-2.196C-3.866,-1.519 -3.143,-1.06 -2.417,-0.715C-1.635,-0.344 -0.796,-0.099 0.043,0.102C0.996,0.33 1.923,0.411 2.762,-0.172C4.06,-1.074 4.573,-2.94 4.103,-4.414C3.459,-6.432 1.827,-7.842 -0.16,-8.468C-0.527,-8.583 -0.37,-9.164 0,-9.047" style="fill:rgb(14,34,71);fill-rule:nonzero;"/>
            </g>
        </g>
        <g transform="matrix(4.16667,0,0,4.16667,0,0)">
            <g transform="matrix(1,0,0,1,196.687,171.864)">
                <path d="M0,0.862C-0.156,1.23 0.01,1.649 0.297,1.914C0.645,2.236 1.123,2.309 1.59,2.245C1.832,2.212 2.066,2.145 2.296,2.067C2.508,1.995 2.728,1.92 2.914,1.799C3.254,1.577 3.469,1.225 3.451,0.828C3.416,0.065 2.755,-0.592 2.075,-0.923C1.379,-1.261 0.274,-1.447 -0.212,-0.691C-0.585,-0.109 -0.363,0.819 0.437,0.891C0.592,0.905 0.725,0.755 0.725,0.617C0.725,0.457 0.593,0.356 0.437,0.342C0.494,0.347 0.409,0.336 0.403,0.334C0.318,0.31 0.453,0.354 0.373,0.325C0.359,0.319 0.342,0.308 0.329,0.3C0.379,0.331 0.316,0.288 0.309,0.281C0.31,0.283 0.256,0.224 0.281,0.254C0.305,0.284 0.258,0.218 0.259,0.22C0.246,0.198 0.233,0.176 0.223,0.152C0.245,0.202 0.215,0.124 0.214,0.12C0.208,0.094 0.201,0.069 0.195,0.043C0.177,-0.04 0.196,0.072 0.192,0.022C0.187,-0.029 0.187,-0.08 0.19,-0.13C0.193,-0.185 0.191,-0.154 0.189,-0.141C0.193,-0.168 0.199,-0.196 0.206,-0.223C0.213,-0.25 0.221,-0.277 0.231,-0.303C0.248,-0.355 0.218,-0.288 0.245,-0.341C0.297,-0.445 0.317,-0.476 0.411,-0.544C0.399,-0.535 0.378,-0.522 0.423,-0.549C0.461,-0.571 0.501,-0.593 0.543,-0.609C0.613,-0.637 0.693,-0.657 0.768,-0.667C1.067,-0.707 1.386,-0.623 1.657,-0.507C2.165,-0.289 2.669,0.102 2.834,0.629C2.896,0.829 2.898,1.027 2.762,1.198C2.575,1.433 2.2,1.526 1.919,1.609C1.583,1.709 1.159,1.804 0.835,1.62C0.599,1.487 0.457,1.245 0.557,1.008C0.615,0.87 0.493,0.706 0.355,0.67C0.19,0.627 0.058,0.724 0,0.862" style="fill:rgb(14,34,71);fill-rule:nonzero;"/>
            </g>
        </g>
        <g transform="matrix(4.16667,0,0,4.16667,0,0)">
            <g transform="matrix(1,0,0,1,222.42,88.6505)">
                <path d="M0,2.629C0.302,2.053 0.617,1.406 0.53,0.727C0.454,0.141 0.064,-0.309 -0.514,-0.503C-1.024,-0.675 -1.623,-0.528 -1.819,-0.017C-2.062,0.615 -1.691,1.423 -1.296,1.953C-0.828,2.582 -0.161,3.045 0.599,3.26C0.754,3.304 0.898,3.187 0.932,3.051C1.011,2.735 0.944,2.402 0.759,2.122C0.557,1.815 0.083,2.105 0.284,2.412C0.392,2.575 0.415,2.746 0.369,2.928C0.48,2.858 0.591,2.788 0.702,2.719C0.187,2.573 -0.271,2.276 -0.634,1.889C-0.982,1.517 -1.276,1 -1.319,0.501C-1.329,0.38 -1.322,0.26 -1.264,0.154C-1.234,0.098 -1.199,0.059 -1.127,0.021C-1.087,-0 -1.032,-0.015 -0.971,-0.019C-0.874,-0.024 -0.826,-0.018 -0.733,0.004C-0.394,0.086 -0.109,0.342 -0.047,0.702C0.055,1.294 -0.252,1.867 -0.515,2.367C-0.679,2.68 -0.164,2.942 0,2.629" style="fill:rgb(14,34,71);fill-rule:nonzero;"/>
            </g>
        </g>
        <g transform="matrix(4.16667,0,0,4.16667,0,0)">
            <g transform="matrix(1,0,0,1,46.8796,210.474)">
                <path d="M0,-2.548C-0.414,-1.951 -0.432,-1.162 -0.141,-0.511C0.155,0.152 0.819,0.546 1.528,0.601C1.882,0.629 2.234,0.555 2.556,0.41C2.723,0.335 2.964,0.212 3.037,0.037C3.104,-0.122 3.081,-0.35 3.062,-0.52C2.985,-1.216 2.642,-1.861 2.123,-2.33C1.544,-2.855 0.754,-3.177 -0.034,-3.078C-0.219,-3.054 -0.379,-2.936 -0.379,-2.733C-0.379,-2.565 -0.22,-2.365 -0.034,-2.389C0.618,-2.471 1.227,-2.237 1.693,-1.79C2.166,-1.336 2.431,-0.743 2.378,-0.095C2.411,-0.177 2.445,-0.258 2.479,-0.339C2.242,-0.152 1.913,-0.069 1.585,-0.084C1.291,-0.098 0.965,-0.219 0.744,-0.432C0.27,-0.89 0.218,-1.657 0.595,-2.2C0.701,-2.353 0.623,-2.583 0.471,-2.672C0.3,-2.772 0.106,-2.701 0,-2.548" style="fill:rgb(14,34,71);fill-rule:nonzero;"/>
            </g>
        </g>
        <g transform="matrix(4.16667,0,0,4.16667,0,0)">
            <g transform="matrix(1,0,0,1,43.371,199.915)">
                <path d="M0,1.341C0.563,2.285 1.398,3.042 2.383,3.525C2.547,3.605 2.77,3.526 2.841,3.357C3.444,1.934 3.067,0.231 2.051,-0.91C1.538,-1.487 0.895,-1.915 0.145,-2.114C-0.277,-2.226 -0.753,-2.264 -1.135,-2.016C-1.449,-1.814 -1.637,-1.454 -1.689,-1.091C-1.836,-0.076 -1.032,0.614 -0.283,1.139C0.079,1.393 0.522,0.865 0.159,0.61C-0.322,0.273 -0.996,-0.158 -1.019,-0.815C-1.026,-1.032 -0.963,-1.29 -0.779,-1.425C-0.535,-1.605 -0.145,-1.492 0.117,-1.41C1.246,-1.056 2.078,-0.009 2.353,1.118C2.511,1.764 2.476,2.453 2.216,3.067C2.369,3.011 2.521,2.956 2.674,2.9C1.788,2.466 1.065,1.787 0.561,0.941C0.334,0.56 -0.226,0.962 0,1.341" style="fill:rgb(14,34,71);fill-rule:nonzero;"/>
            </g>
        </g>
        <g transform="matrix(4.16667,0,0,4.16667,0,0)">
            <g transform="matrix(1,0,0,1,31.7925,51.7352)">
                <path d="M0,1.861C-0.229,2.153 -0.479,2.337 -0.821,2.41C-0.9,2.426 -0.895,2.427 -1.001,2.43C-1.071,2.433 -1.192,2.427 -1.228,2.422C-1.349,2.405 -1.543,2.343 -1.647,2.29C-2.27,1.974 -2.634,1.28 -2.552,0.593C-2.48,0.001 -2.046,-0.582 -1.433,-0.719C-0.829,-0.854 -0.257,-0.5 0.052,0.023C0.229,0.322 0.32,0.645 0.317,0.984C0.315,1.3 0.21,1.625 0,1.861C-0.123,1.999 -0.137,2.206 0,2.341C0.125,2.465 0.363,2.48 0.486,2.341C1.677,1.007 0.631,-1.488 -1.234,-1.423C-2.175,-1.39 -2.933,-0.679 -3.17,0.198C-3.425,1.146 -3.039,2.156 -2.239,2.728C-1.369,3.349 -0.17,3.176 0.486,2.341C0.6,2.197 0.629,2.002 0.486,1.861C0.368,1.744 0.115,1.715 0,1.861" style="fill:rgb(14,34,71);fill-rule:nonzero;"/>
            </g>
        </g>
        <g transform="matrix(4.16667,0,0,4.16667,0,0)">
            <g transform="matrix(1,0,0,1,29.4165,70.2529)">
                <path d="M0,-19.448C-1.427,-19.632 -2.936,-19.84 -4.359,-19.512C-5.312,-19.293 -6.034,-18.596 -6.578,-17.826C-6.879,-17.4 -7.127,-16.939 -7.335,-16.463C-7.546,-15.984 -7.544,-15.499 -7.696,-15.002C-8.004,-13.999 -8.732,-13.175 -9.632,-12.638C-11.785,-11.354 -14.496,-11.983 -16.872,-11.619C-19.075,-11.281 -20.909,-9.982 -21.77,-7.925C-22.59,-5.968 -22.262,-3.779 -20.927,-2.126C-19.522,-0.385 -17.336,0.392 -15.124,0.027C-12.75,-0.363 -10.631,-1.89 -9.196,-3.752C-8.498,-4.657 -7.955,-5.665 -7.575,-6.74C-7.359,-7.349 -7.197,-8.037 -6.636,-8.437C-6.156,-8.779 -5.533,-8.873 -4.957,-8.922C-3.559,-9.041 -2.157,-9.039 -0.78,-9.351C0.337,-9.605 1.524,-10.034 2.267,-10.94C3.484,-12.425 3.973,-14.855 3.148,-16.622C2.963,-17.019 2.37,-16.674 2.554,-16.279C3.245,-14.799 2.769,-12.667 1.78,-11.42C1.142,-10.614 0.096,-10.256 -0.88,-10.026C-2.067,-9.746 -3.288,-9.699 -4.502,-9.631C-5.448,-9.578 -6.484,-9.486 -7.225,-8.836C-8.041,-8.121 -8.178,-6.912 -8.626,-5.978C-9.592,-3.962 -11.232,-2.246 -13.274,-1.272C-15.333,-0.29 -17.789,-0.25 -19.601,-1.751C-21.172,-3.052 -21.909,-5.1 -21.347,-7.069C-20.725,-9.245 -18.907,-10.627 -16.689,-10.964C-14.487,-11.298 -12.117,-10.802 -10.017,-11.686C-9.091,-12.075 -8.274,-12.692 -7.687,-13.503C-7.411,-13.884 -7.197,-14.311 -7.053,-14.757C-6.876,-15.302 -6.876,-15.846 -6.628,-16.37C-6.179,-17.32 -5.487,-18.431 -4.427,-18.79C-3.061,-19.253 -1.392,-18.948 0,-18.769C0.438,-18.713 0.434,-19.392 0,-19.448" style="fill:rgb(14,34,71);fill-rule:nonzero;"/>
            </g>
        </g>
        <g transform="matrix(4.16667,0,0,4.16667,0,0)">
            <g transform="matrix(1,0,0,1,4.4924,72.0233)">
                <path d="M0,-1.797C0.061,-1.804 0.122,-1.807 0.183,-1.804C0.213,-1.802 0.286,-1.789 0.216,-1.803C0.248,-1.796 0.279,-1.791 0.311,-1.783C0.342,-1.775 0.373,-1.766 0.403,-1.755C0.431,-1.745 0.477,-1.722 0.424,-1.749C0.486,-1.717 0.548,-1.687 0.606,-1.648C0.617,-1.641 0.682,-1.595 0.651,-1.618C0.624,-1.639 0.69,-1.586 0.703,-1.574C0.753,-1.53 0.796,-1.481 0.841,-1.433C0.885,-1.387 0.821,-1.466 0.858,-1.414C0.877,-1.387 0.896,-1.36 0.913,-1.333C0.949,-1.277 0.975,-1.217 1.008,-1.161C1.027,-1.128 1.003,-1.173 1.001,-1.178C1.008,-1.161 1.015,-1.144 1.021,-1.126C1.031,-1.1 1.039,-1.074 1.047,-1.047C1.056,-1.017 1.064,-0.985 1.071,-0.954C1.077,-0.925 1.082,-0.853 1.078,-0.922C1.082,-0.858 1.087,-0.796 1.083,-0.732C1.081,-0.699 1.071,-0.654 1.083,-0.713C1.076,-0.677 1.07,-0.641 1.06,-0.605C1.053,-0.578 1.043,-0.552 1.035,-0.526C1.015,-0.464 1.059,-0.566 1.022,-0.498C0.995,-0.446 0.962,-0.4 0.933,-0.351C0.914,-0.319 0.947,-0.369 0.949,-0.371C0.938,-0.359 0.928,-0.346 0.917,-0.334C0.901,-0.316 0.884,-0.298 0.867,-0.281C0.846,-0.261 0.825,-0.243 0.804,-0.224C0.746,-0.173 0.833,-0.24 0.786,-0.21C0.738,-0.179 0.69,-0.147 0.639,-0.121C0.617,-0.109 0.594,-0.099 0.572,-0.088C0.564,-0.084 0.525,-0.07 0.567,-0.086C0.617,-0.104 0.549,-0.08 0.538,-0.076C0.487,-0.058 0.435,-0.043 0.382,-0.031C0.358,-0.025 0.333,-0.02 0.308,-0.015C0.225,0.002 0.359,-0.017 0.275,-0.01C0.221,-0.005 0.167,-0.002 0.112,-0.002C0.083,-0.003 0.054,-0.004 0.024,-0.006C-0.012,-0.008 -0.067,-0.017 0.004,-0.005C-0.049,-0.014 -0.102,-0.024 -0.154,-0.037C-0.182,-0.045 -0.21,-0.053 -0.237,-0.062C-0.262,-0.071 -0.345,-0.114 -0.269,-0.073C-0.316,-0.098 -0.364,-0.119 -0.409,-0.147C-0.43,-0.16 -0.449,-0.176 -0.47,-0.188C-0.502,-0.208 -0.451,-0.174 -0.449,-0.172C-0.464,-0.186 -0.481,-0.198 -0.496,-0.212C-0.536,-0.249 -0.572,-0.288 -0.606,-0.329C-0.569,-0.284 -0.595,-0.317 -0.613,-0.343C-0.632,-0.372 -0.649,-0.401 -0.664,-0.431C-0.67,-0.442 -0.675,-0.455 -0.681,-0.465C-0.706,-0.504 -0.663,-0.408 -0.677,-0.453C-0.684,-0.477 -0.694,-0.5 -0.702,-0.523C-0.71,-0.551 -0.718,-0.579 -0.725,-0.607C-0.728,-0.622 -0.747,-0.708 -0.736,-0.661C-0.726,-0.61 -0.74,-0.7 -0.741,-0.715C-0.742,-0.744 -0.743,-0.773 -0.743,-0.803C-0.742,-0.828 -0.742,-0.853 -0.74,-0.878C-0.739,-0.891 -0.738,-0.903 -0.737,-0.916C-0.732,-0.997 -0.748,-0.868 -0.738,-0.914C-0.724,-0.976 -0.714,-1.038 -0.695,-1.1C-0.685,-1.132 -0.674,-1.165 -0.662,-1.197C-0.658,-1.209 -0.653,-1.221 -0.648,-1.233C-0.633,-1.276 -0.676,-1.182 -0.652,-1.222C-0.617,-1.281 -0.59,-1.343 -0.553,-1.401C-0.537,-1.426 -0.519,-1.45 -0.502,-1.474C-0.544,-1.414 -0.494,-1.483 -0.475,-1.504C-0.433,-1.552 -0.387,-1.594 -0.339,-1.637C-0.33,-1.645 -0.32,-1.652 -0.31,-1.66C-0.371,-1.61 -0.324,-1.649 -0.309,-1.659C-0.284,-1.675 -0.259,-1.691 -0.234,-1.706C-0.205,-1.723 -0.175,-1.737 -0.145,-1.752C-0.136,-1.756 -0.097,-1.769 -0.139,-1.755C-0.189,-1.738 -0.119,-1.761 -0.109,-1.764C-0.044,-1.786 0.023,-1.8 0.091,-1.809C0.27,-1.834 0.384,-2.068 0.332,-2.227C0.268,-2.421 0.1,-2.49 -0.091,-2.464C-0.727,-2.378 -1.217,-1.823 -1.372,-1.231C-1.537,-0.602 -1.331,0.072 -0.767,0.433C-0.245,0.766 0.473,0.745 1.008,0.454C1.612,0.126 1.898,-0.559 1.714,-1.215C1.512,-1.935 0.787,-2.563 0,-2.476C-0.178,-2.457 -0.353,-2.334 -0.344,-2.137C-0.336,-1.97 -0.191,-1.776 0,-1.797" style="fill:rgb(14,34,71);fill-rule:nonzero;"/>
            </g>
        </g>
        <g transform="matrix(4.16667,0,0,4.16667,0,0)">
            <g transform="matrix(1,0,0,1,37.1399,40.6866)">
                <path d="M0,2.527C1.095,3.124 2.428,3.6 3.677,3.208C4.618,2.913 5.314,2.041 5.406,1.071C5.449,0.623 5.324,0.171 5.04,-0.182C4.678,-0.633 4.116,-0.849 3.553,-0.926C2.474,-1.073 1.198,-0.804 0.539,0.124C-0.078,0.994 0.199,2.354 1.23,2.759C1.404,2.827 1.606,2.684 1.654,2.522C1.709,2.329 1.585,2.172 1.413,2.104C0.818,1.87 0.791,0.993 1.089,0.532C1.544,-0.174 2.545,-0.336 3.324,-0.273C4.071,-0.212 4.787,0.2 4.723,1.02C4.673,1.663 4.185,2.314 3.566,2.529C2.476,2.908 1.305,2.463 0.347,1.94C-0.041,1.729 -0.388,2.315 0,2.527" style="fill:rgb(14,34,71);fill-rule:nonzero;"/>
            </g>
        </g>
        <g transform="matrix(4.16667,0,0,4.16667,0,0)">
            <g transform="matrix(1,0,0,1,50.4254,28.8944)">
                <path d="M0,6.811C-0.598,7.593 -0.229,8.625 0.469,9.213C1.279,9.896 2.351,9.9 3.191,9.265C4.047,8.619 4.471,7.522 4.516,6.484C4.546,5.787 4.322,4.988 4.756,4.372C5.018,3.998 5.432,3.752 5.824,3.53C6.55,3.119 7.438,2.762 7.872,2.007C8.426,1.042 7.864,0.03 7.071,-0.592C5.826,-1.569 2.326,-3.089 1.825,-0.545C1.681,0.184 1.99,0.904 1.914,1.634C1.83,2.429 1.242,3.081 0.76,3.681C-0.037,4.672 -0.885,6.113 -0.02,7.324C0.233,7.678 0.83,7.339 0.574,6.981C-0.135,5.99 0.713,4.823 1.347,4.037C1.959,3.278 2.581,2.486 2.61,1.473C2.635,0.611 2.032,-0.864 3.225,-1.209C4.04,-1.445 5.034,-1.022 5.737,-0.643C6.47,-0.248 7.697,0.486 7.357,1.486C7.134,2.143 6.339,2.474 5.772,2.781C5.176,3.104 4.547,3.455 4.162,4.029C3.579,4.896 3.943,5.906 3.791,6.863C3.642,7.801 3.015,8.999 1.926,9.074C0.997,9.138 -0.049,7.994 0.594,7.154C0.861,6.805 0.264,6.466 0,6.811" style="fill:rgb(14,34,71);fill-rule:nonzero;"/>
            </g>
        </g>
        <g transform="matrix(4.16667,0,0,4.16667,0,0)">
            <g transform="matrix(1,0,0,1,57.2614,23.6405)">
                <path d="M0,2.398C0.715,2.858 1.565,2.448 2.011,1.826C2.23,1.52 2.368,1.127 2.344,0.749C2.318,0.343 2.124,-0.031 1.834,-0.317C1.246,-0.897 0.35,-1.056 -0.445,-0.914C-0.651,-0.877 -0.848,-0.812 -1.04,-0.729C-1.307,-0.614 -1.366,-0.233 -1.444,0.021C-1.608,0.555 -1.706,1.117 -1.594,1.671C-1.405,2.606 -0.244,3.454 0.675,2.862C1.045,2.624 0.701,2.036 0.328,2.276C0.132,2.402 -0.055,2.408 -0.292,2.307C-0.497,2.219 -0.703,2.029 -0.822,1.814C-1.166,1.19 -0.831,0.318 -0.607,-0.314C-0.66,-0.246 -0.712,-0.178 -0.765,-0.111C-0.439,-0.259 -0.061,-0.309 0.325,-0.277C0.639,-0.252 1.03,-0.114 1.265,0.088C1.418,0.219 1.502,0.323 1.591,0.505C1.605,0.534 1.642,0.645 1.654,0.717C1.646,0.669 1.658,0.769 1.658,0.785C1.66,0.837 1.658,0.891 1.653,0.943C1.658,0.894 1.642,0.996 1.639,1.01C1.629,1.051 1.618,1.091 1.605,1.131C1.573,1.23 1.565,1.245 1.506,1.346C1.419,1.495 1.337,1.595 1.188,1.717C1.153,1.747 1.049,1.813 0.964,1.854C0.963,1.855 0.912,1.877 0.943,1.864C0.975,1.851 0.896,1.88 0.889,1.883C0.841,1.898 0.793,1.91 0.743,1.918C0.703,1.924 0.747,1.917 0.753,1.916C0.726,1.918 0.699,1.919 0.671,1.919C0.649,1.919 0.628,1.918 0.606,1.917C0.568,1.914 0.645,1.927 0.583,1.913C0.458,1.883 0.458,1.883 0.347,1.811C-0.025,1.572 -0.37,2.16 0,2.398" style="fill:rgb(14,34,71);fill-rule:nonzero;"/>
            </g>
        </g>
    </g>
</svg>
