<svg xmlns="http://www.w3.org/2000/svg" width="28" height="48" viewBox="0 0 28 48">
  <g fill="none" fill-rule="evenodd" transform="translate(-948 -72)">
    <rect width="1024" height="192"/>
    <path fill="#0E2247" d="M970.685451,119.566577 C972.684498,119.167707 974.186048,118.879205 974.294068,117.791286 C974.294068,117.791286 974.260186,116.149176 974.226639,115.399072 C974.177326,114.301424 974.101846,113.264496 974.14445,112.226897 C974.172965,111.532481 974.192086,110.85987 974.224291,110.209735 C974.304468,108.592785 974.373238,107.180805 974.373238,105.446441 C974.373238,103.168285 974.414501,101.168903 974.531579,99.4915684 L974.537953,99.4915684 C974.538288,99.4915684 974.537282,99.3147774 974.537617,99.2839144 C974.605381,98.1936471 974.694951,97.0289061 974.811358,95.8222318 C974.936487,94.5246459 974.996536,92.6279163 974.990162,90.2420759 C974.987143,89.1447638 975.007606,87.9585529 975.027399,86.8253458 C975.04652,85.7283692 975.065977,84.8242859 975.064971,83.7497856 C975.0643,83.2398759 975.107911,82.3149938 975.154205,81.5917272 C975.355485,78.4276037 975.606079,74.485868 973.506392,72.9152121 C972.406061,72.0923119 970.883376,71.7957591 969.532116,72.1426319 C968.401257,72.4328107 967.52636,73.1470197 967.068112,74.1564395 C966.308279,75.8304192 966.32673,78.1270254 966.340149,79.8063725 C966.342161,80.0687076 966.344174,80.3052118 966.342497,80.5199105 C966.328407,82.2237468 966.35558,83.7118778 966.38443,85.2996425 C966.395501,85.9111986 966.406907,86.5455665 966.415629,87.1889919 C966.394159,87.1651738 966.371012,87.1413556 966.350548,87.1178729 C966.035545,86.752885 965.706787,86.4731056 965.388765,86.2027193 C965.103953,85.9605122 964.835244,85.7317238 964.611488,85.4653631 C964.134119,84.8964113 963.676542,84.3516131 963.044858,83.856464 C962.603383,83.4515555 962.100518,82.996327 961.581216,82.5263379 C960.561061,81.6031331 959.506018,80.6483944 958.811601,79.9774606 C958.546247,79.7211639 958.203064,79.4202501 957.871288,79.1294004 C957.53884,78.8378797 957.194986,78.5362949 956.952444,78.2997908 C956.457966,77.8173894 955.504569,76.9388017 954.904419,76.4946436 C953.459898,75.4265171 951.594032,75.1464022 950.151189,75.7807701 C948.93445,76.3158397 948.178643,77.4215385 948.022651,78.8945736 C947.911612,79.9445849 948.209171,80.9234772 948.907613,81.8044132 C949.256834,82.2448812 949.617461,82.6048371 949.966346,82.9530517 C950.281685,83.2677197 951.72587,84.8417302 952.20022,85.2385875 C952.450143,85.4479189 952.686312,85.6455088 952.906378,85.8595367 C952.98689,85.9377005 953.055996,86.0064712 953.12007,86.0702099 C953.27103,86.2204991 953.407901,86.3560277 953.591066,86.514368 C953.341814,86.6297686 953.129799,86.7673101 952.974813,86.9182701 C952.634314,87.2493759 952.033829,88.2074693 951.933524,88.8025876 C951.843283,89.3376572 951.917086,90.0823937 952.104277,90.6177988 C951.742643,90.6691252 951.399796,90.7680879 951.135113,90.9227382 C950.451431,91.3229501 949.855307,92.1978477 949.748628,92.9576802 C949.629202,93.8067468 949.741248,94.3938139 950.177019,95.2012826 C950.251158,95.3391595 950.420904,95.6202807 950.691626,96.0674581 C950.965702,96.5200029 951.340754,97.1396102 951.451794,97.354309 C951.833555,98.0923361 952.41928,98.7984939 952.941602,99.3919347 C953.050964,99.516393 953.155965,99.6411866 953.259289,99.7646384 C953.565235,100.12862 955.578372,102.594301 955.892033,103.109579 C956.270104,103.730192 956.681722,104.275326 957.003435,104.765779 C957.704896,105.835582 957.77266,106.768516 957.763267,107.904407 C957.762261,108.039264 957.761254,108.172445 957.761254,108.303612 C957.761925,108.673968 957.785408,109.090953 957.80822,109.494184 C957.818619,109.679026 957.828683,109.859507 957.836064,110.025564 C957.859546,110.568349 957.849818,110.837729 957.83707,111.178563 C957.828012,111.421441 957.817948,111.696524 957.817948,112.108477 C957.817948,112.731775 957.789769,113.43223 957.762261,114.109537 C957.734082,114.806302 957.705231,115.526549 957.705231,116.187754 C957.705231,116.239081 957.704896,116.295104 957.704225,116.353811 C957.701206,116.713431 957.69718,117.160944 957.779034,117.518216 C958.016545,118.557492 959.23496,118.907384 959.963259,119.11638 C960.037733,119.13785 960.10751,119.157643 960.169571,119.176764 C961.5054,119.586369 962.423238,119.679965 963.585295,119.798384 C963.805361,119.820861 964.037169,119.844343 964.28575,119.871516 C965.012706,119.951022 965.880895,120 966.762501,120 C967.888999,120 969.037638,119.919823 969.939037,119.720221 C970.15273,119.67292 970.41171,119.621258 970.685451,119.566577 L970.685451,119.566577 Z M967.957434,80.7188424 C967.959447,80.495086 967.945358,76.1672279 968.540811,74.855217 C968.833003,74.2117915 969.504272,73.8266756 969.922264,73.7193262 C970.731745,73.5113367 971.817316,73.691147 972.470135,74.1799222 C973.788184,75.1658593 973.50874,79.0337923 973.353419,81.4739783 C973.305447,82.2274369 973.260159,82.9389621 973.26083,83.507243 C973.261837,84.5649701 973.24238,85.6907969 973.223258,86.7797223 C973.203465,87.9216516 973.183002,89.1028304 973.185686,90.2182577 C973.189376,91.6470111 973.168241,92.9063538 973.122953,93.9483139 C972.814659,93.4719509 972.457052,93.0264509 972.048453,92.6141621 C971.657299,92.2196531 968.294914,89.1105461 968.049352,88.8233865 C968.046333,87.5593473 968.040295,86.489208 968.018489,85.2929332 C967.989975,83.7175807 967.943345,82.3988605 967.957434,80.7188424 L967.957434,80.7188424 Z M953.357245,83.8557931 C952.941602,83.507914 950.466527,81.0039892 950.182387,80.6457106 C949.776807,80.1341236 949.63155,79.6926492 949.692941,79.1129625 C949.780162,78.287714 950.260551,77.7033307 950.876803,77.4322735 C951.71178,77.0652727 952.832575,77.0813751 953.737665,77.7506315 C954.261664,78.1380958 955.488802,79.1508703 955.930276,79.5812742 C956.207036,79.8513251 957.323806,81.0489418 957.558297,81.2750465 C957.859211,81.5655608 958.222521,81.9050533 958.618708,82.2697057 C957.626397,82.2428684 956.59383,82.5447886 955.67096,83.7095295 C955.230492,84.2653981 955.079532,84.8323372 955.063094,85.3932378 C955.022167,85.3580137 954.981911,85.3241316 954.943333,85.2936041 C954.707835,85.1064136 954.582035,84.9812844 954.39149,84.7917457 C954.323054,84.7236459 954.248581,84.6498432 954.162366,84.5659765 C953.894328,84.3053187 953.621258,84.0768658 953.357245,83.8557931 L953.357245,83.8557931 Z M956.410665,88.6335122 C956.61228,88.8576041 956.721643,88.9793786 956.852139,89.1799878 C957.557291,90.2662295 958.686472,91.6966602 959.480187,92.3296862 C959.947827,92.7027254 960.648618,93.3820458 961.211531,93.9278504 C961.372555,94.0841779 961.523515,94.2304415 961.657031,94.3579189 C962.048521,94.7319645 962.393716,95.0392521 962.698656,95.3106448 C963.332688,95.8749001 963.833876,96.3207356 964.481662,97.111431 C964.758422,97.4492461 965.142196,98.0581185 965.312614,98.6629652 C965.544086,99.4835172 965.277725,99.8374348 965.019751,100.054146 C963.932838,100.966952 962.956294,100.332584 962.779839,100.202087 C962.779839,100.202087 961.42992,99.3550334 960.66472,98.6679972 C960.66472,98.6679972 959.170215,97.323446 958.437556,96.5032295 C956.954792,94.8423331 955.296579,92.9818338 954.18719,90.8274656 C954.058036,90.5772073 953.934919,90.3235943 953.821867,90.0652848 C953.736994,89.8710495 953.668559,89.3779132 953.709821,89.1115525 C953.761147,88.9206719 953.907411,88.4956354 954.225098,88.2178688 C954.597466,87.9229934 955.335829,87.5989324 956.005085,88.1745936 C956.132563,88.3292438 956.284194,88.4926162 956.410665,88.6335122 L956.410665,88.6335122 Z M956.622344,100.256768 C956.170471,100.020264 955.913167,99.8394476 955.546502,99.5452431 C955.527045,99.5294762 954.921192,98.9390545 954.640071,98.604594 C954.553856,98.5019411 954.465963,98.3982819 954.376394,98.2946226 C954.349221,98.2630887 953.345504,97.090632 953.053648,96.5260413 C952.924829,96.2771249 951.763442,94.4548688 951.706413,94.3495322 C951.438039,93.8523703 951.430324,93.6564577 951.491714,93.2200153 C951.519893,93.0197416 951.678569,92.6879648 952.045234,92.4880266 C952.165332,92.4226105 952.464568,92.3930895 952.736632,92.3930895 C952.834923,92.3930895 952.92919,92.4125465 953.010373,92.4309972 C954.182829,94.4417856 955.71021,96.1556859 957.093004,97.7048719 C957.805872,98.5029475 958.490224,99.1483858 959.133649,99.7220341 C959.146062,99.8102619 959.156461,99.9048636 959.131301,100.017916 C959.06253,100.324868 959.062866,100.409741 958.760275,100.672076 C958.646552,100.770704 958.328193,100.831423 958.151402,100.81465 C957.582451,100.759969 957.037317,100.47348 956.622344,100.256768 L956.622344,100.256768 Z M964.48032,118.078446 C964.227043,118.050937 963.99121,118.026784 963.767118,118.003972 C962.620828,117.886894 961.863343,117.809737 960.69726,117.452465 C960.625806,117.430659 960.545965,117.407512 960.460085,117.383023 C960.248406,117.322303 959.61538,117.118675 959.424164,116.98214 C959.404036,116.803672 959.436911,116.14884 959.436911,116.092817 C959.436911,115.468178 959.447646,114.814689 959.475155,114.136039 C959.502998,113.440952 959.551306,112.622748 959.551306,111.96322 C959.551306,111.584478 959.617057,108.008737 959.618064,107.880253 C959.628798,106.600447 959.487567,104.977458 958.367779,103.49872 C958.159789,103.224308 957.925298,102.973379 957.671685,102.563103 C957.797149,102.586921 957.924291,102.606378 958.052775,102.618455 C958.129597,102.625835 958.206754,102.62919 958.283912,102.62919 C958.88943,102.62919 959.507695,102.410466 959.941454,102.034407 C960.323886,101.702631 960.575151,101.38226 960.731478,101.007543 C961.058894,101.240357 961.394361,101.463443 961.719428,101.662375 C962.158554,101.986771 962.930128,102.336327 963.830186,102.336327 C964.564187,102.336327 965.384068,102.103849 966.17946,101.435934 C967.879942,100.008187 967.214375,97.6008771 965.876533,95.9688308 C965.138506,95.0681023 964.563181,94.5565153 963.897279,93.9637453 C963.58932,93.6900044 963.271298,93.4065349 962.903291,93.0549656 C962.772459,92.9301719 962.624853,92.7865921 962.466848,92.6336192 C961.876091,92.0606418 961.140748,91.3477747 960.604672,90.9200544 C960.055177,90.4819347 959.6553,89.9277434 958.635146,88.7687054 C958.383545,88.4828876 957.78675,87.7666659 957.547898,87.5006406 C957.21176,87.1265951 956.918897,86.6733793 956.858178,86.3412671 C956.706547,85.5096448 956.909504,85.1094328 957.084282,84.8299889 C957.601237,84.003734 958.412396,83.4146542 959.467439,83.7863515 C960.307783,84.0822332 960.923365,84.5143146 961.45139,84.9453895 C961.592286,85.0604546 963.029426,86.387897 963.230706,86.6274204 C963.550071,87.0078398 963.890234,87.2973477 964.219327,87.5771271 C964.497429,87.8136312 964.7601,88.0367167 964.983856,88.296368 C965.267997,88.6257965 965.592058,88.9246975 965.905384,89.2135345 C966.218374,89.502036 966.513921,89.7744351 966.737006,90.0461632 C967.139231,90.5352739 967.401901,90.7654042 967.65585,90.9878187 C967.825931,91.136766 968.001716,91.2907453 968.252981,91.5537513 C968.528735,91.8425883 968.975241,92.2417939 969.447578,92.6641467 C969.922599,93.0888477 970.414058,93.5283093 970.766634,93.8842397 C971.259435,94.3814016 972.757965,95.8940217 972.726431,99.2342653 C972.73247,99.1342962 972.651287,102.834831 972.651287,105.088498 C972.651287,106.777909 972.374527,108.348229 972.295357,109.942703 C972.262816,110.596528 972.260803,111.324491 972.231953,112.026623 C972.18633,113.141715 972.297369,114.179314 972.346348,115.266898 C972.373185,115.863023 972.284286,116.670156 972.295357,117.274667 C971.798195,117.459509 970.883376,117.688298 970.331869,117.798331 C970.048399,117.854689 969.780697,117.908364 969.547547,117.959691 C968.211383,118.255237 965.986902,118.24316 964.48032,118.078446 L964.48032,118.078446 Z"/>
  </g>
</svg>
