<svg xmlns="http://www.w3.org/2000/svg" width="64" height="64" viewBox="0 0 64 64">
  <path fill="#323639" fill-rule="evenodd" d="M44.1784308,58.3075493 L44.1784308,49.0668178 C44.1784308,48.9081386 44.1536288,45.1475742 41.9859906,41.8382455 L39.4567237,43.4951767 C41.1168551,46.030044 41.1544581,49.0412158 41.1547247,49.0668178 L41.1547247,59.5068443 C38.7078644,60.3186419 36.1420612,60.8026802 33.5117197,60.9368242 L33.5117197,3.06317583 C36.1420612,3.19731979 38.7078644,3.68135811 41.1547247,4.49315571 L41.1547247,14.9331822 C41.1547247,14.9630512 41.1083211,17.9830237 39.4567237,20.50509 L41.9859906,22.1617545 C44.1536288,18.8524258 44.1784308,15.0918614 44.1784308,14.9331822 L44.1784308,5.69245065 C46.9562507,6.98028594 49.5340548,8.71722345 51.8214359,10.8661936 L51.8214359,17.0666844 C51.8214359,17.225097 51.8462378,20.9859281 54.0133427,24.29499 L56.543143,22.6383255 C54.8832783,20.1037249 54.8454086,17.0922865 54.8451419,17.0666844 L54.8451419,14.1693884 C58.8201233,19.2412566 60.9760273,25.4548152 60.9760273,32.0001333 C60.9760273,38.5451848 58.8201233,44.7587434 54.8451419,49.8308783 L54.8451419,44.8046137 C54.8454086,44.774478 54.8832783,41.7633063 56.543143,39.2284389 L54.0133427,37.5717744 C51.8462378,40.8808364 51.8214359,44.6414008 51.8214359,44.80008 L51.8214359,53.1340731 C49.5340548,55.2827766 46.9562507,57.0197141 44.1784308,58.3075493 L44.1784308,58.3075493 Z M22.8450086,4.49315571 C25.2918689,3.68135811 27.8576721,3.19731979 30.4880136,3.06317583 L30.4880136,60.9368242 C27.8576721,60.8026802 25.2918689,60.3186419 22.8450086,59.5068443 L22.8450086,4.49315571 Z M12.1785641,53.1340731 L12.1785641,10.8659269 C14.4659452,8.71722345 17.0434826,6.98028594 19.8213025,5.69245065 L19.8213025,58.3075493 C17.0434826,57.0197141 14.4659452,55.2827766 12.1785641,53.1340731 L12.1785641,53.1340731 Z M3.02370604,32.0001333 C3.02370604,25.4548152 5.17961005,19.2409899 9.15485809,14.1691217 L9.15485809,49.831145 C5.17961005,44.7590101 3.02370604,38.5451848 3.02370604,32.0001333 L3.02370604,32.0001333 Z M63.9949329,31.6049021 C63.9933328,31.4643576 63.9930661,31.3232798 63.9895992,31.1832687 C63.9861322,31.0411241 63.9791984,30.8997796 63.9738646,30.7579017 C63.9687975,30.6296248 63.9655973,30.5010813 63.9591968,30.3730712 C63.9506628,30.2021243 63.9383951,30.0322442 63.9271942,29.8618307 C63.9207937,29.7639563 63.91626,29.6658152 63.9087928,29.5682075 C63.8954584,29.3903267 63.8783904,29.2135127 63.8623891,29.0364321 C63.8538551,28.9473583 63.8477213,28.8574846 63.8386539,28.7684108 C63.8162521,28.5457265 63.7903834,28.3238423 63.7634479,28.1022248 C63.7583809,28.0600881 63.7543806,28.017418 63.7490468,27.9750147 C63.7245115,27.7797992 63.6965093,27.5859172 63.6685071,27.3917685 C63.6586396,27.3234964 63.6503723,27.2549577 63.6402382,27.1866856 C63.6103692,26.98907 63.5767665,26.7922544 63.5434305,26.5957055 C63.532763,26.5322338 63.5234289,26.4684954 63.5122281,26.4052904 C62.3678708,19.9181102 59.2684254,14.1053833 54.8451419,9.59569299 C53.8960001,8.62788304 52.8865869,7.71927778 51.8214359,6.87761114 C50.8053554,6.07488093 49.7391377,5.33188877 48.6286498,4.65503519 C48.3510278,4.48568845 48.0707389,4.32060871 47.7875165,4.1595293 C47.2213384,3.83763715 46.6444927,3.53254633 46.0572462,3.2450569 C45.763623,3.10131219 45.4675995,2.96183448 45.1691759,2.82689046 C44.8422167,2.67887874 44.5112571,2.53860097 44.1784308,2.40152345 C43.9557465,2.30978286 43.7317288,2.22017576 43.5063776,2.13323555 C42.6095066,1.78760819 41.6939674,1.47931711 40.7602935,1.21396277 C40.2541201,1.07021806 39.7428796,0.938474296 39.2265721,0.819531546 C38.7105313,0.700322109 38.18969,0.593646997 37.6643151,0.499772899 C36.8765194,0.359228439 36.0785896,0.247219572 35.271859,0.165346423 C35.0027711,0.137877582 34.732883,0.113875682 34.4619282,0.0933407228 C33.6493306,0.031469158 32.8281989,0 31.9998667,0 C30.8952459,0 29.8039595,0.0560044337 28.728141,0.165346423 C27.6523225,0.274421725 26.5922386,0.437101271 25.5508228,0.650184806 C25.2902688,0.703522362 25.0310483,0.759793484 24.7731612,0.819531546 C23.9989666,0.998212358 23.2354395,1.20489539 22.48418,1.43878057 C21.9830737,1.59452623 21.4873011,1.76227285 20.9971289,1.94175372 C20.8283156,2.00362529 20.6608356,2.06869711 20.4933557,2.13323555 C20.2680046,2.22017576 20.0439868,2.30978286 19.8213025,2.40152345 C19.7290285,2.43939312 19.6359545,2.47592934 19.5439472,2.51486576 C19.3047283,2.61594043 19.0671095,2.71994866 18.8308241,2.82689046 C18.3582534,3.04050737 17.8918164,3.26532517 17.43178,3.50081048 C16.5119739,3.97204779 15.6177697,4.48648851 14.7521012,5.04146578 C14.1029832,5.45749872 13.4698664,5.8964668 12.8538176,6.35730329 C12.6260662,6.52745009 12.4015151,6.70133052 12.1785641,6.87761114 C11.9993499,7.01922236 11.8209358,7.16190032 11.6449219,7.30724516 C11.2496906,7.63340431 10.8627266,7.96863085 10.4837633,8.31319146 C10.1050667,8.65748538 9.73437064,9.01058 9.37247532,9.37274201 C9.29913618,9.44608115 9.22766386,9.5212871 9.15485809,9.5954263 C9.04818298,9.70396823 8.94097449,9.81197678 8.8361662,9.92185215 C7.95316296,10.8480588 7.1250974,11.8273363 6.3570366,12.8538176 C5.58924248,13.8805655 4.8817198,14.9550506 4.23953563,16.071939 C3.85417179,16.7418587 3.49254316,17.4272463 3.15544981,18.1267684 C3.04317425,18.3598535 2.93356557,18.5945387 2.82662377,18.8308241 C2.07883124,20.4848217 1.46758285,22.2134919 1.00727974,24.0027002 C0.609381576,25.549756 0.326159154,27.1424154 0.162946233,28.7705443 C0.157612478,28.8238819 0.150411908,28.8764194 0.14534484,28.9294903 C0.124009817,29.1540414 0.108275238,29.3804593 0.0917405961,29.6063438 C0.0832065872,29.7191528 0.0720057005,29.8311616 0.0648051304,29.9442373 C0.0466703614,30.2309266 0.0344027235,30.5189494 0.0237352124,30.8075056 C0.0218683979,30.8608432 0.0178680812,30.913914 0.0162679545,30.9675183 C0.00960076006,31.1760681 0.00880069672,31.3862181 0.00613381893,31.5961014 C0.00453369225,31.730512 0,31.8641226 0,31.9987999 L0,32.0001333 L0,32.0001333 L0,32.0014668 C0,32.1540122 0.00400031669,32.3057575 0.00613381893,32.4580363 C0.00800063338,32.5980473 0.00800063338,32.7385918 0.0117342623,32.8780695 C0.0152012034,33.0116801 0.0226684613,33.1444906 0.0277355291,33.2778345 C0.0341360358,33.4351803 0.0384030402,33.5930595 0.0469370492,33.7496052 C0.054404307,33.8901496 0.0658718815,34.0293607 0.0752059538,34.1691051 C0.0850734016,34.3176501 0.093074035,34.4667286 0.105074985,34.6147403 C0.120542876,34.8056888 0.140277772,34.9955705 0.158945917,35.1854522 C0.168546677,35.2814598 0.175747247,35.3780008 0.18614807,35.4737417 C0.238152187,35.9548464 0.303224005,36.4322176 0.376296457,36.9066551 C0.389630846,36.9946621 0.401365108,37.0834691 0.41549956,37.1712094 C0.435234456,37.2925523 0.458436293,37.4128285 0.479504627,37.5336381 C0.506973469,37.6923173 0.533108871,37.8512632 0.56324459,38.0091424 C0.59204687,38.1619545 0.625116155,38.3134331 0.656318625,38.4654452 C0.681653964,38.5899884 0.705389177,38.7150649 0.732324642,38.8390748 C1.21209596,41.0424492 1.91881857,43.1610169 2.82662377,45.1691759 C2.93356557,45.4054613 3.04317425,45.6401465 3.15544981,45.8734983 C3.3802676,46.3396686 3.61575291,46.799705 3.86217242,47.2530742 C4.231535,47.9333947 4.62489947,48.598514 5.04119909,49.2476321 C5.45749872,49.8970168 5.8964668,50.5301336 6.3570366,51.1461824 C6.51064876,51.351532 6.66666111,51.5550148 6.82507365,51.756364 C7.30004459,52.3609452 7.79635054,52.947925 8.31292477,53.5162367 C8.5873465,53.8181273 8.86923548,54.1133506 9.15485809,54.4045737 L9.15485809,54.4045737 C9.22766386,54.4787129 9.29913618,54.5539189 9.37247532,54.6275247 C9.73437064,54.98942 10.1050667,55.3427813 10.4837633,55.6870752 C11.03154,56.1849813 11.5971848,56.6631525 12.1785641,57.1226555 C12.2004325,57.1397236 12.2215009,57.1575916 12.2433693,57.1749263 C12.4449852,57.3333389 12.648468,57.4893512 12.8538176,57.6426967 C13.4698664,58.1035332 14.1029832,58.5425013 14.7521012,58.9588009 C15.401486,59.3748338 16.0666053,59.768465 16.7466591,60.1378276 C17.200295,60.3842471 17.6603314,60.6197324 18.1265017,60.8445502 C18.3595868,60.9568257 18.5945387,61.0664344 18.8308241,61.1733762 C19.1577833,61.3211213 19.4884762,61.4616657 19.8213025,61.5987432 C20.0439868,61.6904838 20.2680046,61.7798242 20.493089,61.8667645 L20.4933557,61.8667645 C24.0643051,63.2434068 27.9435455,64 31.9998667,64 C34.7611519,64 37.4410974,63.6503723 39.9972998,62.9927203 C41.1957947,62.6841625 42.366554,62.3062659 43.5063776,61.8667645 L43.5066443,61.8667645 C43.7317288,61.7798242 43.9557465,61.6904838 44.1784308,61.5987432 C44.5112571,61.4616657 44.8422167,61.3211213 45.1691759,61.1733762 C45.4054613,61.0664344 45.6401465,60.9568257 45.8732316,60.8445502 C46.5727537,60.5074568 47.2581413,60.1458282 47.928061,59.7604644 C48.951342,59.1718844 49.9388868,58.5281001 50.8866952,57.8336452 C51.2027202,57.6021602 51.5144782,57.3650747 51.8214359,57.1223889 C52.8865869,56.2809889 53.8960001,55.3723836 54.8451419,54.404307 C59.2684254,49.8946167 62.3678708,44.0818898 63.5122281,37.5947096 C63.5207621,37.5467058 63.5276959,37.4979019 63.5359633,37.4498981 C63.5722328,37.238148 63.607969,37.0263979 63.6402382,36.8133144 C63.6490389,36.7546431 63.6559728,36.6954384 63.6645068,36.6367671 C63.6941091,36.4332843 63.7234448,36.2295348 63.7490468,36.0249853 C63.7530471,35.9937828 63.7559807,35.9623137 63.7597143,35.9313779 C63.7882499,35.6988262 63.8151854,35.465741 63.8386539,35.2315892 C63.8469212,35.1491826 63.8527883,35.0662427 63.8605223,34.9838362 C63.8773236,34.8000883 63.894925,34.6166071 63.9087928,34.4320592 C63.9157267,34.3392519 63.9199937,34.2459111 63.9263942,34.1531038 C63.9378617,33.9778899 63.9503961,33.8029427 63.9591968,33.6269288 C63.9653306,33.503719 63.9685308,33.3797092 63.9733312,33.2559661 C63.9789317,33.1098212 63.9858655,32.9636763 63.9895992,32.816998 C63.9930661,32.6783204 63.9933328,32.5391093 63.9949329,32.400165 C63.9965331,32.2676212 64,32.1356107 64,32.0025335 L64,32.0001333 L64,32.0001333 L64,31.9974665 C64,31.8662561 63.9965331,31.7358458 63.9949329,31.6049021 L63.9949329,31.6049021 Z"/>
</svg>
