<?xml version="1.0" encoding="UTF-8"?>
<svg width="64px" height="64px" viewBox="0 0 64 64" version="1.1" xmlns="http://www.w3.org/2000/svg" xmlns:xlink="http://www.w3.org/1999/xlink">
    <!-- Generator: Sketch 43.2 (39069) - http://www.bohemiancoding.com/sketch -->
    <title>fd-ico</title>
    <desc>Created with Sketch.</desc>
    <defs>
        <path d="M28.4373877,-3.55271368e-15 C12.9402042,1.70931311 0.773604967,14.5040167 -3.55271368e-15,30.3016543 L-3.55271368e-15,33.504142 C0.831778779,50.487064 14.8321874,64 31.9803864,64 C49.6649585,64 64,49.6291974 64,31.9028982 C64,15.3763281 51.5414643,1.76655772 35.523385,-3.55271368e-15 L28.4373877,-3.55271368e-15 L28.4373877,-3.55271368e-15 Z M11.4789207,52.4547803 C6.00177624,46.964381 2.98661152,39.6664967 2.98661152,31.9028982 C2.98661152,24.1401022 6.00177624,16.8403454 11.4789207,11.3510161 C16.9552647,5.86248924 24.2363311,2.83895776 31.9803864,2.83895776 C39.7252421,2.83895776 47.0063086,5.86248924 52.4826525,11.3510161 C57.9589965,16.8403454 60.9752286,24.1401022 60.9752286,31.9028982 C60.9752286,39.6664967 57.9589965,46.964381 52.4826525,52.4547803 C47.0063086,57.9443771 39.7252421,60.9668386 31.9803864,60.9668386 C24.2363311,60.9668386 16.9552647,57.9443771 11.4789207,52.4547803 L11.4789207,52.4547803 Z" id="path-1"></path>
        <path d="M12.9447303,32.725157 C12.9447303,36.2298182 15.7981743,39.0709421 19.3176432,39.0709421 C22.837112,39.0709421 25.690556,36.2298182 25.690556,32.725157 C25.690556,29.219438 22.837112,26.378314 19.3176432,26.378314 C15.7981743,26.378314 12.9447303,29.219438 12.9447303,32.725157 L12.9447303,32.725157 Z" id="path-3"></path>
        <path d="M38.4371784,32.725157 C38.4371784,36.2298182 41.2898257,39.0709421 44.8095602,39.0709421 C48.3295602,39.0709421 51.1822075,36.2298182 51.1822075,32.725157 C51.1822075,29.219438 48.3295602,26.378314 44.8095602,26.378314 C41.2898257,26.378314 38.4371784,29.219438 38.4371784,32.725157 L38.4371784,32.725157 Z" id="path-5"></path>
        <path d="M4.40643983,19.6559339 C5.08282158,19.8987107 5.81151867,20.0309421 6.57155187,20.0309421 C10.0912863,20.0309421 12.9447303,17.1892893 12.9447303,13.6846281 C12.9447303,12.1962314 12.4300747,10.8279008 11.5680664,9.74492562 C8.55209959,12.5096198 6.10018257,15.8780826 4.40643983,19.6559339 L4.40643983,19.6559339 Z" id="path-7"></path>
        <path d="M51.1822075,12.8912397 C51.1822075,16.3969587 54.0356515,19.2386116 57.5553859,19.2386116 C58.1964481,19.2386116 58.8170622,19.1441983 59.401029,18.9672727 C57.6570954,15.3258843 55.2003983,12.0883306 52.2115187,9.43233058 C51.5606307,10.4269752 51.1822075,11.6146777 51.1822075,12.8912397 L51.1822075,12.8912397 Z" id="path-9"></path>
        <path d="M5.07246473,45.5936529 C6.8519834,49.0739835 9.28982573,52.1631736 12.2229378,54.7001653 C12.6842158,53.8229421 12.9447303,52.8238017 12.9447303,51.7640992 C12.9447303,48.2591736 10.0912863,45.4175207 6.57155187,45.4175207 C6.0553029,45.4175207 5.55286307,45.4786116 5.07246473,45.5936529 L5.07246473,45.5936529 Z" id="path-11"></path>
        <path d="M25.690556,51.7640992 C25.690556,55.2690248 28.544,58.1106777 32.0634689,58.1106777 C35.5837344,58.1106777 38.4371784,55.2690248 38.4371784,51.7640992 C38.4371784,48.2591736 35.5837344,45.4175207 32.0634689,45.4175207 C28.544,45.4175207 25.690556,48.2591736 25.690556,51.7640992 L25.690556,51.7640992 Z" id="path-13"></path>
        <path d="M32.1917344,6.81203306 C31.2487303,7.17752066 30.2996183,7.96138843 29.5478174,8.48899174 C29.0809627,8.7317686 28.5726805,8.9372562 28.0683817,9.13560331 C26.0514523,9.93110744 24.1070207,10.6245289 25.2181245,13.2609587 C25.6347884,14.0929587 26.1040332,14.8728595 26.5987718,15.6535537 C26.8457427,16.0436364 27.0996183,16.4334545 27.3561494,16.8253884 C27.5895768,17.3059174 27.8955021,17.7073719 28.2524149,18.0342479 C28.6093278,18.3619174 29.0196183,18.6158017 29.4625726,18.8022479 C33.3437344,20.3356033 37.3021743,17.6306777 38.3439668,13.6766942 L38.3439668,11.8042975 C38.3439668,11.3877686 38.1360332,10.9712397 37.7185726,10.5555041 C37.3021743,10.1389752 36.4685809,9.93110744 36.1254772,9.53943802 C35.751834,9.2408595 35.3351701,8.95629752 34.8802656,8.70082645 C34.7881162,7.85057851 34.385527,7.01804959 33.5763651,6.66049587 C33.4369461,6.62532231 33.2959336,6.60971901 33.1525311,6.60971901 C32.8378423,6.60971901 32.5151867,6.68667769 32.1917344,6.81203306 L32.1917344,6.81203306 Z" id="path-15"></path>
        <path d="M51.1822075,51.7640992 C51.1822075,52.8238017 51.442722,53.8229421 51.904,54.7009587 C54.837112,52.1631736 57.2746888,49.0739835 59.0542075,45.5944463 C58.5740747,45.4786116 58.0713693,45.4175207 57.5553859,45.4175207 C54.0356515,45.4175207 51.1822075,48.2591736 51.1822075,51.7640992 L51.1822075,51.7640992 Z" id="path-17"></path>
        <path d="M29.0567967,23.0759669 C29.0475021,23.0725289 29.0204149,23.0701488 28.967834,23.0677686 C28.9989046,23.0696198 29.0283817,23.0725289 29.0567967,23.0759669 L29.0567967,23.0759669 Z M28.7997344,23.1082314 C28.1966473,23.3272066 27.7975104,24.3102149 28.4954025,24.6458182 C28.8929461,24.8380826 29.4344232,24.7404959 29.601195,24.3006942 C29.7844315,23.8193719 29.6266888,23.1592727 29.0567967,23.0759669 C29.0889295,23.0868099 28.9152531,23.1029421 28.7997344,23.1082314 C28.8547054,23.0878678 28.910473,23.0741157 28.967834,23.0677686 C28.621278,23.1069091 28.676249,23.1129917 28.7997344,23.1082314 L28.7997344,23.1082314 Z" id="path-19"></path>
        <path d="M24.8006639,16.8576529 C23.9808797,16.8576529 23.2848465,17.5164298 23.3427386,18.3500165 C23.4000996,19.1941818 24.1728797,19.8598347 25.0070041,19.8741157 C25.8347552,19.8891901 26.5164481,19.2243306 26.4681162,18.3912727 C26.4184564,17.5439339 25.6562988,16.8666446 24.8150041,16.8576529 L24.8006639,16.8576529 L24.8006639,16.8576529 Z" id="path-21"></path>
    </defs>
    <g id="Assets" stroke="none" stroke-width="1" fill="none" fill-rule="evenodd">
        <g id="fd-ico">
            <mask id="mask-2" fill="white">
                <use xlink:href="#path-1"></use>
            </mask>
            <g id="Clip-2"></g>
            <polygon id="Fill-1" fill="#000000" mask="url(#mask-2)" points="-8 68.3826116 65.6871037 68.3826116 65.6871037 -5 -8 -5"></polygon>
            <mask id="mask-4" fill="white">
                <use xlink:href="#path-3"></use>
            </mask>
            <g id="Clip-5"></g>
            <polygon id="Fill-4" fill="#000000" mask="url(#mask-4)" points="7.96574274 44.0290909 30.669278 44.0290909 30.669278 21.4201653 7.96574274 21.4201653"></polygon>
            <mask id="mask-6" fill="white">
                <use xlink:href="#path-5"></use>
            </mask>
            <g id="Clip-8"></g>
            <polygon id="Fill-7" fill="#000000" mask="url(#mask-6)" points="33.4584564 44.0290909 56.161195 44.0290909 56.161195 21.4201653 33.4584564 21.4201653"></polygon>
            <mask id="mask-8" fill="white">
                <use xlink:href="#path-7"></use>
            </mask>
            <g id="Clip-11"></g>
            <polygon id="Fill-10" fill="#000000" mask="url(#mask-8)" points="-0.572282158 24.9893554 17.9234523 24.9893554 17.9234523 4.7865124 -0.572282158 4.7865124"></polygon>
            <mask id="mask-10" fill="white">
                <use xlink:href="#path-9"></use>
            </mask>
            <g id="Clip-14"></g>
            <polygon id="Fill-13" fill="#000000" mask="url(#mask-10)" points="46.2034855 24.1967603 64.3800166 24.1967603 64.3800166 4.47391736 46.2034855 4.47391736"></polygon>
            <mask id="mask-12" fill="white">
                <use xlink:href="#path-11"></use>
            </mask>
            <g id="Clip-17"></g>
            <polygon id="Fill-16" fill="#000000" mask="url(#mask-12)" points="0.0937427386 59.658314 17.9237178 59.658314 17.9237178 40.4591074 0.0937427386 40.4591074"></polygon>
            <mask id="mask-14" fill="white">
                <use xlink:href="#path-13"></use>
            </mask>
            <g id="Clip-20"></g>
            <polygon id="Fill-19" fill="#000000" mask="url(#mask-14)" points="20.7115685 63.0688264 43.4159004 63.0688264 43.4159004 40.4591074 20.7115685 40.4591074"></polygon>
            <mask id="mask-16" fill="white">
                <use xlink:href="#path-15"></use>
            </mask>
            <g id="Clip-23"></g>
            <polygon id="Fill-22" fill="#000000" mask="url(#mask-16)" points="19.9154191 24.1962314 43.3229544 24.1962314 43.3229544 1.65130579 19.9154191 1.65130579"></polygon>
            <mask id="mask-18" fill="white">
                <use xlink:href="#path-17"></use>
            </mask>
            <g id="Clip-26"></g>
            <polygon id="Fill-25" fill="#000000" mask="url(#mask-18)" points="46.2034855 59.6591074 64.0334606 59.6591074 64.0334606 40.4591074 46.2034855 40.4591074"></polygon>
            <mask id="mask-20" fill="white">
                <use xlink:href="#path-19"></use>
            </mask>
            <g id="Clip-29"></g>
            <polygon id="Fill-28" fill="#000000" mask="url(#mask-20)" points="23.1472863 29.6978512 34.6526805 29.6978512 34.6526805 18.1096198 23.1472863 18.1096198"></polygon>
            <mask id="mask-22" fill="white">
                <use xlink:href="#path-21"></use>
            </mask>
            <g id="Clip-32"></g>
            <polygon id="Fill-31" fill="#000000" mask="url(#mask-22)" points="18.3605643 24.8325289 31.4492282 24.8325289 31.4492282 11.8995041 18.3605643 11.8995041"></polygon>
        </g>
    </g>
</svg>