<svg xmlns="http://www.w3.org/2000/svg" width="128" height="128" viewBox="0 0 128 128">
  <path fill="#000000" fill-rule="evenodd" d="M79.0367195,16.8674113 C76.7914414,15.1883076 73.684819,14.5832952 70.9286033,15.291013 C68.6220473,15.8830794 66.8367858,17.3399425 65.9020804,19.3992288 C64.3520058,22.8143989 64.3891178,27.5004404 64.416736,30.9263989 C64.4210514,31.4615026 64.4249352,31.9435275 64.4210514,32.3823989 C64.3925701,35.8584155 64.4482381,38.8942661 64.5069269,42.1338014 C64.5297983,43.3813698 64.5526697,44.6755441 64.5707941,45.9882744 C64.5272091,45.9395109 64.4797402,45.891179 64.4378813,45.842847 C63.7957568,45.0980171 63.1247195,44.5275275 62.4756904,43.9755939 C61.8948439,43.4819176 61.3463626,43.0149964 60.8897983,42.4716935 C59.9158232,41.3108636 58.9824124,40.1992288 57.6938481,39.1894362 C56.793234,38.3630462 55.7674746,37.4348138 54.707624,36.4755109 C52.6267609,34.5918595 50.474263,32.6439093 49.0571012,31.2755109 C48.5155244,30.7520586 47.8160058,30.1384155 47.1389269,29.5450545 C46.460985,28.9499674 45.7593087,28.3354611 45.2643377,27.8525732 C44.2562713,26.8686727 42.3109103,25.0756437 41.0862132,24.1698512 C38.1388273,21.9905981 34.3322547,21.4192454 31.3887526,22.7138512 C28.9065618,23.8052039 27.3646863,26.0612703 27.0462132,29.0660503 C26.8196572,31.2081914 27.4268273,33.2053367 28.8517568,35.002681 C29.5633585,35.9011375 30.2995576,36.6356105 31.0111593,37.3459176 C31.6541468,37.988042 34.6006697,41.199096 35.5686033,42.0090877 C36.078678,42.4363076 36.5602713,42.8393615 37.0094995,43.2756437 C37.1734829,43.4353118 37.3150265,43.5759923 37.4453502,43.7058844 C37.7534663,44.0122744 38.0322381,44.2888885 38.4063792,44.6121084 C37.8975991,44.8472952 37.4656323,45.1277931 37.1488854,45.4359093 C36.4541136,46.1108304 35.2294165,48.0656852 35.0248688,49.2795939 C34.8410348,50.3718097 34.9916406,51.8908138 35.3731178,52.9834611 C34.6351925,53.0878927 33.9361053,53.2898512 33.3958232,53.605735 C32.0011012,54.4221997 30.7850348,56.2074611 30.5671095,57.7575358 C30.3232921,59.4897184 30.5520058,60.6876603 31.4409684,62.3348304 C31.5928688,62.6157599 31.9389601,63.1892703 32.4913253,64.1015358 C33.0501634,65.0245898 33.8152755,66.2889881 34.0418315,66.7269964 C34.8207526,68.232623 36.0152423,69.6735192 37.0815659,70.8844072 C37.3051012,71.1381499 37.5187112,71.3923242 37.7297319,71.6443408 C38.3541634,72.3874445 42.4610846,77.4174196 43.1014829,78.468208 C43.8722049,79.7343325 44.7124041,80.8468304 45.3683377,81.8475607 C46.7997402,84.0302661 46.9378315,85.9337682 46.9184124,88.2511126 C46.9162547,88.5260006 46.9136655,88.7978678 46.9145286,89.0658512 C46.9158232,89.8210379 46.9637236,90.6715939 47.0098979,91.4941001 C47.0310431,91.8716935 47.0517568,92.2393615 47.066429,92.5785483 C47.1143294,93.6858678 47.0944788,94.2352122 47.0685867,94.930847 C47.0504622,95.4262495 47.0297485,95.9876769 47.0297485,96.8283076 C47.029317,98.100042 46.9719228,99.5288553 46.9162547,100.910631 C46.8588605,102.332108 46.7997402,103.801486 46.7997402,105.150034 C46.7997402,105.254897 46.7984456,105.368822 46.7975825,105.488789 C46.7911095,106.222399 46.7837734,107.135528 46.9499145,107.864391 C47.434097,109.984955 49.9206033,110.698714 51.4059477,111.125071 C51.5582796,111.168656 51.7002547,111.209652 51.8266946,111.24849 C54.5518398,112.083942 56.4242713,112.274681 58.7955576,112.516341 C59.2443543,112.562084 59.7168854,112.610415 60.2239394,112.665652 C61.7075576,112.827909 63.4785784,112.928025 65.2772174,112.928025 C67.5760058,112.928025 69.9188107,112.764474 71.7580141,112.357536 C72.1968854,112.26044 72.7246531,112.155146 73.2834912,112.04381 C77.3614995,111.229503 80.4249684,110.64132 80.6454829,108.421934 C80.6454829,108.421934 80.5764373,105.071494 80.5078232,103.540839 C80.4068439,101.301602 80.2532174,99.1862163 80.3403875,97.0691043 C80.3986448,95.652374 80.4374829,94.2805234 80.5030763,92.953984 C80.6666282,89.6548968 80.8068771,86.7580006 80.8068771,83.2198429 C80.8068771,78.5717765 80.890595,74.5062827 81.1296655,71.0540006 L81.1426116,71.0540006 C81.1426116,71.0540006 81.141317,70.7100669 81.141317,70.6470628 C81.2798398,68.42293 81.4623792,66.055096 81.6997236,63.5931873 C81.9547609,60.9457184 82.077317,57.080457 82.0643709,52.2127391 C82.0583294,49.9739342 82.0997568,47.556042 82.1403211,45.2443076 C82.1791593,43.0063657 82.2192921,41.162847 82.2167029,38.9706479 C82.2154082,37.9297848 82.304736,36.0439757 82.3983792,34.568125 C82.8096323,28.1132205 83.3210016,20.0715607 79.0367195,16.8674113 L79.0367195,16.8674113 Z M37.9303958,39.1877101 C37.0828605,38.4778346 32.0330348,33.3693201 31.4534829,32.6382993 C30.6257983,31.5944155 30.3293336,30.6938014 30.4544788,29.5113947 C30.6327029,27.8275441 31.6122879,26.6352122 32.8697817,26.0824155 C34.5734829,25.3337018 36.8601883,25.36693 38.7062962,26.7318761 C39.7752091,27.5224487 42.2794082,29.588208 43.1795908,30.4668138 C43.7444705,31.0178844 46.0229767,33.4608055 46.5006863,33.9221167 C47.1147609,34.5154777 47.8561385,35.2076603 48.6639726,35.9516271 C46.6396406,35.8968221 44.533317,36.5130545 42.6505286,38.8895192 C41.7525037,40.0235939 41.443956,41.18054 41.4107278,42.3241084 C41.3270099,42.2524736 41.2445867,42.1834279 41.1664788,42.1208553 C40.68618,41.7389466 40.4294165,41.4834777 40.0401717,41.0968221 C39.9007858,40.9578678 39.749317,40.807262 39.5732506,40.636374 C39.0269269,40.1051541 38.4693834,39.6386645 37.9303958,39.1877101 L37.9303958,39.1877101 Z M45.0610846,50.0503159 C46.4998232,52.2662495 48.80379,55.1851541 50.4224788,56.4758761 C51.3770348,57.2371043 52.8062796,58.6231956 53.954595,59.7369881 C54.2834248,60.0554611 54.591541,60.3540835 54.8634082,60.6142993 C55.66218,61.3776852 56.3668771,62.0047059 56.9887195,62.5579342 C58.2824622,63.7092703 59.3043377,64.6185151 60.6265618,66.2320254 C61.1914414,66.9207557 61.9738149,68.1631458 62.3220639,69.3973367 C62.7937319,71.0716935 62.250429,71.793652 61.7243875,72.2355441 C59.5067278,74.0971873 57.5147609,72.8034445 57.154429,72.5371873 C57.154429,72.5371873 54.4008024,70.8093201 52.8395078,69.407262 C52.8390763,69.4068304 49.7907112,66.6644238 48.2963045,64.9904985 C45.2708107,61.6020835 41.8880058,57.8062993 39.6241717,53.4111126 C39.3609352,52.9001748 39.1093502,52.3836271 38.8789103,51.856291 C38.7054331,51.4597101 38.5660473,50.4538014 38.6506282,49.9100669 C38.7550597,49.5208221 39.0541136,48.6538678 39.7022796,48.0868304 C40.4613502,47.4852703 41.9678398,46.8237267 43.3336489,47.9983657 C43.5934331,48.3142495 43.9019809,48.6473947 44.1604705,48.9352288 C44.5717236,49.3926562 44.7948273,49.6403574 45.0610846,50.0503159 L45.0610846,50.0503159 Z M44.5920058,72.6480918 C43.6702464,72.1660669 43.145068,71.7966727 42.3967858,71.1968387 C42.3570846,71.1649051 41.1211676,69.9600586 40.5476572,69.2773698 C40.3715908,69.0676437 40.1920721,68.856623 40.0095327,68.6451707 C39.9542962,68.5813035 37.9062298,66.1888719 37.3102796,65.0371043 C37.0474746,64.5291873 34.6779145,60.8119425 34.5618315,60.5966064 C34.0146448,59.5824985 33.9982464,59.1824653 34.1238232,58.2917765 C34.1816489,57.8831126 34.5048688,57.2060337 35.2527195,56.7982329 C35.498263,56.664457 36.1088854,56.6044736 36.6629767,56.6044736 C36.8636406,56.6044736 37.0561053,56.6437433 37.2218149,56.6817184 C39.6138149,60.7847557 42.7299311,64.2810545 45.5508771,67.4411873 C47.005151,69.0693698 48.4011676,70.3864155 49.7143294,71.5563076 C49.7402215,71.7362578 49.7613668,71.9295856 49.7095825,72.1600254 C49.5697651,72.7857516 49.5701966,72.9592288 48.9531012,73.4943325 C48.7209352,73.6954279 48.0714746,73.8197101 47.7107112,73.7851873 C46.5511759,73.6751458 45.438678,73.090847 44.5920058,72.6480918 L44.5920058,72.6480918 Z M77.2954746,82.5047889 C77.2954746,85.9518927 76.730595,89.1556105 76.5696323,92.4080918 C76.5031759,93.7423989 76.4988605,95.2268802 76.4397402,96.6595773 C76.3465286,98.9346313 76.5735161,101.051743 76.6732008,103.270698 C76.7280058,104.486333 76.5471925,106.133503 76.5696323,107.366399 C75.5555244,107.743561 73.6887029,108.210482 72.5636904,108.43488 C71.9854331,108.5501 71.4391095,108.659279 70.9635576,108.764573 C68.2358232,109.367859 63.6973668,109.343693 60.6239726,109.007528 C60.1074248,108.951428 59.6258315,108.902233 59.1684041,108.855627 C56.8299145,108.616988 55.2845867,108.459478 52.9055327,107.730183 C52.7596738,107.685303 52.5965535,107.638698 52.4213502,107.588208 C51.9898149,107.464357 50.6982298,107.048789 50.3076904,106.770449 C50.2666946,106.406233 50.3340141,105.0702 50.3340141,104.955411 C50.3340141,103.681088 50.3555908,102.348075 50.4116904,100.963279 C50.4686531,99.5452537 50.5670431,97.8756437 50.5670431,96.5301167 C50.5674746,95.7572371 50.7012506,88.4625649 50.7034082,88.2001914 C50.7254165,85.589403 50.437151,82.2778014 48.1526033,79.2613698 C47.7284041,78.7012371 47.2498315,78.1898678 46.7328522,77.3526893 C46.9891842,77.4014528 47.2481053,77.4407225 47.5100473,77.4657516 C47.6666946,77.4804238 47.8242049,77.4877599 47.9825784,77.4877599 C49.2180639,77.4877599 50.4790099,77.041984 51.3640887,76.2742827 C52.144736,75.5976354 52.6569684,74.9438595 52.975873,74.1796105 C53.6438896,74.6542993 54.3283045,75.109569 54.9915742,75.5152122 C55.887873,76.1771873 57.4612506,76.8905151 59.2978647,76.8905151 C60.7957236,76.8900835 62.4683543,76.4158263 64.0909269,75.0534694 C67.560039,72.1406064 66.2019975,67.229735 63.4725369,63.8995773 C61.9673419,62.0621001 60.7935659,61.0177848 59.4346614,59.808623 C58.8067775,59.2502163 58.157317,58.6723906 57.4064456,57.9543159 C57.1397568,57.6997101 56.8385452,57.4071292 56.5166199,57.0951292 C55.3109103,55.9261001 53.8108937,54.4713947 52.7169518,53.599262 C51.5958232,52.7051209 50.7802215,51.5740669 48.6989269,49.2101167 C48.1858315,48.6271126 46.968039,47.1655026 46.4804041,46.6230628 C45.7946946,45.8601084 45.1970182,44.9357599 45.0735991,44.257818 C44.7641883,42.5610213 45.1780307,41.7449881 45.5349103,41.1744985 C46.5895825,39.4889217 48.2445203,38.2875275 50.3970182,39.0453035 C52.1115078,39.6490213 53.367707,40.5306479 54.4452506,41.4096852 C54.7326531,41.6444404 57.6645037,44.3527557 58.0748937,44.8416852 C58.726512,45.6180171 59.4204207,46.2083574 60.0918896,46.778847 C60.6589269,47.2613035 61.1948937,47.7170047 61.651458,48.2460669 C62.2310099,48.9183989 62.8921219,49.5277267 63.5316572,50.1172039 C64.1698979,50.705818 64.7731842,51.2616354 65.2284539,51.8157267 C66.049234,52.8138678 66.5852008,53.2829466 67.1034746,53.7369217 C67.450429,54.0407225 67.8094663,54.3548802 68.3216987,54.8917101 C68.8844207,55.4807557 69.7949601,56.2950628 70.7590099,57.1572703 C71.7282381,58.0237931 72.7306946,58.9200918 73.4504954,59.6463657 C74.455541,60.6609051 77.5125369,63.7468138 77.4482381,70.5611873 C77.4607526,70.3575026 77.2954746,77.9067806 77.2954746,82.5047889 L77.2954746,82.5047889 Z M78.2565037,59.777984 C77.6277568,58.8061665 76.8975991,57.8973532 76.0643045,57.056291 C75.2663958,56.2514777 68.4067112,49.9079093 67.9052672,49.3223159 C67.8992257,46.7434611 67.8871427,44.5603242 67.8426946,42.1199923 C67.7840058,38.905486 67.689068,36.2152952 67.7175493,32.788042 C67.7214331,32.3314777 67.6929518,23.5018346 68.9072921,20.8254528 C69.5032423,19.5127225 70.8729352,18.7273284 71.7256489,18.5081084 C73.3775659,18.0843408 75.5917734,18.4511458 76.9243543,19.4475607 C79.6132506,21.4589466 79.0431925,29.3500006 78.7260141,34.328623 C78.6284871,35.8653201 78.535707,37.3170047 78.5374331,38.47654 C78.5395908,40.6350794 78.499458,42.9317101 78.4606199,45.1528221 C78.4200556,47.4831126 78.3781966,49.892374 78.3842381,52.1678595 C78.3924373,55.0828802 78.3484207,57.6522412 78.2565037,59.777984 C78.2590929,59.7818678 78.260819,59.7853201 78.2629767,59.7887723 L78.2565037,59.777984 Z"/>
</svg>
