<?xml version="1.0" encoding="UTF-8"?>
<svg width="64px" height="64px" viewBox="0 0 64 64" version="1.1" xmlns="http://www.w3.org/2000/svg" xmlns:xlink="http://www.w3.org/1999/xlink">
    <!-- Generator: Sketch 43.2 (39069) - http://www.bohemiancoding.com/sketch -->
    <title>ipk-ico</title>
    <desc>Created with Sketch.</desc>
    <defs>
        <path d="M3.67342933,39.1892363 C7.04503061,51.7793969 18.5334338,61.0500923 32.1869456,61.0500923 C36.9255353,61.0500923 41.4033085,59.9335021 45.3714996,57.9490809 L45.371497,5.11913146 C41.4033085,3.13468004 36.9255353,2.01806769 32.1869456,2.01806769 C18.5334338,2.01806769 7.04503061,11.2889473 3.67342933,23.8791677 L3.67342933,39.1892363 L3.67342933,39.1892363 Z" id="path-1"></path>
    </defs>
    <g id="Assets" stroke="none" stroke-width="1" fill="none" fill-rule="evenodd">
        <g id="ipk-ico">
            <g id="Group">
                <path d="M-1.39888101e-13,32.0001333 C-1.39888101e-13,49.6729991 14.3272676,64 32.0001333,64 C49.6737992,64 64,49.6729991 64,32.0001333 C64,14.3272676 49.6737992,-6.24916785e-14 32.0001333,-6.24916785e-14 C14.3272676,-6.24916785e-14 -1.39888101e-13,14.3272676 -1.39888101e-13,32.0001333 M3.02423942,32.0001333 C3.02423942,24.260854 6.03781133,16.9832112 11.5113113,11.5105112 C16.9842779,6.0383447 24.260854,3.02397273 32.0001333,3.02397273 C39.7402128,3.02397273 47.0170555,6.0383447 52.4897554,11.5105112 C57.9624554,16.9832112 60.977094,24.260854 60.977094,32.0001333 C60.977094,39.7399461 57.9624554,47.0159888 52.4897554,52.4897554 C47.0170555,57.9624554 39.7402128,60.9760273 32.0001333,60.9760273 C24.260854,60.9760273 16.9842779,57.9624554 11.5113113,52.4897554 C6.03781133,47.0159888 3.02423942,39.7399461 3.02423942,32.0001333" id="Fill-1" fill="#000000"></path>
                <mask id="mask-2" fill="white">
                    <use xlink:href="#path-1"></use>
                </mask>
                <g id="Clip-4"></g>
                <path d="M7.48402215,-4.80531692 L3.67342933,-7.51602872 L7.63053292,-13.0787118 L11.4408632,-10.3682626 L7.48402215,-4.80531692 Z M12.2471975,-1.41692718 L8.43660472,-4.12763897 L12.3934457,-9.69032205 L16.2040386,-6.97987282 L12.2471975,-1.41692718 Z M17.0101104,1.97146256 L13.1997801,-0.739249231 L17.1566211,-6.30219487 L20.9672139,-3.59148308 L17.0101104,1.97146256 Z M21.9108693,4.94998974 C21.9715216,4.95865436 22.0295483,4.96259282 22.0841616,4.96653128 C22.0263975,4.96233026 21.9686334,4.95681641 21.9108693,4.94998974 L21.9108693,4.94998974 Z M27.0710416,8.93623795 L20.5597145,6.88482462 C20.6489863,6.60178051 20.7437719,6.30980923 20.8440714,6.00917333 C21.0344304,5.43783385 21.1134622,5.03190974 21.1439196,4.76488205 C20.8611381,4.66090667 20.5920098,4.51938462 20.3438868,4.34267897 L17.9626929,2.64887795 L21.9200591,-2.91354256 L23.7451422,-1.61568821 C24.5170806,-1.38069333 25.5051093,-0.910966154 26.3692078,0.0277005128 L21.962857,4.08326564 L27.6883298,2.36163282 C27.887616,3.01988103 27.9887032,3.73431795 27.9887032,4.48551385 C27.9887032,5.61453949 27.7702498,6.81865846 27.3207401,8.16718769 C27.2330437,8.43053949 27.1492857,8.68706462 27.0710416,8.93623795 L27.0710416,8.93623795 Z M19.7486539,14.4338051 C19.5924283,13.7808082 19.5131339,13.0818626 19.5131339,12.3571856 C19.5131339,11.1388882 19.7292242,9.79245949 20.1929124,8.11940103 L26.771456,9.94290872 C26.4813227,10.9908021 26.3398006,11.7803323 26.3398006,12.3571856 C26.3398006,12.5475446 26.3560796,12.7116472 26.3878498,12.8450297 L19.7486539,14.4338051 Z M24.9111893,20.5930338 C24.6286704,20.3879713 24.3141186,20.1703056 23.949417,19.9271713 C22.3401616,18.8540718 21.2071975,17.6861867 20.4851463,16.3557744 L26.4844734,13.0986667 C26.6063032,13.323159 26.9224304,13.7046646 27.7361165,14.2471221 C28.1761739,14.5404062 28.5637186,14.8090092 28.9205432,15.0676349 L24.9111893,20.5930338 Z M26.679296,22.5050256 C26.6761452,22.3070523 26.6714191,22.0077292 25.6631729,21.1722503 L30.0185863,15.9154544 C31.4905206,17.1350646 33.4531873,19.1337026 33.505175,22.3965867 L26.679296,22.5050256 Z M30.2407155,29.7956431 L25.0351196,25.3793149 C26.2762601,23.9160451 26.5514273,23.3675487 26.6049904,23.1706256 C26.6112919,23.1375426 26.6207442,23.0863426 26.6294088,23.0359303 L33.3576139,24.1917374 C33.3392345,24.2996513 33.319017,24.4091405 33.2969616,24.5199426 C32.8926129,26.5406359 31.5073247,28.302441 30.2407155,29.7956431 L30.2407155,29.7956431 Z M27.1148898,33.7973826 L21.0609493,30.6429374 C21.9242601,28.9858954 23.2373432,27.4653867 24.2925883,26.2434133 L29.4590622,30.7051651 C28.6359237,31.6587979 27.6108734,32.8455877 27.1148898,33.7973826 L27.1148898,33.7973826 Z M20.1716447,38.7427774 C19.9636939,37.9012595 19.8626068,37.0542277 19.8626068,36.1533703 C19.8626068,35.316841 19.9471524,34.4193969 20.1288468,33.3287056 C20.1852981,32.9886851 20.2680057,32.6402626 20.3743442,32.2944656 L26.8998498,34.2991426 C26.8825206,34.3555938 26.8701801,34.4060062 26.8630909,34.4490667 C26.7457247,35.1516882 26.6892734,35.7085867 26.6892734,36.1533703 C26.6892734,36.5041559 26.7228816,36.79744 26.7990252,37.1041149 L20.1716447,38.7427774 Z M22.8684406,44.8550072 C22.6541883,44.4561723 22.4304837,44.0229415 22.2028406,43.5671303 L22.1358868,43.4337477 C21.5212242,42.2044226 21.0354806,41.2331979 20.6615893,40.2706379 L27.0250929,37.7985969 C27.2837186,38.4647221 27.7067093,39.3101785 28.241815,40.3803897 L28.3087688,40.51456 C28.5075298,40.9123446 28.7013022,41.286761 28.8843093,41.6283569 L22.8684406,44.8550072 Z M27.2839811,50.6156636 C25.9527811,49.6084677 24.7486622,48.1349579 23.494656,45.9787815 L29.3960468,42.5468062 C30.1582704,43.8577887 30.8335852,44.7407918 31.4030868,45.1716595 L27.2839811,50.6156636 Z M34.7268857,52.5880451 C33.2229186,52.5880451 30.9916488,52.4859077 28.9817206,51.60448 L31.7226273,45.3525662 C32.655255,45.7613785 34.2148857,45.7613785 34.7271483,45.7613785 L34.9130437,45.7605908 L34.9734334,52.5869949 L34.7268857,52.5880451 Z M37.9141514,52.593559 C37.8787052,52.5552246 37.8466724,52.5239795 37.8188406,52.4987733 C37.5242437,52.5053374 37.1905247,52.5189908 36.8428898,52.5329067 L36.2358416,52.5568 L35.9877186,45.7345969 L36.5664098,45.7120164 C37.1285596,45.6891733 37.6597268,45.6676431 38.1622745,45.6676431 C39.8678909,45.6676431 41.5593288,46.4810667 42.9257124,47.9582523 L38.0281042,52.4882708 C38.0695893,52.4919467 38.1142252,52.4943097 38.1622745,52.4943097 C38.1165883,52.4943097 38.0693268,52.4945723 38.0207524,52.4950974 L37.9141514,52.593559 Z M44.9684611,56.7530995 L38.4689493,54.6649272 C38.5198868,54.5060759 38.5448304,54.3430236 38.5448304,54.1671056 C38.5448304,53.7748349 38.418537,53.3484308 38.1895811,52.9661374 L44.0455483,49.4574933 C44.9130601,50.9050092 45.371497,52.5336944 45.371497,54.1671056 C45.371497,55.0506338 45.2357514,55.9205087 44.9684611,56.7530995 L44.9684611,56.7530995 Z M38.6073206,62.4097805 L36.3264263,55.9753846 C36.8063934,55.8052431 37.2186191,55.706519 37.549975,55.6274872 C37.6725924,55.59808 37.8322314,55.5597456 37.9191401,55.5334892 C37.9695524,55.4833395 38.0837678,55.3580964 38.2554847,55.1002585 C38.2736016,55.0734769 38.2904057,55.0464328 38.3069473,55.0193887 L44.1658027,58.522519 C44.0930724,58.6446113 44.0161411,58.7661785 43.9355339,58.8869579 C42.3023852,61.3369436 40.6705493,61.899881 39.1392755,62.2664205 C38.9200345,62.3189333 38.7470047,62.3604185 38.6073206,62.4097805 L38.6073206,62.4097805 Z M36.0691134,65.0955487 L30.4998663,61.1476349 L30.6726334,60.9024 C32.0119729,58.9890954 33.2497001,57.6999056 34.5672468,56.8449969 L38.2827914,62.5720451 C37.9102129,62.8136041 37.2577411,63.3993846 36.2652488,64.8177559 L36.0691134,65.0955487 Z M30.4778109,69.8881313 L27.4367934,63.7761641 C27.8411422,63.57504 28.1874642,63.45216 28.4400509,63.3628882 C28.7149555,63.2652144 28.952576,63.1811938 29.8915052,61.9691979 L35.2879852,66.1502687 C33.4762929,68.4884021 32.2414539,69.2579774 30.7206827,69.7970215 C30.627735,69.8301046 30.5116816,69.8713272 30.4778109,69.8881313 L30.4778109,69.8881313 Z" id="Fill-3" fill="#000000" mask="url(#mask-2)"></path>
            </g>
        </g>
    </g>
</svg>