<svg xmlns="http://www.w3.org/2000/svg" width="69" height="12" viewBox="0 0 69 12">
  <g fill="#000000" fill-rule="evenodd">
    <path d="M9.60304027 9.06303446C8.79865772 9.28191446 7.11904027 9.22383446 6.63557718 8.99343446 6.29520805 8.39967446 2.23902685.294394463 2.23902685.294394463L.0658141e-14 1.42383446C.0658141e-14 1.42383446 4.26179195 9.89727446 4.55816779 10.4233545 4.87630872 10.9878345 5.47554362 11.3804745 6.33966443 11.5902345 6.85554362 11.7155145 7.50155034 11.7803145 8.16330201 11.7803145 9.33815436 11.7803145 10.562094 11.5758345 11.1960604 11.1443145L11.4766913 10.9532745 16.151094 1.23759446 13.9227181.0860744628 9.60304027 9.06303446 9.60304027 9.06303446zM27.6708523.368794463C27.6356577.355834463 23.9119732-.560485537 23.0015436.969754463 22.7320268 1.42239446 22.3578523 2.29071446 21.8581812 3.46767446 21.6650738 3.92223446 19.0634497 9.93759446 18.7615168 10.5399945L20.9713691 11.7289545C21.1098322 11.4524745 21.5409664 10.4694345 22.0133154 9.38127446 22.8913289 9.41343446 24.1773221 9.42783446 25.4883221 9.42783446 27.0225302 9.42783446 28.5859128 9.40767446 29.563953 9.37167446 30.1858792 10.7675145 30.6526711 11.8230345 30.6526711 11.8230345L32.8986443 10.7089545C32.8986443 10.7089545 31.5431879 7.74783446 31.2477383 7.06479446 28.4844966.672154463 28.3122282.607834463 27.6708523.368794463L27.6708523.368794463zM23.1159262 6.83055446C23.364604 6.25455446 23.5405772 5.84991446 23.566047 5.80143446 23.6795034 5.58351446 24.7010738 3.17967446 24.9326174 2.69151446 25.3586577 2.66415446 25.9541879 2.64831446 26.5038725 2.67471446 26.7469933 3.12159446 27.5726779 4.93119446 28.4238322 6.82383446 26.872953 6.85167446 24.6575436 6.85455446 23.1159262 6.83055446L23.1159262 6.83055446zM42.4822349.655834463C42.0937047 1.10463446 40.4358523 4.48671446 37.5540604 10.7075145L39.7986443 11.8244745C40.1325302 11.1035145 40.4747517 10.3686345 40.8146577 9.64335446L48.7427114 9.44799446C49.3215705 10.7142345 49.7652081 11.6929545 49.8240201 11.8427145L52.1454765 10.9091145C51.9375503 10.3547145 47.3094564.606394463 46.9950201.411034463 46.2753826-.0363255372 43.326443-.319045537 42.4822349.655834463L42.4822349.655834463zM42.047396 7.03167446C43.0166376 4.99407446 43.841396 3.30207446 44.2178859 2.60607446 44.5962282 2.57007446 45.2102819 2.58303446 45.5886242 2.63439446 45.7131946 2.87487446 46.6250134 4.83999446 47.5715638 6.89535446L42.047396 7.03167446 42.047396 7.03167446zM68.7818859.102874463C68.3187987.102874463 67.7218792.0956744628 67.1402416.0884744628 66.0515235.0750344628 54.9795705.293914463 54.9795705.293914463L55.051349 2.87343446C55.051349 2.87343446 58.941745 2.76543446 60.7176846 2.72607446 60.7755705 5.42607446 60.879302 11.0915145 60.8806913 11.1596745L63.3702483 11.1102345C63.3651544 10.8342345 63.2651275 5.38479446 63.2077047 2.70351446 65.2915973 2.69487446 68.4512416 2.68431446 68.7818859 2.68431446L68.7818859.102874463 68.7818859.102874463z"/>
  </g>
</svg>
