<svg xmlns="http://www.w3.org/2000/svg" width="64" height="64" viewBox="0 0 64 64">
  <path fill="#323639" fill-rule="evenodd" d="M56.4340992,33.6507905 C50.3453759,33.6977273 45.0591128,36.8190281 40.5769099,43.0146928 C36.3600603,36.7406222 31.0633964,33.6281221 24.6847847,33.6771925 C19.6102708,33.7161287 15.4478253,35.4879949 12.1947813,38.9922578 C9.86073956,41.5060463 8.3795618,44.4633348 7.74058054,47.8595895 C4.67208374,43.186439 3.02396013,37.7201623 3.02396013,31.9997333 C3.02396013,24.2599528 6.03805285,16.9834071 11.51073,11.51073 C16.9836738,6.03778617 24.2602195,3.02369344 32,3.02369344 C39.7397805,3.02369344 47.0163262,6.03778617 52.48927,11.51073 C57.9619471,16.9834071 60.9760399,24.2599528 60.9760399,31.9997333 C60.9760399,32.7051196 60.9504379,33.4067722 60.9008342,34.1033578 C59.5007292,33.7897342 58.0120842,33.6387896 56.4340992,33.6507905 M52.48927,52.4890033 C51.4163896,53.5618838 50.2731038,54.5387571 49.0719471,55.4182897 C48.2633531,54.4520839 47.4662266,53.3138652 46.6808344,51.9921661 C49.578385,47.1502029 52.6047454,44.7161537 55.7577818,44.6918852 C56.5351735,44.6857514 57.2568276,44.7809586 57.9243443,44.9753732 C56.5474411,47.719579 54.7233042,50.2547024 52.48927,52.4890033 M18.4659183,52.1004409 C18.449117,49.9258778 19.0603629,48.1364102 20.3007226,46.7315049 C21.5400155,45.3268662 23.1740047,44.6164129 25.2034903,44.6006784 C27.0156262,44.5868107 28.6509488,45.1815219 30.1102583,46.3840121 C31.5687677,47.5875691 32.9960747,49.4154395 34.3935128,51.8692235 C31.6037036,56.7831921 28.6144127,59.2527106 25.4256403,59.2775125 C23.3236159,59.2935137 21.6424232,58.6454651 20.382062,57.3317665 C19.1209007,56.0188681 18.4827195,54.2747373 18.4659183,52.1004409 M32,-2.27373675e-13 C14.3269412,-2.27373675e-13 4.26325641e-13,14.3266745 4.26325641e-13,31.9997333 C4.26325641e-13,39.7749831 2.77407472,46.901651 7.38508721,52.4466002 C13.2548608,59.5049962 22.102191,63.9997333 32,63.9997333 C34.1828304,63.9997333 36.3147236,63.7802502 38.3748781,63.3636856 C39.4664266,63.1431357 40.5379737,62.8668483 41.586319,62.5380237 C45.1057829,61.4344743 48.3628272,59.7388804 51.2422432,57.5685843 C55.1190673,54.6464985 58.3105066,50.8632814 60.5312065,46.5029544 C62.3092065,43.0122926 63.4642265,39.1520031 63.852789,35.0679634 C63.9487962,34.058021 64,33.035011 64,31.9997333 C64,14.3266745 49.6730588,-2.27373675e-13 32,-2.27373675e-13"/>
</svg>
