<svg xmlns="http://www.w3.org/2000/svg" width="64" height="64" viewBox="0 0 64 64" xmlns:xlink="http://www.w3.org/1999/xlink">
  <defs>
    <polygon id="a" points="31.997 63.995 63.995 63.995 63.995 0 31.997 0 0 0 0 63.995 31.997 63.995"/>
  </defs>
  <g fill="none" fill-rule="evenodd">
    <mask id="b" fill="white">
      <use xlink:href="#a"/>
    </mask>
    <path fill="#323639" d="M52.4850933,52.4850667 C47.0128267,57.9576 39.73656,60.9712 31.99736,60.9712 C24.25816,60.9712 16.9824267,57.9576 11.5098933,52.4850667 C7.53709333,48.5122667 4.86136,43.5885333 3.69256,38.2274667 C6.07176,37.5312 9.03149333,36.0469333 10.7528267,32.8805333 C12.2018933,35.6493333 15.20296,38.8421333 21.33176,38.8421333 C21.45496,38.8421333 24.3888267,38.8250667 27.3408267,37.3493333 C28.99736,36.5210667 30.8408267,35.1424 32.07736,32.8672 C33.5240267,35.6392 36.5248267,38.8421333 42.6634933,38.8421333 C42.75896,38.8421333 50.2216267,38.7565333 53.4160267,32.8805333 C54.53416,35.0170667 56.57896,37.4034667 60.2696267,38.3826667 C59.0832267,43.6837333 56.41976,48.5506667 52.4850933,52.4850667 L52.4850933,52.4850667 Z M11.5098933,11.5098667 C16.9824267,6.03733333 24.25816,3.02346667 31.99736,3.02346667 C39.73656,3.02346667 47.0128267,6.03733333 52.4850933,11.5098667 C57.9576267,16.9824 60.9712267,24.2581333 60.9712267,31.9976 C60.9712267,33.1346667 60.90456,34.2616 60.7760267,35.3746667 C58.66936,34.7386667 57.0864267,33.4141333 56.05736,31.4061333 C54.86936,29.0877333 54.8410933,26.684 54.8408267,26.6645333 L51.81736,26.6645333 C51.81736,30.4312 50.33256,33.1016 47.4048267,34.6021333 C45.0866933,35.7898667 42.6826933,35.8184 42.6634933,35.8184 C38.8968267,35.8184 36.22616,34.3341333 34.7258933,31.4061333 C33.5378933,29.0877333 33.5096267,26.684 33.50936,26.6645333 L30.4858933,26.6645333 C30.4858933,30.4312 29.0010933,33.1016 26.07336,34.6018667 C23.75496,35.7898667 21.35096,35.8184 21.33176,35.8184 C17.5650933,35.8184 14.8944267,34.3341333 13.39416,31.4061333 C12.20616,29.0877333 12.1776267,26.684 12.17736,26.6645333 L9.15416,26.6645333 C9.15416,30.4312 7.66936,33.1016 4.74162667,34.6021333 C4.22349333,34.8674667 3.70242667,35.0733333 3.20349333,35.2357333 C3.08562667,34.1677333 3.02376,33.0874667 3.02376,31.9976 C3.02376,24.2581333 6.03736,16.9824 11.5098933,11.5098667 L11.5098933,11.5098667 Z M63.2626933,38.8242667 C63.31576,38.5792 63.36616,38.3330667 63.4138933,38.0856 C63.4146933,38.0821333 63.4154933,38.0784 63.4160267,38.0749333 C63.46296,37.8301333 63.5074933,37.5845333 63.5488267,37.3378667 C63.5498933,37.332 63.5506933,37.3261333 63.55176,37.3202667 C63.5928267,37.0746667 63.6314933,36.828 63.66696,36.5802667 C63.66776,36.5752 63.6682933,36.5698667 63.6690933,36.5645333 C63.8824267,35.0725333 63.99496,33.5482667 63.99496,31.9976 C63.99496,14.3256 49.6690933,0 31.99736,0 C14.3258933,0 2.66666666e-05,14.3256 2.66666666e-05,31.9976 C2.66666666e-05,33.5450667 0.112293333,35.0664 0.32456,36.5552 L0.326693333,36.5706667 C0.361893333,36.8157333 0.39976,37.06 0.44056,37.3034667 C0.441626667,37.3104 0.442693333,37.3170667 0.44376,37.324 C0.484826667,37.5682667 0.52856,37.8114667 0.57496,38.0538667 L0.577093333,38.0650667 C3.41256,52.8349333 16.40056,63.9949333 31.99736,63.9949333 C47.3258933,63.9949333 60.1344267,53.2157333 63.2624267,38.8245333 L63.2626933,38.8242667 Z" mask="url(#b)"/>
  </g>
</svg>
